<svg xmlns="http://www.w3.org/2000/svg" xmlns:xlink="http://www.w3.org/1999/xlink" contentStyleType="text/css" data-diagram-type="CLASS" height="1126px" preserveAspectRatio="none" style="width:1437px;height:1126px;background:#FFFFFF;" version="1.1" viewBox="0 0 1437 1126" width="1437px" zoomAndPan="magnify"><title>HDDT FHIR Data Model (Medical Aids and Implants)</title><defs/><g><g class="title" data-source-line="5"><text fill="#000000" font-family="sans-serif" font-size="14" font-weight="bold" lengthAdjust="spacing" textLength="407.0391" x="508.3905" y="22.9951">HDDT FHIR Data Model (Medical Aids and Implants)</text></g><!--cluster HDDT_Measurements_and_Devices--><g class="cluster" data-entity="HDDT_Measurements_and_Devices" data-source-line="8" data-uid="ent0002" id="cluster_HDDT_Measurements_and_Devices"><rect fill="#CDE0FF" height="940.83" rx="2.5" ry="2.5" style="stroke:#181818;stroke-width:1;" width="532" x="44.82" y="44.2969"/><text fill="#000000" font-family="sans-serif" font-size="14" font-weight="bold" lengthAdjust="spacing" textLength="217" x="199.883" y="59.292">Measurements and Devices</text><text fill="#000000" font-family="sans-serif" font-size="14" font-weight="bold" lengthAdjust="spacing" textLength="516.0791" x="52.7804" y="75.5889">(implemented by the manufacturer; accessible via the HDDT API)</text></g><!--cluster HDDT_Registries--><g class="cluster" data-entity="HDDT_Registries" data-source-line="45" data-uid="ent0011" id="cluster_HDDT_Registries"><rect fill="#F5A623" height="533.32" rx="2.5" ry="2.5" style="stroke:#181818;stroke-width:1;" width="831" x="600.82" y="587.0769"/><text fill="#000000" font-family="sans-serif" font-size="14" font-weight="bold" lengthAdjust="spacing" textLength="368.792" x="831.924" y="602.072">Device Definitions (HDDT Registries at BfARM)</text></g><!--cluster ZTS--><g class="cluster" data-entity="ZTS" data-source-line="76" data-uid="ent0024" id="cluster_ZTS"><rect fill="#7ED321" height="215.78" rx="2.5" ry="2.5" style="stroke:#181818;stroke-width:1;" width="452" x="790.82" y="322.2969"/><text fill="#000000" font-family="sans-serif" font-size="14" font-weight="bold" lengthAdjust="spacing" textLength="423.2881" x="805.176" y="337.292">MIV Definitions (German Central Terminology Server)</text></g><!--class IV--><g class="entity" data-entity="IV" data-source-line="10" data-uid="ent0003" id="entity_IV"><rect fill="#F1F1F1" height="121.4531" rx="2.5" ry="2.5" style="stroke:#181818;stroke-width:0.5;" width="354.7881" x="151.82" y="134.2969"/><ellipse cx="255.6476" cy="154.4297" fill="#ADD1B2" rx="11" ry="11" style="stroke:#181818;stroke-width:1;"/><path d="M258.6164,160.0703 Q258.0383,160.3672 257.3976,160.5078 Q256.757,160.6641 256.0539,160.6641 Q253.5539,160.6641 252.2258,159.0234 Q250.9133,157.3672 250.9133,154.2422 Q250.9133,151.1172 252.2258,149.4609 Q253.5539,147.8047 256.0539,147.8047 Q256.757,147.8047 257.3976,147.9609 Q258.0539,148.1172 258.6164,148.4141 L258.6164,151.1328 Q257.9914,150.5547 257.3976,150.2891 Q256.8039,150.0078 256.1789,150.0078 Q254.8351,150.0078 254.1476,151.0859 Q253.4601,152.1484 253.4601,154.2422 Q253.4601,156.3359 254.1476,157.4141 Q254.8351,158.4766 256.1789,158.4766 Q256.8039,158.4766 257.3976,158.2109 Q257.9914,157.9297 258.6164,157.3516 L258.6164,160.0703 Z " fill="#000000"/><text fill="#000000" font-family="sans-serif" font-size="12" font-style="italic" lengthAdjust="spacing" textLength="119.373" x="285.7775" y="150.4355">&#171;FHIR Observation&#187;</text><text fill="#000000" font-family="sans-serif" font-size="14" lengthAdjust="spacing" textLength="138.6328" x="276.1476" y="166.2607">Interoperable Value</text><line style="stroke:#181818;stroke-width:0.5;" x1="152.82" x2="505.6081" y1="174.5625" y2="174.5625"/><text fill="#000000" font-family="sans-serif" font-size="14" lengthAdjust="spacing" textLength="304.5068" x="157.82" y="191.5576">status : status of the measured value [1..1]</text><text fill="#000000" font-family="sans-serif" font-size="14" lengthAdjust="spacing" textLength="342.7881" x="157.82" y="207.8545">code : classification of the measured value [1..1]</text><text fill="#000000" font-family="sans-serif" font-size="14" lengthAdjust="spacing" textLength="334.4619" x="157.82" y="224.1514">date : date or period of the measurement [1..1]</text><text fill="#000000" font-family="sans-serif" font-size="14" lengthAdjust="spacing" textLength="303.1875" x="157.82" y="240.4482">value : outcome of the measurement [1..1]</text><line style="stroke:#181818;stroke-width:0.5;" x1="152.82" x2="505.6081" y1="247.75" y2="247.75"/></g><!--class Metric--><g class="entity" data-entity="Metric" data-source-line="17" data-uid="ent0004" id="entity_Metric"><rect fill="#F1F1F1" height="105.1563" rx="2.5" ry="2.5" style="stroke:#181818;stroke-width:0.5;" width="429.1084" x="123.32" y="396.6869"/><ellipse cx="209.9997" cy="416.8197" fill="#ADD1B2" rx="11" ry="11" style="stroke:#181818;stroke-width:1;"/><path d="M212.9684,422.4603 Q212.3903,422.7572 211.7497,422.8978 Q211.1091,423.0541 210.4059,423.0541 Q207.9059,423.0541 206.5778,421.4134 Q205.2653,419.7572 205.2653,416.6322 Q205.2653,413.5072 206.5778,411.8509 Q207.9059,410.1947 210.4059,410.1947 Q211.1091,410.1947 211.7497,410.3509 Q212.4059,410.5072 212.9684,410.8041 L212.9684,413.5228 Q212.3434,412.9447 211.7497,412.6791 Q211.1559,412.3978 210.5309,412.3978 Q209.1872,412.3978 208.4997,413.4759 Q207.8122,414.5384 207.8122,416.6322 Q207.8122,418.7259 208.4997,419.8041 Q209.1872,420.8666 210.5309,420.8666 Q211.1559,420.8666 211.7497,420.6009 Q212.3434,420.3197 212.9684,419.7416 L212.9684,422.4603 Z " fill="#000000"/><text fill="#000000" font-family="sans-serif" font-size="12" font-style="italic" lengthAdjust="spacing" textLength="124.6465" x="291.801" y="412.8255">&#171;FHIR DeviceMetric&#187;</text><text fill="#000000" font-family="sans-serif" font-size="14" lengthAdjust="spacing" textLength="247.249" x="230.4997" y="428.6507">Sensor Type and Calibration Status</text><line style="stroke:#181818;stroke-width:0.5;" x1="124.32" x2="551.4284" y1="436.9525" y2="436.9525"/><text fill="#000000" font-family="sans-serif" font-size="14" lengthAdjust="spacing" textLength="351.9688" x="129.32" y="453.9476">type : kind of value measured by the sensor [1..1]</text><text fill="#000000" font-family="sans-serif" font-size="14" lengthAdjust="spacing" textLength="230.3301" x="129.32" y="470.2445">unit : unit of measurement [0..1]</text><text fill="#000000" font-family="sans-serif" font-size="14" lengthAdjust="spacing" textLength="417.1084" x="129.32" y="486.5414">calibration.state : quality indicator for measurements [0..1]</text><line style="stroke:#181818;stroke-width:0.5;" x1="124.32" x2="551.4284" y1="493.8431" y2="493.8431"/></g><!--class PHD--><g class="entity" data-entity="PHD" data-source-line="25" data-uid="ent0006" id="entity_PHD"><rect fill="#F1F1F1" height="137.75" rx="2.5" ry="2.5" style="stroke:#181818;stroke-width:0.5;" width="348.54" x="212.55" y="632.9269"/><ellipse cx="301.1882" cy="653.0597" fill="#ADD1B2" rx="11" ry="11" style="stroke:#181818;stroke-width:1;"/><path d="M304.1569,658.7003 Q303.5788,658.9972 302.9382,659.1378 Q302.2976,659.2941 301.5944,659.2941 Q299.0944,659.2941 297.7663,657.6534 Q296.4538,655.9972 296.4538,652.8722 Q296.4538,649.7472 297.7663,648.0909 Q299.0944,646.4347 301.5944,646.4347 Q302.2976,646.4347 302.9382,646.5909 Q303.5944,646.7472 304.1569,647.0441 L304.1569,649.7628 Q303.5319,649.1847 302.9382,648.9191 Q302.3444,648.6378 301.7194,648.6378 Q300.3757,648.6378 299.6882,649.7159 Q299.0007,650.7784 299.0007,652.8722 Q299.0007,654.9659 299.6882,656.0441 Q300.3757,657.1066 301.7194,657.1066 Q302.3444,657.1066 302.9382,656.8409 Q303.5319,656.5597 304.1569,655.9816 L304.1569,658.7003 Z " fill="#000000"/><text fill="#000000" font-family="sans-serif" font-size="12" font-style="italic" lengthAdjust="spacing" textLength="87.3398" x="359.4001" y="649.0655">&#171;FHIR Device&#187;</text><text fill="#000000" font-family="sans-serif" font-size="14" lengthAdjust="spacing" textLength="162.7637" x="321.6882" y="664.8907">Personal Health Device</text><line style="stroke:#181818;stroke-width:0.5;" x1="213.55" x2="560.09" y1="673.1925" y2="673.1925"/><text fill="#000000" font-family="sans-serif" font-size="14" lengthAdjust="spacing" textLength="241.3018" x="218.55" y="690.1876">deviceName : product name [1..1]</text><text fill="#000000" font-family="sans-serif" font-size="14" lengthAdjust="spacing" textLength="336.54" x="218.55" y="706.4845">manufacturer : name of the manufacturer [0..1]</text><text fill="#000000" font-family="sans-serif" font-size="14" lengthAdjust="spacing" textLength="247.0781" x="218.55" y="722.7814">serialNumber : serial number [1..1]</text><text fill="#000000" font-family="sans-serif" font-size="14" lengthAdjust="spacing" textLength="266.1025" x="218.55" y="739.0782">expirationDate : end of life date [0..1]</text><text fill="#000000" font-family="sans-serif" font-size="14" lengthAdjust="spacing" textLength="259.7656" x="218.55" y="755.3751">property : additional properties [0..*]</text><line style="stroke:#181818;stroke-width:0.5;" x1="213.55" x2="560.09" y1="762.6769" y2="762.6769"/></g><!--class DM--><g class="entity" data-entity="DM" data-source-line="33" data-uid="ent0007" id="entity_DM"><rect fill="#F1F1F1" height="121.4531" rx="2.5" ry="2.5" style="stroke:#181818;stroke-width:0.5;" width="348.54" x="212.55" y="847.6769"/><ellipse cx="305.6589" cy="867.8097" fill="#ADD1B2" rx="11" ry="11" style="stroke:#181818;stroke-width:1;"/><path d="M308.6276,873.4503 Q308.0495,873.7472 307.4089,873.8878 Q306.7683,874.0441 306.0651,874.0441 Q303.5651,874.0441 302.237,872.4034 Q300.9245,870.7472 300.9245,867.6222 Q300.9245,864.4972 302.237,862.8409 Q303.5651,861.1847 306.0651,861.1847 Q306.7683,861.1847 307.4089,861.3409 Q308.0651,861.4972 308.6276,861.7941 L308.6276,864.5128 Q308.0026,863.9347 307.4089,863.6691 Q306.8151,863.3878 306.1901,863.3878 Q304.8464,863.3878 304.1589,864.4659 Q303.4714,865.5284 303.4714,867.6222 Q303.4714,869.7159 304.1589,870.7941 Q304.8464,871.8566 306.1901,871.8566 Q306.8151,871.8566 307.4089,871.5909 Q308.0026,871.3097 308.6276,870.7316 L308.6276,873.4503 Z " fill="#000000"/><text fill="#000000" font-family="sans-serif" font-size="12" font-style="italic" lengthAdjust="spacing" textLength="87.3398" x="359.4001" y="863.8155">&#171;FHIR Device&#187;</text><text fill="#000000" font-family="sans-serif" font-size="14" lengthAdjust="spacing" textLength="153.8223" x="326.1589" y="879.6407">Device Data Recorder</text><line style="stroke:#181818;stroke-width:0.5;" x1="213.55" x2="560.09" y1="887.9425" y2="887.9425"/><text fill="#000000" font-family="sans-serif" font-size="14" lengthAdjust="spacing" textLength="225.8799" x="218.55" y="904.9376">status : operational status [1..1]</text><text fill="#000000" font-family="sans-serif" font-size="14" lengthAdjust="spacing" textLength="241.3018" x="218.55" y="921.2345">deviceName : product name [1..1]</text><text fill="#000000" font-family="sans-serif" font-size="14" lengthAdjust="spacing" textLength="336.54" x="218.55" y="937.5314">manufacturer : name of the manufacturer [0..1]</text><text fill="#000000" font-family="sans-serif" font-size="14" lengthAdjust="spacing" textLength="259.7656" x="218.55" y="953.8282">property : additional properties [0..*]</text><line style="stroke:#181818;stroke-width:0.5;" x1="213.55" x2="560.09" y1="961.13" y2="961.13"/></g><!--class PHD_Def--><g class="entity" data-entity="PHD_Def" data-source-line="47" data-uid="ent0012" id="entity_PHD_Def"><rect fill="#F1F1F1" height="121.4531" rx="2.5" ry="2.5" style="stroke:#181818;stroke-width:0.5;" width="415.751" x="999.94" y="641.0769"/><ellipse cx="1070.1382" cy="661.2097" fill="#ADD1B2" rx="11" ry="11" style="stroke:#181818;stroke-width:1;"/><path d="M1073.107,666.8503 Q1072.5289,667.1472 1071.8882,667.2878 Q1071.2476,667.4441 1070.5445,667.4441 Q1068.0445,667.4441 1066.7164,665.8034 Q1065.4039,664.1472 1065.4039,661.0222 Q1065.4039,657.8972 1066.7164,656.2409 Q1068.0445,654.5847 1070.5445,654.5847 Q1071.2476,654.5847 1071.8882,654.7409 Q1072.5445,654.8972 1073.107,655.1941 L1073.107,657.9128 Q1072.482,657.3347 1071.8882,657.0691 Q1071.2945,656.7878 1070.6695,656.7878 Q1069.3257,656.7878 1068.6382,657.8659 Q1067.9507,658.9284 1067.9507,661.0222 Q1067.9507,663.1159 1068.6382,664.1941 Q1069.3257,665.2566 1070.6695,665.2566 Q1071.2945,665.2566 1071.8882,664.9909 Q1072.482,664.7097 1073.107,664.1316 L1073.107,666.8503 Z " fill="#000000"/><text fill="#000000" font-family="sans-serif" font-size="12" font-style="italic" lengthAdjust="spacing" textLength="145.4473" x="1151.3419" y="657.2155">&#171;FHIR DeviceDefinition&#187;</text><text fill="#000000" font-family="sans-serif" font-size="14" lengthAdjust="spacing" textLength="266.8545" x="1090.6382" y="673.0407">Personal Health Device Registry Entry</text><line style="stroke:#181818;stroke-width:0.5;" x1="1000.94" x2="1414.691" y1="681.3425" y2="681.3425"/><text fill="#000000" font-family="sans-serif" font-size="14" lengthAdjust="spacing" textLength="403.751" x="1005.94" y="698.3376">type : kind of device &#171;SCT or ISO/IEEE 11073 code&#187; [1..1]</text><text fill="#000000" font-family="sans-serif" font-size="14" lengthAdjust="spacing" textLength="241.3018" x="1005.94" y="714.6345">deviceName : product name [1..1]</text><text fill="#000000" font-family="sans-serif" font-size="14" lengthAdjust="spacing" textLength="336.54" x="1005.94" y="730.9314">manufacturer : name of the manufacturer [0..1]</text><text fill="#000000" font-family="sans-serif" font-size="14" lengthAdjust="spacing" textLength="259.7656" x="1005.94" y="747.2282">property : additional properties [0..*]</text><line style="stroke:#181818;stroke-width:0.5;" x1="1000.94" x2="1414.691" y1="754.53" y2="754.53"/></g><!--class DM_Def--><g class="entity" data-entity="DM_Def" data-source-line="54" data-uid="ent0013" id="entity_DM_Def"><rect fill="#F1F1F1" height="121.4531" rx="2.5" ry="2.5" style="stroke:#181818;stroke-width:0.5;" width="348.54" x="616.55" y="641.0769"/><ellipse cx="657.9321" cy="661.2097" fill="#ADD1B2" rx="11" ry="11" style="stroke:#181818;stroke-width:1;"/><path d="M660.9009,666.8503 Q660.3228,667.1472 659.6821,667.2878 Q659.0415,667.4441 658.3384,667.4441 Q655.8384,667.4441 654.5103,665.8034 Q653.1978,664.1472 653.1978,661.0222 Q653.1978,657.8972 654.5103,656.2409 Q655.8384,654.5847 658.3384,654.5847 Q659.0415,654.5847 659.6821,654.7409 Q660.3384,654.8972 660.9009,655.1941 L660.9009,657.9128 Q660.2759,657.3347 659.6821,657.0691 Q659.0884,656.7878 658.4634,656.7878 Q657.1196,656.7878 656.4321,657.8659 Q655.7446,658.9284 655.7446,661.0222 Q655.7446,663.1159 656.4321,664.1941 Q657.1196,665.2566 658.4634,665.2566 Q659.0884,665.2566 659.6821,664.9909 Q660.2759,664.7097 660.9009,664.1316 L660.9009,666.8503 Z " fill="#000000"/><text fill="#000000" font-family="sans-serif" font-size="12" font-style="italic" lengthAdjust="spacing" textLength="145.4473" x="734.0277" y="657.2155">&#171;FHIR DeviceDefinition&#187;</text><text fill="#000000" font-family="sans-serif" font-size="14" lengthAdjust="spacing" textLength="257.9131" x="677.7948" y="673.0407">Device Data Recorder Registry Entry</text><line style="stroke:#181818;stroke-width:0.5;" x1="617.55" x2="964.09" y1="681.3425" y2="681.3425"/><text fill="#000000" font-family="sans-serif" font-size="14" lengthAdjust="spacing" textLength="206.0898" x="622.55" y="698.3376">type = 462240000|SCT [1..1]</text><text fill="#000000" font-family="sans-serif" font-size="14" lengthAdjust="spacing" textLength="310.5156" x="622.55" y="714.6345">deviceName : name of the aggregator [1..1]</text><text fill="#000000" font-family="sans-serif" font-size="14" lengthAdjust="spacing" textLength="336.54" x="622.55" y="730.9314">manufacturer : name of the manufacturer [0..1]</text><text fill="#000000" font-family="sans-serif" font-size="14" lengthAdjust="spacing" textLength="259.7656" x="622.55" y="747.2282">property : additional properties [0..*]</text><line style="stroke:#181818;stroke-width:0.5;" x1="617.55" x2="964.09" y1="754.53" y2="754.53"/></g><!--class DM_Org--><g class="entity" data-entity="DM_Org" data-source-line="61" data-uid="ent0014" id="entity_DM_Org"><rect fill="#F1F1F1" height="56.2656" rx="2.5" ry="2.5" style="stroke:#181818;stroke-width:0.5;" width="280.0215" x="650.81" y="880.2769"/><ellipse cx="665.81" cy="900.4097" fill="#ADD1B2" rx="11" ry="11" style="stroke:#181818;stroke-width:1;"/><path d="M668.7788,906.0503 Q668.2006,906.3472 667.56,906.4878 Q666.9194,906.6441 666.2163,906.6441 Q663.7163,906.6441 662.3881,905.0034 Q661.0756,903.3472 661.0756,900.2222 Q661.0756,897.0972 662.3881,895.4409 Q663.7163,893.7847 666.2163,893.7847 Q666.9194,893.7847 667.56,893.9409 Q668.2163,894.0972 668.7788,894.3941 L668.7788,897.1128 Q668.1538,896.5347 667.56,896.2691 Q666.9663,895.9878 666.3413,895.9878 Q664.9975,895.9878 664.31,897.0659 Q663.6225,898.1284 663.6225,900.2222 Q663.6225,902.3159 664.31,903.3941 Q664.9975,904.4566 666.3413,904.4566 Q666.9663,904.4566 667.56,904.1909 Q668.1538,903.9097 668.7788,903.3316 L668.7788,906.0503 Z " fill="#000000"/><text fill="#000000" font-family="sans-serif" font-size="12" font-style="italic" lengthAdjust="spacing" textLength="123.2285" x="742.2065" y="896.4155">&#171;FHIR Organization&#187;</text><text fill="#000000" font-family="sans-serif" font-size="14" lengthAdjust="spacing" textLength="248.0215" x="679.81" y="912.2407">Device Data Recorder Organization</text><line style="stroke:#181818;stroke-width:0.5;" x1="651.81" x2="929.8315" y1="920.5425" y2="920.5425"/><line style="stroke:#181818;stroke-width:0.5;" x1="651.81" x2="929.8315" y1="928.5425" y2="928.5425"/></g><!--class EP_FHIR--><g class="entity" data-entity="EP_FHIR" data-source-line="63" data-uid="ent0015" id="entity_EP_FHIR"><rect fill="#F1F1F1" height="56.2656" rx="2.5" ry="2.5" style="stroke:#181818;stroke-width:0.5;" width="289.4688" x="631.09" y="1048.1269"/><ellipse cx="646.09" cy="1068.2597" fill="#ADD1B2" rx="11" ry="11" style="stroke:#181818;stroke-width:1;"/><path d="M649.0588,1073.9003 Q648.4806,1074.1972 647.84,1074.3378 Q647.1994,1074.4941 646.4963,1074.4941 Q643.9963,1074.4941 642.6681,1072.8534 Q641.3556,1071.1972 641.3556,1068.0722 Q641.3556,1064.9472 642.6681,1063.2909 Q643.9963,1061.6347 646.4963,1061.6347 Q647.1994,1061.6347 647.84,1061.7909 Q648.4963,1061.9472 649.0588,1062.2441 L649.0588,1064.9628 Q648.4338,1064.3847 647.84,1064.1191 Q647.2463,1063.8378 646.6213,1063.8378 Q645.2775,1063.8378 644.59,1064.9159 Q643.9025,1065.9784 643.9025,1068.0722 Q643.9025,1070.1659 644.59,1071.2441 Q645.2775,1072.3066 646.6213,1072.3066 Q647.2463,1072.3066 647.84,1072.0409 Q648.4338,1071.7597 649.0588,1071.1816 L649.0588,1073.9003 Z " fill="#000000"/><text fill="#000000" font-family="sans-serif" font-size="12" font-style="italic" lengthAdjust="spacing" textLength="99.709" x="738.9699" y="1064.2655">&#171;FHIR Endpoint&#187;</text><text fill="#000000" font-family="sans-serif" font-size="14" lengthAdjust="spacing" textLength="257.4688" x="660.09" y="1080.0907">Device Data Recorder FHIR Endpoint</text><line style="stroke:#181818;stroke-width:0.5;" x1="632.09" x2="919.5588" y1="1088.3925" y2="1088.3925"/><line style="stroke:#181818;stroke-width:0.5;" x1="632.09" x2="919.5588" y1="1096.3925" y2="1096.3925"/></g><!--class EP_OAuth--><g class="entity" data-entity="EP_OAuth" data-source-line="65" data-uid="ent0016" id="entity_EP_OAuth"><rect fill="#F1F1F1" height="56.2656" rx="2.5" ry="2.5" style="stroke:#181818;stroke-width:0.5;" width="300.8643" x="955.39" y="1048.1269"/><ellipse cx="970.39" cy="1068.2597" fill="#ADD1B2" rx="11" ry="11" style="stroke:#181818;stroke-width:1;"/><path d="M973.3588,1073.9003 Q972.7806,1074.1972 972.14,1074.3378 Q971.4994,1074.4941 970.7963,1074.4941 Q968.2963,1074.4941 966.9681,1072.8534 Q965.6556,1071.1972 965.6556,1068.0722 Q965.6556,1064.9472 966.9681,1063.2909 Q968.2963,1061.6347 970.7963,1061.6347 Q971.4994,1061.6347 972.14,1061.7909 Q972.7963,1061.9472 973.3588,1062.2441 L973.3588,1064.9628 Q972.7338,1064.3847 972.14,1064.1191 Q971.5463,1063.8378 970.9213,1063.8378 Q969.5775,1063.8378 968.89,1064.9159 Q968.2025,1065.9784 968.2025,1068.0722 Q968.2025,1070.1659 968.89,1071.2441 Q969.5775,1072.3066 970.9213,1072.3066 Q971.5463,1072.3066 972.14,1072.0409 Q972.7338,1071.7597 973.3588,1071.1816 L973.3588,1073.9003 Z " fill="#000000"/><text fill="#000000" font-family="sans-serif" font-size="12" font-style="italic" lengthAdjust="spacing" textLength="99.709" x="1068.9676" y="1064.2655">&#171;FHIR Endpoint&#187;</text><text fill="#000000" font-family="sans-serif" font-size="14" lengthAdjust="spacing" textLength="268.8643" x="984.39" y="1080.0907">Device Data Recorder OAuth Endpoint</text><line style="stroke:#181818;stroke-width:0.5;" x1="956.39" x2="1255.2543" y1="1088.3925" y2="1088.3925"/><line style="stroke:#181818;stroke-width:0.5;" x1="956.39" x2="1255.2543" y1="1096.3925" y2="1096.3925"/></g><!--class MIV--><g class="entity" data-entity="MIV" data-source-line="77" data-uid="ent0025" id="entity_MIV"><rect fill="#F1F1F1" height="145.7813" rx="2.5" ry="2.5" style="stroke:#181818;stroke-width:0.5;" width="419.1348" x="807.25" y="376.2969"/><ellipse cx="999.6748" cy="392.2969" fill="#EB937F" rx="11" ry="11" style="stroke:#181818;stroke-width:1;"/><path d="M1003.7842,398.2969 L996.0654,398.2969 L996.0654,385.9062 L1003.7842,385.9062 L1003.7842,388.0625 L998.5186,388.0625 L998.5186,390.7344 L1003.2842,390.7344 L1003.2842,392.8906 L998.5186,392.8906 L998.5186,396.1406 L1003.7842,396.1406 L1003.7842,398.2969 Z " fill="#000000"/><text fill="#000000" font-family="sans-serif" font-size="14" lengthAdjust="spacing" textLength="25.7852" x="1020.1748" y="397.1436">MIV</text><line style="stroke:#181818;stroke-width:0.5;" x1="808.25" x2="1225.3848" y1="408.2969" y2="408.2969"/><text fill="#000000" font-family="sans-serif" font-size="14" lengthAdjust="spacing" textLength="254.4541" x="813.25" y="425.292">url : canonical URL for the MIV [1..1]</text><text fill="#000000" font-family="sans-serif" font-size="14" lengthAdjust="spacing" textLength="233.8643" x="813.25" y="441.5889">version : version of the MIV [1..1]</text><text fill="#000000" font-family="sans-serif" font-size="14" lengthAdjust="spacing" textLength="309.8457" x="813.25" y="457.8857">title : human-friendly name of the MIV [1..1]</text><text fill="#000000" font-family="sans-serif" font-size="14" lengthAdjust="spacing" textLength="333.5049" x="813.25" y="474.1826">name : machine-friendly name of the MIV [0..1]</text><text fill="#000000" font-family="sans-serif" font-size="14" lengthAdjust="spacing" textLength="407.1348" x="813.25" y="490.4795">description : human-readable description of the MIV [1..1]</text><text fill="#000000" font-family="sans-serif" font-size="14" lengthAdjust="spacing" textLength="326.874" x="813.25" y="506.7764">compose.include : MIV defining concepts [1..*]</text><line style="stroke:#181818;stroke-width:0.5;" x1="808.25" x2="1225.3848" y1="514.0781" y2="514.0781"/></g><!--link IV to Metric--><g class="link" data-entity-1="IV" data-entity-2="Metric" data-source-line="23" data-uid="lnk5" id="link_IV_Metric"><path codeLine="23" d="M150.82,202.7969 C41,202.7969 6,448.1869 115.82,448.1869" fill="none" id="IV-to-Metric" style="stroke:#181818;stroke-width:1;"/><polygon fill="#181818" points="121.82,448.1869,112.82,444.1869,116.82,448.1869,112.82,452.1869,121.82,448.1869" style="stroke:#181818;stroke-width:1;"/><text fill="#000000" font-family="sans-serif" font-size="13" lengthAdjust="spacing" textLength="97.2144" x="61.82" y="302.3638">corresponds to</text></g><!--link IV to Metric--><g class="link" data-entity-1="IV" data-entity-2="Metric" data-source-line="40" data-uid="lnk8" id="link_IV_Metric"><path codeLine="40" d="M331.08,259.1569 C332.55,300.3369 334.2257,347.5007 335.6357,386.9507" fill="none" id="IV-to-Metric-1" style="stroke:#181818;stroke-width:1;"/><polygon fill="#181818" points="335.85,392.9469,339.526,383.8097,335.6714,387.9501,331.5311,384.0955,335.85,392.9469" style="stroke:#181818;stroke-width:1;"/><text fill="#000000" font-family="sans-serif" font-size="13" lengthAdjust="spacing" textLength="81.7832" x="333.82" y="302.3638">device [1..1]</text></g><!--link Metric to PHD--><g class="link" data-entity-1="Metric" data-entity-2="PHD" data-source-line="41" data-uid="lnk9" id="link_Metric_PHD"><path codeLine="41" d="M348.63,505.4969 C355.96,542.9769 364.538,586.8685 372.348,626.7885" fill="none" id="Metric-to-PHD" style="stroke:#181818;stroke-width:1;"/><polygon fill="#181818" points="373.5,632.6769,375.6976,623.0763,372.54,627.7699,367.8464,624.6123,373.5,632.6769" style="stroke:#181818;stroke-width:1;"/><text fill="#000000" font-family="sans-serif" font-size="13" lengthAdjust="spacing" textLength="82.5386" x="362.82" y="567.1438">source [1..1]</text></g><!--link PHD to DM--><g class="link" data-entity-1="PHD" data-entity-2="DM" data-source-line="42" data-uid="lnk10" id="link_PHD_DM"><path codeLine="42" d="M386.82,770.9369 C386.82,795.6969 386.82,817.4669 386.82,841.4669" fill="none" id="PHD-to-DM" style="stroke:#181818;stroke-width:1;"/><polygon fill="#181818" points="386.82,847.4669,390.82,838.4669,386.82,842.4669,382.82,838.4669,386.82,847.4669" style="stroke:#181818;stroke-width:1;"/><text fill="#000000" font-family="sans-serif" font-size="13" lengthAdjust="spacing" textLength="81.98" x="387.82" y="813.7438">parent [1..1]</text></g><!--reverse link DM_Def to DM_Org--><g class="link" data-entity-1="DM_Def" data-entity-2="DM_Org" data-source-line="68" data-uid="lnk17" id="link_DM_Def_DM_Org"><path codeLine="68" d="M790.82,774.8069 C790.82,813.4869 790.82,849.9469 790.82,879.7869" fill="none" id="DM_Def-backto-DM_Org" style="stroke:#181818;stroke-width:1;"/><polygon fill="#181818" points="790.82,762.8069,786.82,768.8069,790.82,774.8069,794.82,768.8069,790.82,762.8069" style="stroke:#181818;stroke-width:1;"/><text fill="#000000" font-family="sans-serif" font-size="13" lengthAdjust="spacing" textLength="120.1421" x="791.82" y="813.7438">organization [1..1]</text></g><!--reverse link DM_Org to EP_FHIR--><g class="link" data-entity-1="DM_Org" data-entity-2="EP_FHIR" data-source-line="69" data-uid="lnk18" id="link_DM_Org_EP_FHIR"><path codeLine="69" d="M787.2588,948.7481 C784.4788,979.4781 781.08,1017.0869 778.3,1047.8369" fill="none" id="DM_Org-backto-EP_FHIR" style="stroke:#181818;stroke-width:1;"/><polygon fill="#181818" points="788.34,936.7969,783.8157,942.4121,787.2588,948.7481,791.7831,943.1329,788.34,936.7969" style="stroke:#181818;stroke-width:1;"/><text fill="#000000" font-family="sans-serif" font-size="13" lengthAdjust="spacing" textLength="94.9546" x="782.82" y="1014.1938">endpoint [1..*]</text></g><!--reverse link DM_Org to EP_OAuth--><g class="link" data-entity-1="DM_Org" data-entity-2="EP_OAuth" data-source-line="70" data-uid="lnk19" id="link_DM_Org_EP_OAuth"><path codeLine="70" d="M853.8079,942.5679 C912.1479,973.2879 995.3,1017.0669 1053.59,1047.7569" fill="none" id="DM_Org-backto-EP_OAuth" style="stroke:#181818;stroke-width:1;"/><polygon fill="#181818" points="843.19,936.9769,846.6353,943.3117,853.8079,942.5679,850.3626,936.2331,843.19,936.9769" style="stroke:#181818;stroke-width:1;"/><text fill="#000000" font-family="sans-serif" font-size="13" lengthAdjust="spacing" textLength="94.9546" x="995.82" y="1014.1938">endpoint [1..*]</text></g><!--reverse link DM_Def to DM--><g class="link" data-entity-1="DM_Def" data-entity-2="DM" data-source-line="73" data-uid="lnk21" id="link_DM_Def_DM"><path codeLine="73" d="M666.7072,765.6575 C614.2172,792.2375 557.98,820.7169 505.5,847.2969" fill="none" id="DM_Def-backto-DM" style="stroke:#181818;stroke-width:1;"/><polygon fill="#181818" points="672.06,762.9469,662.2237,763.4442,667.5993,765.2057,665.8378,770.5813,672.06,762.9469" style="stroke:#181818;stroke-width:1;"/><text fill="#000000" font-family="sans-serif" font-size="13" lengthAdjust="spacing" textLength="100.2739" x="589.82" y="813.7438">definition [1..1]</text></g><!--reverse link PHD_Def to PHD--><g class="link" data-entity-1="PHD_Def" data-entity-2="PHD" data-source-line="74" data-uid="lnk23" id="link_PHD_Def_PHD"><path codeLine="74" d="M1108.2423,637.77 C1069.3923,616.06 1028.17,597.2169 982.82,586.2569 C817.8,546.3569 765.42,544.6569 600.82,586.2569 C562.85,595.8469 524.31,613.6569 490.58,632.4769" fill="none" id="PHD_Def-backto-PHD" style="stroke:#181818;stroke-width:1;"/><polygon fill="#181818" points="1113.48,640.6969,1107.5747,632.8147,1109.1153,638.2578,1103.6722,639.7983,1113.48,640.6969" style="stroke:#181818;stroke-width:1;"/><text fill="#000000" font-family="sans-serif" font-size="13" lengthAdjust="spacing" textLength="100.2739" x="605.82" y="567.1438">definition [1..1]</text></g><!--reverse link MIV to PHD_Def--><g class="link" data-entity-1="MIV" data-entity-2="PHD_Def" data-source-line="90" data-uid="lnk27" id="link_MIV_PHD_Def"><path codeLine="90" d="M1075.4465,527.1093 C1104.0965,564.7093 1135.09,605.3669 1162.23,640.9869" fill="none" id="MIV-backto-PHD_Def" style="stroke:#181818;stroke-width:1;"/><polygon fill="#181818" points="1071.81,522.3369,1074.083,531.9198,1074.8404,526.3139,1080.4463,527.0712,1071.81,522.3369" style="stroke:#181818;stroke-width:1;"/><text fill="#000000" font-family="sans-serif" font-size="13" lengthAdjust="spacing" textLength="100.5215" x="1106.82" y="567.1438">capability [1..*]</text></g><!--reverse link MIV to DM_Def--><g class="link" data-entity-1="MIV" data-entity-2="DM_Def" data-source-line="91" data-uid="lnk29" id="link_MIV_DM_Def"><path codeLine="91" d="M947.7323,526.7931 C913.8323,564.3931 876.88,605.3669 844.76,640.9869" fill="none" id="MIV-backto-DM_Def" style="stroke:#181818;stroke-width:1;"/><polygon fill="#181818" points="951.75,522.3369,942.7526,526.3427,948.4019,526.0504,948.6942,531.6997,951.75,522.3369" style="stroke:#181818;stroke-width:1;"/><text fill="#000000" font-family="sans-serif" font-size="13" lengthAdjust="spacing" textLength="100.5215" x="917.82" y="567.1438">capability [1..*]</text></g><!--SRC=[pLPjRo8t4Fw-lsAEVBWa4cbUhdSIJIEH00rIII8WgTGNHMPt8DOjtgtjJKkl-UyTZxtBieBSwQIgHO9bxMTU_CoBvqs2SwaGHjsR-q7tQde_xezXxwhNFnuCeZTXys5u-HFiVUZtpavFgiNBGNSyWht1jzttfsTHPALD4QvxlIaCheTZw0ahO9GbcCB-21CPYnIwCZ4WL0B3PPuAPSr1P3vAbGijbf2B-ADOuCIkI8_6s0grI36AmZghVXoXC8N69PBm8sbwxE6pZ96q6cZLDzbCkVchsfTaaNSmWTaAx1F2KgXYBc9B8lex434XZPoHyMSf6C27wTuD3reRx7oAW3xy4wV261W-iFaXATTPZbeu9GyYBR05v-VCnktCe7uMLcRguY9eS1zZXIqCTCe_sToxva-ImBFJ0h-S71sT_5O9nSGgYR1nEITcdTel4qs4TQByo3IGip9B6gAEfQQSLzQ1hB1njiJFIBn4DNP6QBMCcQ49AaDMfwiSEJvN8fKpxTsVC04LOJvqNdQ3CUk4Eq1fmtvxnwf3Xz0QRwXnY499IwBy8D4Dvuyt6LuxTkGYuop-Nj2YNG4PTfIJ-Zbzb_MSgsa950mVEXqELxjz4PZeTC8HMd6cDPeyKrGLDclLIRkxxZ5ZTwXDfgXqhb6azYdGqc1fWv-4bsx4qfd8TPOKiGNbNXjirDEVe0mfmrhVQb13UIn5UbCiPopcNq7vzuO9_3ENdiMUvn1zq58vHv-33UKvrm-Ht06H9D99alAmAj4pVBWboNeZfilpuNlF68dV1FLhP5NbnsKRp8N5PkNyoxn-nT6fxwpJoYMKzp4u12q6XLq7T4b5A9CLka9vaDjn2AAH0DIFrmNTYbuQFNYC2sb8QUYw9UVkLc2t3UnpvwpZB5pEwReuQ8LhurCZsQcFprz9-5BN2lgAVXiXNPj-hLC4SixF9rTJr_k6azjlXlr-7qvEZZ-SSLCbyVz_rCk4hoZRblHVJzZtyExzwUcxO_hyxPXwZP3wASLYeN71VV6_f-PMBtPJGvj2oR-utDSNT6sn8kMbfhL_zyZ0dMfvjw-IF9FALdhBXLqwRxi5PVbkNtdxIxJo8sJ5ORjTia3bdDMEjb7r0UBGvUa8Za4tGm-tGhrNsx3a1_MGTefpo-s4tU7EL6PSvG7td00iEy1sPDL-VfvE_A17dM-Zt_o0cb89hgXjQKgIARrAbQNPOWKJchjGK-FX8TQpXNHTWLEoplr2fswa4YfJFAhUZt_a-zrbgKCsvo5gKyx5JlKlPFGMh9-CE_1Ka8_jEJL4bQIhZJhO8gLyYIr5_4JJzYjYnutwDB6MkVNEUPCQHS8pQNrpjsKQyFBCu95KSLhmfEb0FYvgGTignjoQ4FEGVXJujvl33ibGE8EI1FwGzgaLlTsOWNRZeZ8ZsaM-1iKY5pF9KrYPS275FWFx1m00]--></g></svg>