<svg xmlns="http://www.w3.org/2000/svg" xmlns:xlink="http://www.w3.org/1999/xlink" contentStyleType="text/css" data-diagram-type="CLASS" height="991px" preserveAspectRatio="none" style="width:1443px;height:991px;background:#FFFFFF;" version="1.1" viewBox="0 0 1443 991" width="1443px" zoomAndPan="magnify"><title>HDDT FHIR Data Model (Medical Aids and Implants)</title><defs/><g><g class="title" data-source-line="5"><text fill="#000000" font-family="sans-serif" font-size="14" font-weight="bold" lengthAdjust="spacing" textLength="407.0391" x="511.3905" y="22.9951">HDDT FHIR Data Model (Medical Aids and Implants)</text></g><!--cluster HDDT_Measurements_and_Devices--><g class="cluster" data-entity="HDDT_Measurements_and_Devices" data-source-line="8" data-uid="ent0002" id="cluster_HDDT_Measurements_and_Devices"><rect fill="#CDE0FF" height="940.84" rx="2.5" ry="2.5" style="stroke:#181818;stroke-width:1;" width="532" x="44.82" y="44.2969"/><text fill="#000000" font-family="sans-serif" font-size="14" font-weight="bold" lengthAdjust="spacing" textLength="217" x="199.883" y="59.292">Measurements and Devices</text><text fill="#000000" font-family="sans-serif" font-size="14" font-weight="bold" lengthAdjust="spacing" textLength="516.0791" x="52.7804" y="75.5889">(implemented by the manufacturer; accessible via the HDDT API)</text></g><!--cluster HDDT_Registries--><g class="cluster" data-entity="HDDT_Registries" data-source-line="45" data-uid="ent0011" id="cluster_HDDT_Registries"><rect fill="#F5A623" height="389.9" rx="2.5" ry="2.5" style="stroke:#181818;stroke-width:1;" width="837" x="600.82" y="587.0869"/><text fill="#000000" font-family="sans-serif" font-size="14" font-weight="bold" lengthAdjust="spacing" textLength="368.792" x="834.924" y="602.082">Device Definitions (HDDT Registries at BfARM)</text></g><!--cluster ZTS--><g class="cluster" data-entity="ZTS" data-source-line="76" data-uid="ent0022" id="cluster_ZTS"><rect fill="#7ED321" height="215.79" rx="2.5" ry="2.5" style="stroke:#181818;stroke-width:1;" width="452" x="791.82" y="322.2969"/><text fill="#000000" font-family="sans-serif" font-size="14" font-weight="bold" lengthAdjust="spacing" textLength="423.2881" x="806.176" y="337.292">MIV Definitions (German Central Terminology Server)</text></g><!--class IV--><g class="entity" data-entity="IV" data-source-line="10" data-uid="ent0003" id="entity_IV"><rect fill="#F1F1F1" height="121.4531" rx="2.5" ry="2.5" style="stroke:#181818;stroke-width:0.5;" width="354.7881" x="151.82" y="134.2969"/><ellipse cx="255.6476" cy="154.4297" fill="#ADD1B2" rx="11" ry="11" style="stroke:#181818;stroke-width:1;"/><path d="M258.6164,160.0703 Q258.0383,160.3672 257.3976,160.5078 Q256.757,160.6641 256.0539,160.6641 Q253.5539,160.6641 252.2258,159.0234 Q250.9133,157.3672 250.9133,154.2422 Q250.9133,151.1172 252.2258,149.4609 Q253.5539,147.8047 256.0539,147.8047 Q256.757,147.8047 257.3976,147.9609 Q258.0539,148.1172 258.6164,148.4141 L258.6164,151.1328 Q257.9914,150.5547 257.3976,150.2891 Q256.8039,150.0078 256.1789,150.0078 Q254.8351,150.0078 254.1476,151.0859 Q253.4601,152.1484 253.4601,154.2422 Q253.4601,156.3359 254.1476,157.4141 Q254.8351,158.4766 256.1789,158.4766 Q256.8039,158.4766 257.3976,158.2109 Q257.9914,157.9297 258.6164,157.3516 L258.6164,160.0703 Z " fill="#000000"/><text fill="#000000" font-family="sans-serif" font-size="12" font-style="italic" lengthAdjust="spacing" textLength="119.373" x="285.7775" y="150.4355">&#171;FHIR Observation&#187;</text><text fill="#000000" font-family="sans-serif" font-size="14" lengthAdjust="spacing" textLength="138.6328" x="276.1476" y="166.2607">Interoperable Value</text><line style="stroke:#181818;stroke-width:0.5;" x1="152.82" x2="505.6081" y1="174.5625" y2="174.5625"/><text fill="#000000" font-family="sans-serif" font-size="14" lengthAdjust="spacing" textLength="304.5068" x="157.82" y="191.5576">status : status of the measured value [1..1]</text><text fill="#000000" font-family="sans-serif" font-size="14" lengthAdjust="spacing" textLength="342.7881" x="157.82" y="207.8545">code : classification of the measured value [1..1]</text><text fill="#000000" font-family="sans-serif" font-size="14" lengthAdjust="spacing" textLength="334.4619" x="157.82" y="224.1514">date : date or period of the measurement [1..1]</text><text fill="#000000" font-family="sans-serif" font-size="14" lengthAdjust="spacing" textLength="303.1875" x="157.82" y="240.4482">value : outcome of the measurement [1..1]</text><line style="stroke:#181818;stroke-width:0.5;" x1="152.82" x2="505.6081" y1="247.75" y2="247.75"/></g><!--class Metric--><g class="entity" data-entity="Metric" data-source-line="17" data-uid="ent0004" id="entity_Metric"><rect fill="#F1F1F1" height="105.1563" rx="2.5" ry="2.5" style="stroke:#181818;stroke-width:0.5;" width="429.1084" x="123.32" y="396.6869"/><ellipse cx="209.9997" cy="416.8197" fill="#ADD1B2" rx="11" ry="11" style="stroke:#181818;stroke-width:1;"/><path d="M212.9684,422.4603 Q212.3903,422.7572 211.7497,422.8978 Q211.1091,423.0541 210.4059,423.0541 Q207.9059,423.0541 206.5778,421.4134 Q205.2653,419.7572 205.2653,416.6322 Q205.2653,413.5072 206.5778,411.8509 Q207.9059,410.1947 210.4059,410.1947 Q211.1091,410.1947 211.7497,410.3509 Q212.4059,410.5072 212.9684,410.8041 L212.9684,413.5228 Q212.3434,412.9447 211.7497,412.6791 Q211.1559,412.3978 210.5309,412.3978 Q209.1872,412.3978 208.4997,413.4759 Q207.8122,414.5384 207.8122,416.6322 Q207.8122,418.7259 208.4997,419.8041 Q209.1872,420.8666 210.5309,420.8666 Q211.1559,420.8666 211.7497,420.6009 Q212.3434,420.3197 212.9684,419.7416 L212.9684,422.4603 Z " fill="#000000"/><text fill="#000000" font-family="sans-serif" font-size="12" font-style="italic" lengthAdjust="spacing" textLength="124.6465" x="291.801" y="412.8255">&#171;FHIR DeviceMetric&#187;</text><text fill="#000000" font-family="sans-serif" font-size="14" lengthAdjust="spacing" textLength="247.249" x="230.4997" y="428.6507">Sensor Type and Calibration Status</text><line style="stroke:#181818;stroke-width:0.5;" x1="124.32" x2="551.4284" y1="436.9525" y2="436.9525"/><text fill="#000000" font-family="sans-serif" font-size="14" lengthAdjust="spacing" textLength="351.9688" x="129.32" y="453.9476">type : kind of value measured by the sensor [1..1]</text><text fill="#000000" font-family="sans-serif" font-size="14" lengthAdjust="spacing" textLength="230.3301" x="129.32" y="470.2445">unit : unit of measurement [0..1]</text><text fill="#000000" font-family="sans-serif" font-size="14" lengthAdjust="spacing" textLength="417.1084" x="129.32" y="486.5414">calibration.state : quality indicator for measurements [0..1]</text><line style="stroke:#181818;stroke-width:0.5;" x1="124.32" x2="551.4284" y1="493.8431" y2="493.8431"/></g><!--class PHD--><g class="entity" data-entity="PHD" data-source-line="25" data-uid="ent0006" id="entity_PHD"><rect fill="#F1F1F1" height="137.75" rx="2.5" ry="2.5" style="stroke:#181818;stroke-width:0.5;" width="348.54" x="212.55" y="632.9369"/><ellipse cx="301.1882" cy="653.0697" fill="#ADD1B2" rx="11" ry="11" style="stroke:#181818;stroke-width:1;"/><path d="M304.1569,658.7103 Q303.5788,659.0072 302.9382,659.1478 Q302.2976,659.3041 301.5944,659.3041 Q299.0944,659.3041 297.7663,657.6634 Q296.4538,656.0072 296.4538,652.8822 Q296.4538,649.7572 297.7663,648.1009 Q299.0944,646.4447 301.5944,646.4447 Q302.2976,646.4447 302.9382,646.6009 Q303.5944,646.7572 304.1569,647.0541 L304.1569,649.7728 Q303.5319,649.1947 302.9382,648.9291 Q302.3444,648.6478 301.7194,648.6478 Q300.3757,648.6478 299.6882,649.7259 Q299.0007,650.7884 299.0007,652.8822 Q299.0007,654.9759 299.6882,656.0541 Q300.3757,657.1166 301.7194,657.1166 Q302.3444,657.1166 302.9382,656.8509 Q303.5319,656.5697 304.1569,655.9916 L304.1569,658.7103 Z " fill="#000000"/><text fill="#000000" font-family="sans-serif" font-size="12" font-style="italic" lengthAdjust="spacing" textLength="87.3398" x="359.4001" y="649.0755">&#171;FHIR Device&#187;</text><text fill="#000000" font-family="sans-serif" font-size="14" lengthAdjust="spacing" textLength="162.7637" x="321.6882" y="664.9007">Personal Health Device</text><line style="stroke:#181818;stroke-width:0.5;" x1="213.55" x2="560.09" y1="673.2025" y2="673.2025"/><text fill="#000000" font-family="sans-serif" font-size="14" lengthAdjust="spacing" textLength="241.3018" x="218.55" y="690.1976">deviceName : product name [1..1]</text><text fill="#000000" font-family="sans-serif" font-size="14" lengthAdjust="spacing" textLength="336.54" x="218.55" y="706.4945">manufacturer : name of the manufacturer [0..1]</text><text fill="#000000" font-family="sans-serif" font-size="14" lengthAdjust="spacing" textLength="247.0781" x="218.55" y="722.7914">serialNumber : serial number [1..1]</text><text fill="#000000" font-family="sans-serif" font-size="14" lengthAdjust="spacing" textLength="266.1025" x="218.55" y="739.0882">expirationDate : end of life date [0..1]</text><text fill="#000000" font-family="sans-serif" font-size="14" lengthAdjust="spacing" textLength="259.7656" x="218.55" y="755.3851">property : additional properties [0..*]</text><line style="stroke:#181818;stroke-width:0.5;" x1="213.55" x2="560.09" y1="762.6869" y2="762.6869"/></g><!--class DM--><g class="entity" data-entity="DM" data-source-line="33" data-uid="ent0007" id="entity_DM"><rect fill="#F1F1F1" height="121.4531" rx="2.5" ry="2.5" style="stroke:#181818;stroke-width:0.5;" width="348.54" x="212.55" y="847.6869"/><ellipse cx="305.6589" cy="867.8197" fill="#ADD1B2" rx="11" ry="11" style="stroke:#181818;stroke-width:1;"/><path d="M308.6276,873.4603 Q308.0495,873.7572 307.4089,873.8978 Q306.7683,874.0541 306.0651,874.0541 Q303.5651,874.0541 302.237,872.4134 Q300.9245,870.7572 300.9245,867.6322 Q300.9245,864.5072 302.237,862.8509 Q303.5651,861.1947 306.0651,861.1947 Q306.7683,861.1947 307.4089,861.3509 Q308.0651,861.5072 308.6276,861.8041 L308.6276,864.5228 Q308.0026,863.9447 307.4089,863.6791 Q306.8151,863.3978 306.1901,863.3978 Q304.8464,863.3978 304.1589,864.4759 Q303.4714,865.5384 303.4714,867.6322 Q303.4714,869.7259 304.1589,870.8041 Q304.8464,871.8666 306.1901,871.8666 Q306.8151,871.8666 307.4089,871.6009 Q308.0026,871.3197 308.6276,870.7416 L308.6276,873.4603 Z " fill="#000000"/><text fill="#000000" font-family="sans-serif" font-size="12" font-style="italic" lengthAdjust="spacing" textLength="87.3398" x="359.4001" y="863.8255">&#171;FHIR Device&#187;</text><text fill="#000000" font-family="sans-serif" font-size="14" lengthAdjust="spacing" textLength="153.8223" x="326.1589" y="879.6507">Device Data Recorder</text><line style="stroke:#181818;stroke-width:0.5;" x1="213.55" x2="560.09" y1="887.9525" y2="887.9525"/><text fill="#000000" font-family="sans-serif" font-size="14" lengthAdjust="spacing" textLength="225.8799" x="218.55" y="904.9476">status : operational status [1..1]</text><text fill="#000000" font-family="sans-serif" font-size="14" lengthAdjust="spacing" textLength="241.3018" x="218.55" y="921.2445">deviceName : product name [1..1]</text><text fill="#000000" font-family="sans-serif" font-size="14" lengthAdjust="spacing" textLength="336.54" x="218.55" y="937.5414">manufacturer : name of the manufacturer [0..1]</text><text fill="#000000" font-family="sans-serif" font-size="14" lengthAdjust="spacing" textLength="259.7656" x="218.55" y="953.8382">property : additional properties [0..*]</text><line style="stroke:#181818;stroke-width:0.5;" x1="213.55" x2="560.09" y1="961.14" y2="961.14"/></g><!--class PHD_Def--><g class="entity" data-entity="PHD_Def" data-source-line="47" data-uid="ent0012" id="entity_PHD_Def"><rect fill="#F1F1F1" height="121.4531" rx="2.5" ry="2.5" style="stroke:#181818;stroke-width:0.5;" width="415.751" x="999.94" y="641.0869"/><ellipse cx="1070.1382" cy="661.2197" fill="#ADD1B2" rx="11" ry="11" style="stroke:#181818;stroke-width:1;"/><path d="M1073.107,666.8603 Q1072.5289,667.1572 1071.8882,667.2978 Q1071.2476,667.4541 1070.5445,667.4541 Q1068.0445,667.4541 1066.7164,665.8134 Q1065.4039,664.1572 1065.4039,661.0322 Q1065.4039,657.9072 1066.7164,656.2509 Q1068.0445,654.5947 1070.5445,654.5947 Q1071.2476,654.5947 1071.8882,654.7509 Q1072.5445,654.9072 1073.107,655.2041 L1073.107,657.9228 Q1072.482,657.3447 1071.8882,657.0791 Q1071.2945,656.7978 1070.6695,656.7978 Q1069.3257,656.7978 1068.6382,657.8759 Q1067.9507,658.9384 1067.9507,661.0322 Q1067.9507,663.1259 1068.6382,664.2041 Q1069.3257,665.2666 1070.6695,665.2666 Q1071.2945,665.2666 1071.8882,665.0009 Q1072.482,664.7197 1073.107,664.1416 L1073.107,666.8603 Z " fill="#000000"/><text fill="#000000" font-family="sans-serif" font-size="12" font-style="italic" lengthAdjust="spacing" textLength="145.4473" x="1151.3419" y="657.2255">&#171;FHIR DeviceDefinition&#187;</text><text fill="#000000" font-family="sans-serif" font-size="14" lengthAdjust="spacing" textLength="266.8545" x="1090.6382" y="673.0507">Personal Health Device Registry Entry</text><line style="stroke:#181818;stroke-width:0.5;" x1="1000.94" x2="1414.691" y1="681.3525" y2="681.3525"/><text fill="#000000" font-family="sans-serif" font-size="14" lengthAdjust="spacing" textLength="403.751" x="1005.94" y="698.3476">type : kind of device &#171;SCT or ISO/IEEE 11073 code&#187; [1..1]</text><text fill="#000000" font-family="sans-serif" font-size="14" lengthAdjust="spacing" textLength="241.3018" x="1005.94" y="714.6445">deviceName : product name [1..1]</text><text fill="#000000" font-family="sans-serif" font-size="14" lengthAdjust="spacing" textLength="336.54" x="1005.94" y="730.9414">manufacturer : name of the manufacturer [0..1]</text><text fill="#000000" font-family="sans-serif" font-size="14" lengthAdjust="spacing" textLength="259.7656" x="1005.94" y="747.2382">property : additional properties [0..*]</text><line style="stroke:#181818;stroke-width:0.5;" x1="1000.94" x2="1414.691" y1="754.54" y2="754.54"/></g><!--class DM_Def--><g class="entity" data-entity="DM_Def" data-source-line="54" data-uid="ent0013" id="entity_DM_Def"><rect fill="#F1F1F1" height="121.4531" rx="2.5" ry="2.5" style="stroke:#181818;stroke-width:0.5;" width="348.54" x="616.55" y="641.0869"/><ellipse cx="657.9321" cy="661.2197" fill="#ADD1B2" rx="11" ry="11" style="stroke:#181818;stroke-width:1;"/><path d="M660.9009,666.8603 Q660.3228,667.1572 659.6821,667.2978 Q659.0415,667.4541 658.3384,667.4541 Q655.8384,667.4541 654.5103,665.8134 Q653.1978,664.1572 653.1978,661.0322 Q653.1978,657.9072 654.5103,656.2509 Q655.8384,654.5947 658.3384,654.5947 Q659.0415,654.5947 659.6821,654.7509 Q660.3384,654.9072 660.9009,655.2041 L660.9009,657.9228 Q660.2759,657.3447 659.6821,657.0791 Q659.0884,656.7978 658.4634,656.7978 Q657.1196,656.7978 656.4321,657.8759 Q655.7446,658.9384 655.7446,661.0322 Q655.7446,663.1259 656.4321,664.2041 Q657.1196,665.2666 658.4634,665.2666 Q659.0884,665.2666 659.6821,665.0009 Q660.2759,664.7197 660.9009,664.1416 L660.9009,666.8603 Z " fill="#000000"/><text fill="#000000" font-family="sans-serif" font-size="12" font-style="italic" lengthAdjust="spacing" textLength="145.4473" x="734.0277" y="657.2255">&#171;FHIR DeviceDefinition&#187;</text><text fill="#000000" font-family="sans-serif" font-size="14" lengthAdjust="spacing" textLength="257.9131" x="677.7948" y="673.0507">Device Data Recorder Registry Entry</text><line style="stroke:#181818;stroke-width:0.5;" x1="617.55" x2="964.09" y1="681.3525" y2="681.3525"/><text fill="#000000" font-family="sans-serif" font-size="14" lengthAdjust="spacing" textLength="206.0898" x="622.55" y="698.3476">type = 462240000|SCT [1..1]</text><text fill="#000000" font-family="sans-serif" font-size="14" lengthAdjust="spacing" textLength="310.5156" x="622.55" y="714.6445">deviceName : name of the aggregator [1..1]</text><text fill="#000000" font-family="sans-serif" font-size="14" lengthAdjust="spacing" textLength="336.54" x="622.55" y="730.9414">manufacturer : name of the manufacturer [0..1]</text><text fill="#000000" font-family="sans-serif" font-size="14" lengthAdjust="spacing" textLength="259.7656" x="622.55" y="747.2382">property : additional properties [0..*]</text><line style="stroke:#181818;stroke-width:0.5;" x1="617.55" x2="964.09" y1="754.54" y2="754.54"/></g><!--class DM_Org--><g class="entity" data-entity="DM_Org" data-source-line="61" data-uid="ent0014" id="entity_DM_Org"><rect fill="#F1F1F1" height="56.2656" rx="2.5" ry="2.5" style="stroke:#181818;stroke-width:0.5;" width="280.0215" x="616.81" y="880.2769"/><ellipse cx="631.81" cy="900.4097" fill="#ADD1B2" rx="11" ry="11" style="stroke:#181818;stroke-width:1;"/><path d="M634.7788,906.0503 Q634.2006,906.3472 633.56,906.4878 Q632.9194,906.6441 632.2163,906.6441 Q629.7163,906.6441 628.3881,905.0034 Q627.0756,903.3472 627.0756,900.2222 Q627.0756,897.0972 628.3881,895.4409 Q629.7163,893.7847 632.2163,893.7847 Q632.9194,893.7847 633.56,893.9409 Q634.2163,894.0972 634.7788,894.3941 L634.7788,897.1128 Q634.1538,896.5347 633.56,896.2691 Q632.9663,895.9878 632.3413,895.9878 Q630.9975,895.9878 630.31,897.0659 Q629.6225,898.1284 629.6225,900.2222 Q629.6225,902.3159 630.31,903.3941 Q630.9975,904.4566 632.3413,904.4566 Q632.9663,904.4566 633.56,904.1909 Q634.1538,903.9097 634.7788,903.3316 L634.7788,906.0503 Z " fill="#000000"/><text fill="#000000" font-family="sans-serif" font-size="12" font-style="italic" lengthAdjust="spacing" textLength="123.2285" x="708.2065" y="896.4155">&#171;FHIR Organization&#187;</text><text fill="#000000" font-family="sans-serif" font-size="14" lengthAdjust="spacing" textLength="248.0215" x="645.81" y="912.2407">Device Data Recorder Organization</text><line style="stroke:#181818;stroke-width:0.5;" x1="617.81" x2="895.8315" y1="920.5425" y2="920.5425"/><line style="stroke:#181818;stroke-width:0.5;" x1="617.81" x2="895.8315" y1="928.5425" y2="928.5425"/></g><!--class EP--><g class="entity" data-entity="EP" data-source-line="63" data-uid="ent0015" id="entity_EP"><rect fill="#F1F1F1" height="105.1563" rx="2.5" ry="2.5" style="stroke:#181818;stroke-width:0.5;" width="392.5908" x="1029.52" y="855.8369"/><ellipse cx="1164.2187" cy="875.9697" fill="#ADD1B2" rx="11" ry="11" style="stroke:#181818;stroke-width:1;"/><path d="M1167.1875,881.6103 Q1166.6094,881.9072 1165.9687,882.0478 Q1165.3281,882.2041 1164.625,882.2041 Q1162.125,882.2041 1160.7969,880.5634 Q1159.4844,878.9072 1159.4844,875.7822 Q1159.4844,872.6572 1160.7969,871.0009 Q1162.125,869.3447 1164.625,869.3447 Q1165.3281,869.3447 1165.9687,869.5009 Q1166.625,869.6572 1167.1875,869.9541 L1167.1875,872.6728 Q1166.5625,872.0947 1165.9687,871.8291 Q1165.375,871.5478 1164.75,871.5478 Q1163.4062,871.5478 1162.7187,872.6259 Q1162.0312,873.6884 1162.0312,875.7822 Q1162.0312,877.8759 1162.7187,878.9541 Q1163.4062,880.0166 1164.75,880.0166 Q1165.375,880.0166 1165.9687,879.7509 Q1166.5625,879.4697 1167.1875,878.8916 L1167.1875,881.6103 Z " fill="#000000"/><text fill="#000000" font-family="sans-serif" font-size="12" font-style="italic" lengthAdjust="spacing" textLength="99.709" x="1192.2109" y="871.9755">&#171;FHIR Endpoint&#187;</text><text fill="#000000" font-family="sans-serif" font-size="14" lengthAdjust="spacing" textLength="114.6934" x="1184.7187" y="887.8007">HDDT Endpoints</text><line style="stroke:#181818;stroke-width:0.5;" x1="1030.52" x2="1421.1108" y1="896.1025" y2="896.1025"/><text fill="#000000" font-family="sans-serif" font-size="14" lengthAdjust="spacing" textLength="225.8799" x="1035.52" y="913.0976">status : operational status [1..1]</text><text fill="#000000" font-family="sans-serif" font-size="14" lengthAdjust="spacing" textLength="380.5908" x="1035.52" y="929.3945">connectionType: Coding &#171;hl7-fhir-rest | oauth2-authz&#187;</text><text fill="#000000" font-family="sans-serif" font-size="14" lengthAdjust="spacing" textLength="246.2373" x="1035.52" y="945.6914">address: URL of the endpoint [1..1]</text><line style="stroke:#181818;stroke-width:0.5;" x1="1030.52" x2="1421.1108" y1="952.9931" y2="952.9931"/></g><!--class MIV--><g class="entity" data-entity="MIV" data-source-line="77" data-uid="ent0023" id="entity_MIV"><rect fill="#F1F1F1" height="145.7813" rx="2.5" ry="2.5" style="stroke:#181818;stroke-width:0.5;" width="419.1348" x="808.25" y="376.2969"/><ellipse cx="1000.6748" cy="392.2969" fill="#EB937F" rx="11" ry="11" style="stroke:#181818;stroke-width:1;"/><path d="M1004.7842,398.2969 L997.0654,398.2969 L997.0654,385.9063 L1004.7842,385.9063 L1004.7842,388.0625 L999.5186,388.0625 L999.5186,390.7344 L1004.2842,390.7344 L1004.2842,392.8906 L999.5186,392.8906 L999.5186,396.1406 L1004.7842,396.1406 L1004.7842,398.2969 Z " fill="#000000"/><text fill="#000000" font-family="sans-serif" font-size="14" lengthAdjust="spacing" textLength="25.7852" x="1021.1748" y="397.1436">MIV</text><line style="stroke:#181818;stroke-width:0.5;" x1="809.25" x2="1226.3848" y1="408.2969" y2="408.2969"/><text fill="#000000" font-family="sans-serif" font-size="14" lengthAdjust="spacing" textLength="254.4541" x="814.25" y="425.292">url : canonical URL for the MIV [1..1]</text><text fill="#000000" font-family="sans-serif" font-size="14" lengthAdjust="spacing" textLength="233.8643" x="814.25" y="441.5889">version : version of the MIV [1..1]</text><text fill="#000000" font-family="sans-serif" font-size="14" lengthAdjust="spacing" textLength="309.8457" x="814.25" y="457.8857">title : human-friendly name of the MIV [1..1]</text><text fill="#000000" font-family="sans-serif" font-size="14" lengthAdjust="spacing" textLength="333.5049" x="814.25" y="474.1826">name : machine-friendly name of the MIV [0..1]</text><text fill="#000000" font-family="sans-serif" font-size="14" lengthAdjust="spacing" textLength="407.1348" x="814.25" y="490.4795">description : human-readable description of the MIV [1..1]</text><text fill="#000000" font-family="sans-serif" font-size="14" lengthAdjust="spacing" textLength="326.874" x="814.25" y="506.7764">compose.include : MIV defining concepts [1..*]</text><line style="stroke:#181818;stroke-width:0.5;" x1="809.25" x2="1226.3848" y1="514.0781" y2="514.0781"/></g><!--link IV to Metric--><g class="link" data-entity-1="IV" data-entity-2="Metric" data-source-line="23" data-uid="lnk5" id="link_IV_Metric"><path codeLine="23" d="M150.82,202.7969 C41,202.7969 6,448.1869 115.82,448.1869" fill="none" id="IV-to-Metric" style="stroke:#181818;stroke-width:1;"/><polygon fill="#181818" points="121.82,448.1869,112.82,444.1869,116.82,448.1869,112.82,452.1869,121.82,448.1869" style="stroke:#181818;stroke-width:1;"/><text fill="#000000" font-family="sans-serif" font-size="13" lengthAdjust="spacing" textLength="97.2144" x="61.82" y="302.3638">corresponds to</text></g><!--link IV to Metric--><g class="link" data-entity-1="IV" data-entity-2="Metric" data-source-line="40" data-uid="lnk8" id="link_IV_Metric"><path codeLine="40" d="M331.08,259.1669 C332.55,300.3469 334.2257,347.5107 335.6357,386.9607" fill="none" id="IV-to-Metric-1" style="stroke:#181818;stroke-width:1;"/><polygon fill="#181818" points="335.85,392.9569,339.526,383.8197,335.6714,387.9601,331.5311,384.1055,335.85,392.9569" style="stroke:#181818;stroke-width:1;"/><text fill="#000000" font-family="sans-serif" font-size="13" lengthAdjust="spacing" textLength="81.7832" x="333.82" y="302.3638">device [1..1]</text></g><!--link Metric to PHD--><g class="link" data-entity-1="Metric" data-entity-2="PHD" data-source-line="41" data-uid="lnk9" id="link_Metric_PHD"><path codeLine="41" d="M348.63,505.4969 C355.96,542.9769 364.538,586.8685 372.348,626.7885" fill="none" id="Metric-to-PHD" style="stroke:#181818;stroke-width:1;"/><polygon fill="#181818" points="373.5,632.6769,375.6976,623.0763,372.54,627.7699,367.8464,624.6123,373.5,632.6769" style="stroke:#181818;stroke-width:1;"/><text fill="#000000" font-family="sans-serif" font-size="13" lengthAdjust="spacing" textLength="82.5386" x="362.82" y="567.1538">source [1..1]</text></g><!--link PHD to DM--><g class="link" data-entity-1="PHD" data-entity-2="DM" data-source-line="42" data-uid="lnk10" id="link_PHD_DM"><path codeLine="42" d="M386.82,770.9369 C386.82,795.6969 386.82,817.4769 386.82,841.4769" fill="none" id="PHD-to-DM" style="stroke:#181818;stroke-width:1;"/><polygon fill="#181818" points="386.82,847.4769,390.82,838.4769,386.82,842.4769,382.82,838.4769,386.82,847.4769" style="stroke:#181818;stroke-width:1;"/><text fill="#000000" font-family="sans-serif" font-size="13" lengthAdjust="spacing" textLength="81.98" x="387.82" y="813.7538">parent [1..1]</text></g><!--reverse link DM_Def to DM_Org--><g class="link" data-entity-1="DM_Def" data-entity-2="DM_Org" data-source-line="69" data-uid="lnk16" id="link_DM_Def_DM_Org"><path codeLine="69" d="M778.8817,774.6543 C772.4517,813.3243 766.37,849.9569 761.41,879.7969" fill="none" id="DM_Def-backto-DM_Org" style="stroke:#181818;stroke-width:1;"/><polygon fill="#181818" points="780.85,762.8169,775.92,768.0795,778.8817,774.6543,783.8117,769.3917,780.85,762.8169" style="stroke:#181818;stroke-width:1;"/><text fill="#000000" font-family="sans-serif" font-size="13" lengthAdjust="spacing" textLength="120.1421" x="774.82" y="813.7538">organization [1..1]</text></g><!--reverse link DM_Org to EP--><g class="link" data-entity-1="DM_Org" data-entity-2="EP" data-source-line="70" data-uid="lnk17" id="link_DM_Org_EP"><path codeLine="70" d="M909.22,908.4069 C950.64,908.4069 984.76,908.4069 1029.04,908.4069" fill="none" id="DM_Org-backto-EP" style="stroke:#181818;stroke-width:1;"/><polygon fill="#181818" points="897.22,908.4069,903.22,912.4069,909.22,908.4069,903.22,904.4069,897.22,908.4069" style="stroke:#181818;stroke-width:1;"/><text fill="#000000" font-family="sans-serif" font-size="13" lengthAdjust="spacing" textLength="96.7256" x="915.18" y="901.4738">endpoint [2..2]</text></g><!--reverse link DM_Def to DM--><g class="link" data-entity-1="DM_Def" data-entity-2="DM" data-source-line="73" data-uid="lnk19" id="link_DM_Def_DM"><path codeLine="73" d="M666.7076,765.6583 C614.2176,792.2483 557.98,820.7269 505.5,847.3069" fill="none" id="DM_Def-backto-DM" style="stroke:#181818;stroke-width:1;"/><polygon fill="#181818" points="672.06,762.9469,662.2238,763.4457,667.5997,765.2064,665.839,770.5822,672.06,762.9469" style="stroke:#181818;stroke-width:1;"/><text fill="#000000" font-family="sans-serif" font-size="13" lengthAdjust="spacing" textLength="100.2739" x="589.82" y="813.7538">definition [1..1]</text></g><!--reverse link PHD_Def to PHD--><g class="link" data-entity-1="PHD_Def" data-entity-2="PHD" data-source-line="74" data-uid="lnk21" id="link_PHD_Def_PHD"><path codeLine="74" d="M1108.2423,637.78 C1069.3923,616.07 1028.17,597.2269 982.82,586.2669 C817.8,546.3669 765.42,544.6669 600.82,586.2669 C562.85,595.8569 524.31,613.6669 490.58,632.4769" fill="none" id="PHD_Def-backto-PHD" style="stroke:#181818;stroke-width:1;"/><polygon fill="#181818" points="1113.48,640.7069,1107.5747,632.8247,1109.1153,638.2678,1103.6722,639.8083,1113.48,640.7069" style="stroke:#181818;stroke-width:1;"/><text fill="#000000" font-family="sans-serif" font-size="13" lengthAdjust="spacing" textLength="100.2739" x="605.82" y="567.1538">definition [1..1]</text></g><!--reverse link MIV to PHD_Def--><g class="link" data-entity-1="MIV" data-entity-2="PHD_Def" data-source-line="90" data-uid="lnk25" id="link_MIV_PHD_Def"><path codeLine="90" d="M1076.145,527.128 C1104.645,564.718 1135.47,605.3769 1162.47,640.9869" fill="none" id="MIV-backto-PHD_Def" style="stroke:#181818;stroke-width:1;"/><polygon fill="#181818" points="1072.52,522.3469,1074.77,531.9353,1075.5408,526.3312,1081.1449,527.102,1072.52,522.3469" style="stroke:#181818;stroke-width:1;"/><text fill="#000000" font-family="sans-serif" font-size="13" lengthAdjust="spacing" textLength="100.5215" x="1107.82" y="567.1538">capability [1..*]</text></g><!--reverse link MIV to DM_Def--><g class="link" data-entity-1="MIV" data-entity-2="DM_Def" data-source-line="91" data-uid="lnk27" id="link_MIV_DM_Def"><path codeLine="91" d="M948.4413,526.7931 C914.3813,564.3831 877.26,605.3769 845,640.9869" fill="none" id="MIV-backto-DM_Def" style="stroke:#181818;stroke-width:1;"/><polygon fill="#181818" points="952.47,522.3469,943.4627,526.3305,949.1127,526.0521,949.3911,531.7021,952.47,522.3469" style="stroke:#181818;stroke-width:1;"/><text fill="#000000" font-family="sans-serif" font-size="13" lengthAdjust="spacing" textLength="100.5215" x="918.82" y="567.1538">capability [1..*]</text></g><!--SRC=[pLRhRzis4F-kl-BgV6WIG5xYj0sWPG4SFne3SnBOJWRiWO2MA9keJ6eabSrjyx_t-90i2uux11Ws0Nw8l1T_T_VZlKbeoZY5SVVcVjZjpUudWmaSzFg3a-4mUECt7qPNly31-Q1_rZcj5g-6tSaO3eRlknywPq6WcSueNFVxCnXUZoRG9vh0M2GqWyCnJLXCCkYoH07X2OnMUKQuLaU1-iHuJYHPGKxYJsH1ftgDTYIDDU6BZ0Q1NxUc7yUKg4BI5KNbHxJqsATFBAPeLK6hlcdTb9k_yqE67kqEJM2-1hsai2AyI4ciKKN-22H6ISNcwFo94IjW3zEz6nsrjj3v4W0-zYlEY58mUh3kHsXSYfnAOemyaAoWBRYui6ZSpXMLJqGpmIyllGNpA4rqeI0g_uZKXUPEai2JiGA_dRRRftzKIZ6YYYhMEKiHMMFsdwacH1jL-oCaOB1C90rLWr9JpncBG1Gw5Ylw7Otde8REc6h9OelGb7A5NcVhdDhyz4Z6vjA5FxK0L82vr3dTBSIqKOu0oyR6xGAh3krJgvoZnY4ApZIgsXzKtGh-P1lXJM1jandZySy25_KQqB617Csd-5dLQwvcnKCmUeWYcwumlFH8H94_GYiMKbAL2uvTeKMh3jhTTTyYTaUb4XnRvvgIJ2yzB0sKjl19xD8DMHaNkHH94MlWvhM1HhtyKTIAb6cjRpMWmJfc9BifLdEhvbw1k_U62_ftpXoAVOSXTKdBM4fT3JQCvxP_4EG8I98meud6_IgZ3k7Z7KNM7rku71wEUoOKyKset0TMrNwsRRqxlzZid7yPrrSS7NbdKrQce5oCFY1eMI6_QmHDKQ6K4eMif9oGsJ4I22CA81zl6heLF3SuU48NJA5HpxebvkPMi64hEBJCMPVJS9NYTN7KyjV6bqQn8u-dUmg-jBM60SVlHaethlSnXGVducBQcndk6qrlVnWD1WCuFJqvFxEaYkh__woN1Lz1jgleNm_OJ_3kGwVpxWIVhmQfVO3KJqaM2qaNbXV_UsXkvU9bQ72JSFRPjllcWgujLg0yrwmExgn5Mza3dkI28UDNwkNAQzab5fpZo8CYvdACe2SInXTeVPcTX-cIoH1l2WrVGP12BpkX-VvyULdf8q8ee2Aud_nSWajzJ3jkPbyzns5OeeLjBseGRB635paE3GWek37SQRSxZY6GESACfjgIY3Lk-QYiiygUPHelMFRzRicAT7wTJTruXtotnJ8VgSG2WXwIbKHaP_ZAkCZ4OWrJdBQeHBgnewjB2SLB2eoHJOOAcPb1Yd31xO1gq3Etke7FI3Qd82Gd4s9K_VDGxv1ryt04om9Z35EaGPvawwtgtw75NMEjIBp46NkFsacZArKiMQvTSCwbf2InasXzysNFEDRbGj4sut5MsFdI2BcyO2LYWSOqrwvmgwx3nB_T7d5G1zFfZIJm5zFBLl1sQ_9vMIueAo8iyerGJ78oPtRsSivRWI-nxuXz0m00]--></g></svg>