<svg xmlns="http://www.w3.org/2000/svg" xmlns:xlink="http://www.w3.org/1999/xlink" contentStyleType="text/css" data-diagram-type="CLASS" height="864px" preserveAspectRatio="none" style="width:1932px;height:864px;background:#FFFFFF;" version="1.1" viewBox="0 0 1932 864" width="1932px" zoomAndPan="magnify"><title>HDDT FHIR Data Model</title><defs/><g><g class="title" data-source-line="5"><text fill="#000000" font-family="sans-serif" font-size="14" font-weight="bold" lengthAdjust="spacing" textLength="181.4736" x="868.5982" y="22.9951">HDDT FHIR Data Model</text></g><!--cluster HDDT_Measurements_and_Devices--><g class="cluster" data-entity="HDDT_Measurements_and_Devices" data-source-line="8" data-uid="ent0002" id="cluster_HDDT_Measurements_and_Devices"><rect fill="#CDE0FF" height="630.2" rx="2.5" ry="2.5" style="stroke:#181818;stroke-width:1;" width="944" x="81.67" y="44.2969"/><text fill="#000000" font-family="sans-serif" font-size="14" font-weight="bold" lengthAdjust="spacing" textLength="217" x="442.733" y="59.292">Measurements and Devices</text><text fill="#000000" font-family="sans-serif" font-size="14" font-weight="bold" lengthAdjust="spacing" textLength="516.0791" x="295.6304" y="75.5889">(implemented by the manufacturer; accessible via the HDDT API)</text></g><!--cluster HDDT_Registries--><g class="cluster" data-entity="HDDT_Registries" data-source-line="45" data-uid="ent0011" id="cluster_HDDT_Registries"><rect fill="#F5A623" height="356.61" rx="2.5" ry="2.5" style="stroke:#181818;stroke-width:1;" width="837" x="1089.67" y="502.0469"/><text fill="#000000" font-family="sans-serif" font-size="14" font-weight="bold" lengthAdjust="spacing" textLength="368.792" x="1323.774" y="517.042">Device Definitions (HDDT Registries at BfARM)</text></g><!--class IV--><g class="entity" data-entity="IV" data-source-line="10" data-uid="ent0003" id="entity_IV"><rect fill="#F1F1F1" height="121.4531" rx="2.5" ry="2.5" style="stroke:#181818;stroke-width:0.5;" width="354.7881" x="159.67" y="99.2969"/><ellipse cx="263.4976" cy="119.4297" fill="#ADD1B2" rx="11" ry="11" style="stroke:#181818;stroke-width:1;"/><path d="M266.4664,125.0703 Q265.8883,125.3672 265.2476,125.5078 Q264.607,125.6641 263.9039,125.6641 Q261.4039,125.6641 260.0758,124.0234 Q258.7633,122.3672 258.7633,119.2422 Q258.7633,116.1172 260.0758,114.4609 Q261.4039,112.8047 263.9039,112.8047 Q264.607,112.8047 265.2476,112.9609 Q265.9039,113.1172 266.4664,113.4141 L266.4664,116.1328 Q265.8414,115.5547 265.2476,115.2891 Q264.6539,115.0078 264.0289,115.0078 Q262.6851,115.0078 261.9976,116.0859 Q261.3101,117.1484 261.3101,119.2422 Q261.3101,121.3359 261.9976,122.4141 Q262.6851,123.4766 264.0289,123.4766 Q264.6539,123.4766 265.2476,123.2109 Q265.8414,122.9297 266.4664,122.3516 L266.4664,125.0703 Z " fill="#000000"/><text fill="#000000" font-family="sans-serif" font-size="12" font-style="italic" lengthAdjust="spacing" textLength="119.373" x="293.6275" y="115.4355">&#171;FHIR Observation&#187;</text><text fill="#000000" font-family="sans-serif" font-size="14" lengthAdjust="spacing" textLength="138.6328" x="283.9976" y="131.2607">Interoperable Value</text><line style="stroke:#181818;stroke-width:0.5;" x1="160.67" x2="513.4581" y1="139.5625" y2="139.5625"/><text fill="#000000" font-family="sans-serif" font-size="14" lengthAdjust="spacing" textLength="304.5068" x="165.67" y="156.5576">status : status of the measured value [1..1]</text><text fill="#000000" font-family="sans-serif" font-size="14" lengthAdjust="spacing" textLength="342.7881" x="165.67" y="172.8545">code : classification of the measured value [1..1]</text><text fill="#000000" font-family="sans-serif" font-size="14" lengthAdjust="spacing" textLength="334.4619" x="165.67" y="189.1514">date : date or period of the measurement [1..1]</text><text fill="#000000" font-family="sans-serif" font-size="14" lengthAdjust="spacing" textLength="303.1875" x="165.67" y="205.4482">value : outcome of the measurement [1..1]</text><line style="stroke:#181818;stroke-width:0.5;" x1="160.67" x2="513.4581" y1="212.75" y2="212.75"/></g><!--class Metric--><g class="entity" data-entity="Metric" data-source-line="17" data-uid="ent0004" id="entity_Metric"><rect fill="#F1F1F1" height="105.1563" rx="2.5" ry="2.5" style="stroke:#181818;stroke-width:0.5;" width="429.1084" x="106.17" y="317.6769"/><ellipse cx="192.8497" cy="337.8097" fill="#ADD1B2" rx="11" ry="11" style="stroke:#181818;stroke-width:1;"/><path d="M195.8184,343.4503 Q195.2403,343.7472 194.5997,343.8878 Q193.9591,344.0441 193.2559,344.0441 Q190.7559,344.0441 189.4278,342.4034 Q188.1153,340.7472 188.1153,337.6222 Q188.1153,334.4972 189.4278,332.8409 Q190.7559,331.1847 193.2559,331.1847 Q193.9591,331.1847 194.5997,331.3409 Q195.2559,331.4972 195.8184,331.7941 L195.8184,334.5128 Q195.1934,333.9347 194.5997,333.6691 Q194.0059,333.3878 193.3809,333.3878 Q192.0372,333.3878 191.3497,334.4659 Q190.6622,335.5284 190.6622,337.6222 Q190.6622,339.7159 191.3497,340.7941 Q192.0372,341.8566 193.3809,341.8566 Q194.0059,341.8566 194.5997,341.5909 Q195.1934,341.3097 195.8184,340.7316 L195.8184,343.4503 Z " fill="#000000"/><text fill="#000000" font-family="sans-serif" font-size="12" font-style="italic" lengthAdjust="spacing" textLength="124.6465" x="274.651" y="333.8155">&#171;FHIR DeviceMetric&#187;</text><text fill="#000000" font-family="sans-serif" font-size="14" lengthAdjust="spacing" textLength="247.249" x="213.3497" y="349.6407">Sensor Type and Calibration Status</text><line style="stroke:#181818;stroke-width:0.5;" x1="107.17" x2="534.2784" y1="357.9425" y2="357.9425"/><text fill="#000000" font-family="sans-serif" font-size="14" lengthAdjust="spacing" textLength="351.9688" x="112.17" y="374.9376">type : kind of value measured by the sensor [1..1]</text><text fill="#000000" font-family="sans-serif" font-size="14" lengthAdjust="spacing" textLength="230.3301" x="112.17" y="391.2345">unit : unit of measurement [0..1]</text><text fill="#000000" font-family="sans-serif" font-size="14" lengthAdjust="spacing" textLength="417.1084" x="112.17" y="407.5314">calibration.state : quality indicator for measurements [0..1]</text><line style="stroke:#181818;stroke-width:0.5;" x1="107.17" x2="534.2784" y1="414.8331" y2="414.8331"/></g><!--class PHD--><g class="entity" data-entity="PHD" data-source-line="25" data-uid="ent0006" id="entity_PHD"><rect fill="#F1F1F1" height="137.75" rx="2.5" ry="2.5" style="stroke:#181818;stroke-width:0.5;" width="348.54" x="661.4" y="301.2969"/><ellipse cx="750.0382" cy="321.4297" fill="#ADD1B2" rx="11" ry="11" style="stroke:#181818;stroke-width:1;"/><path d="M753.0069,327.0703 Q752.4288,327.3672 751.7882,327.5078 Q751.1476,327.6641 750.4444,327.6641 Q747.9444,327.6641 746.6163,326.0234 Q745.3038,324.3672 745.3038,321.2422 Q745.3038,318.1172 746.6163,316.4609 Q747.9444,314.8047 750.4444,314.8047 Q751.1476,314.8047 751.7882,314.9609 Q752.4444,315.1172 753.0069,315.4141 L753.0069,318.1328 Q752.3819,317.5547 751.7882,317.2891 Q751.1944,317.0078 750.5694,317.0078 Q749.2257,317.0078 748.5382,318.0859 Q747.8507,319.1484 747.8507,321.2422 Q747.8507,323.3359 748.5382,324.4141 Q749.2257,325.4766 750.5694,325.4766 Q751.1944,325.4766 751.7882,325.2109 Q752.3819,324.9297 753.0069,324.3516 L753.0069,327.0703 Z " fill="#000000"/><text fill="#000000" font-family="sans-serif" font-size="12" font-style="italic" lengthAdjust="spacing" textLength="87.3398" x="808.2501" y="317.4355">&#171;FHIR Device&#187;</text><text fill="#000000" font-family="sans-serif" font-size="14" lengthAdjust="spacing" textLength="162.7637" x="770.5382" y="333.2607">Personal Health Device</text><line style="stroke:#181818;stroke-width:0.5;" x1="662.4" x2="1008.94" y1="341.5625" y2="341.5625"/><text fill="#000000" font-family="sans-serif" font-size="14" lengthAdjust="spacing" textLength="241.3018" x="667.4" y="358.5576">deviceName : product name [1..1]</text><text fill="#000000" font-family="sans-serif" font-size="14" lengthAdjust="spacing" textLength="336.54" x="667.4" y="374.8545">manufacturer : name of the manufacturer [0..1]</text><text fill="#000000" font-family="sans-serif" font-size="14" lengthAdjust="spacing" textLength="247.0781" x="667.4" y="391.1514">serialNumber : serial number [1..1]</text><text fill="#000000" font-family="sans-serif" font-size="14" lengthAdjust="spacing" textLength="266.1025" x="667.4" y="407.4482">expirationDate : end of life date [0..1]</text><text fill="#000000" font-family="sans-serif" font-size="14" lengthAdjust="spacing" textLength="259.7656" x="667.4" y="423.7451">property : additional properties [0..*]</text><line style="stroke:#181818;stroke-width:0.5;" x1="662.4" x2="1008.94" y1="431.0469" y2="431.0469"/></g><!--class DM--><g class="entity" data-entity="DM" data-source-line="33" data-uid="ent0007" id="entity_DM"><rect fill="#F1F1F1" height="121.4531" rx="2.5" ry="2.5" style="stroke:#181818;stroke-width:0.5;" width="348.54" x="620.4" y="537.0469"/><ellipse cx="713.5089" cy="557.1797" fill="#ADD1B2" rx="11" ry="11" style="stroke:#181818;stroke-width:1;"/><path d="M716.4776,562.8203 Q715.8995,563.1172 715.2589,563.2578 Q714.6183,563.4141 713.9151,563.4141 Q711.4151,563.4141 710.087,561.7734 Q708.7745,560.1172 708.7745,556.9922 Q708.7745,553.8672 710.087,552.2109 Q711.4151,550.5547 713.9151,550.5547 Q714.6183,550.5547 715.2589,550.7109 Q715.9151,550.8672 716.4776,551.1641 L716.4776,553.8828 Q715.8526,553.3047 715.2589,553.0391 Q714.6651,552.7578 714.0401,552.7578 Q712.6964,552.7578 712.0089,553.8359 Q711.3214,554.8984 711.3214,556.9922 Q711.3214,559.0859 712.0089,560.1641 Q712.6964,561.2266 714.0401,561.2266 Q714.6651,561.2266 715.2589,560.9609 Q715.8526,560.6797 716.4776,560.1016 L716.4776,562.8203 Z " fill="#000000"/><text fill="#000000" font-family="sans-serif" font-size="12" font-style="italic" lengthAdjust="spacing" textLength="87.3398" x="767.2501" y="553.1855">&#171;FHIR Device&#187;</text><text fill="#000000" font-family="sans-serif" font-size="14" lengthAdjust="spacing" textLength="153.8223" x="734.0089" y="569.0107">Device Data Recorder</text><line style="stroke:#181818;stroke-width:0.5;" x1="621.4" x2="967.94" y1="577.3125" y2="577.3125"/><text fill="#000000" font-family="sans-serif" font-size="14" lengthAdjust="spacing" textLength="225.8799" x="626.4" y="594.3076">status : operational status [1..1]</text><text fill="#000000" font-family="sans-serif" font-size="14" lengthAdjust="spacing" textLength="241.3018" x="626.4" y="610.6045">deviceName : product name [1..1]</text><text fill="#000000" font-family="sans-serif" font-size="14" lengthAdjust="spacing" textLength="336.54" x="626.4" y="626.9014">manufacturer : name of the manufacturer [0..1]</text><text fill="#000000" font-family="sans-serif" font-size="14" lengthAdjust="spacing" textLength="259.7656" x="626.4" y="643.1982">property : additional properties [0..*]</text><line style="stroke:#181818;stroke-width:0.5;" x1="621.4" x2="967.94" y1="650.5" y2="650.5"/></g><!--class PHD_Def--><g class="entity" data-entity="PHD_Def" data-source-line="47" data-uid="ent0012" id="entity_PHD_Def"><rect fill="#F1F1F1" height="121.4531" rx="2.5" ry="2.5" style="stroke:#181818;stroke-width:0.5;" width="415.751" x="1488.79" y="537.0469"/><ellipse cx="1558.9882" cy="557.1797" fill="#ADD1B2" rx="11" ry="11" style="stroke:#181818;stroke-width:1;"/><path d="M1561.957,562.8203 Q1561.3789,563.1172 1560.7382,563.2578 Q1560.0976,563.4141 1559.3945,563.4141 Q1556.8945,563.4141 1555.5664,561.7734 Q1554.2539,560.1172 1554.2539,556.9922 Q1554.2539,553.8672 1555.5664,552.2109 Q1556.8945,550.5547 1559.3945,550.5547 Q1560.0976,550.5547 1560.7382,550.7109 Q1561.3945,550.8672 1561.957,551.1641 L1561.957,553.8828 Q1561.332,553.3047 1560.7382,553.0391 Q1560.1445,552.7578 1559.5195,552.7578 Q1558.1757,552.7578 1557.4882,553.8359 Q1556.8007,554.8984 1556.8007,556.9922 Q1556.8007,559.0859 1557.4882,560.1641 Q1558.1757,561.2266 1559.5195,561.2266 Q1560.1445,561.2266 1560.7382,560.9609 Q1561.332,560.6797 1561.957,560.1016 L1561.957,562.8203 Z " fill="#000000"/><text fill="#000000" font-family="sans-serif" font-size="12" font-style="italic" lengthAdjust="spacing" textLength="145.4473" x="1640.1919" y="553.1855">&#171;FHIR DeviceDefinition&#187;</text><text fill="#000000" font-family="sans-serif" font-size="14" lengthAdjust="spacing" textLength="266.8545" x="1579.4882" y="569.0107">Personal Health Device Registry Entry</text><line style="stroke:#181818;stroke-width:0.5;" x1="1489.79" x2="1903.541" y1="577.3125" y2="577.3125"/><text fill="#000000" font-family="sans-serif" font-size="14" lengthAdjust="spacing" textLength="403.751" x="1494.79" y="594.3076">type : kind of device &#171;SCT or ISO/IEEE 11073 code&#187; [1..1]</text><text fill="#000000" font-family="sans-serif" font-size="14" lengthAdjust="spacing" textLength="241.3018" x="1494.79" y="610.6045">deviceName : product name [1..1]</text><text fill="#000000" font-family="sans-serif" font-size="14" lengthAdjust="spacing" textLength="336.54" x="1494.79" y="626.9014">manufacturer : name of the manufacturer [0..1]</text><text fill="#000000" font-family="sans-serif" font-size="14" lengthAdjust="spacing" textLength="259.7656" x="1494.79" y="643.1982">property : additional properties [0..*]</text><line style="stroke:#181818;stroke-width:0.5;" x1="1489.79" x2="1903.541" y1="650.5" y2="650.5"/></g><!--class DM_Def--><g class="entity" data-entity="DM_Def" data-source-line="54" data-uid="ent0013" id="entity_DM_Def"><rect fill="#F1F1F1" height="121.4531" rx="2.5" ry="2.5" style="stroke:#181818;stroke-width:0.5;" width="348.54" x="1105.4" y="537.0469"/><ellipse cx="1146.7821" cy="557.1797" fill="#ADD1B2" rx="11" ry="11" style="stroke:#181818;stroke-width:1;"/><path d="M1149.7509,562.8203 Q1149.1728,563.1172 1148.5321,563.2578 Q1147.8915,563.4141 1147.1884,563.4141 Q1144.6884,563.4141 1143.3603,561.7734 Q1142.0478,560.1172 1142.0478,556.9922 Q1142.0478,553.8672 1143.3603,552.2109 Q1144.6884,550.5547 1147.1884,550.5547 Q1147.8915,550.5547 1148.5321,550.7109 Q1149.1884,550.8672 1149.7509,551.1641 L1149.7509,553.8828 Q1149.1259,553.3047 1148.5321,553.0391 Q1147.9384,552.7578 1147.3134,552.7578 Q1145.9696,552.7578 1145.2821,553.8359 Q1144.5946,554.8984 1144.5946,556.9922 Q1144.5946,559.0859 1145.2821,560.1641 Q1145.9696,561.2266 1147.3134,561.2266 Q1147.9384,561.2266 1148.5321,560.9609 Q1149.1259,560.6797 1149.7509,560.1016 L1149.7509,562.8203 Z " fill="#000000"/><text fill="#000000" font-family="sans-serif" font-size="12" font-style="italic" lengthAdjust="spacing" textLength="145.4473" x="1222.8777" y="553.1855">&#171;FHIR DeviceDefinition&#187;</text><text fill="#000000" font-family="sans-serif" font-size="14" lengthAdjust="spacing" textLength="257.9131" x="1166.6448" y="569.0107">Device Data Recorder Registry Entry</text><line style="stroke:#181818;stroke-width:0.5;" x1="1106.4" x2="1452.94" y1="577.3125" y2="577.3125"/><text fill="#000000" font-family="sans-serif" font-size="14" lengthAdjust="spacing" textLength="206.0898" x="1111.4" y="594.3076">type = 462240000|SCT [1..1]</text><text fill="#000000" font-family="sans-serif" font-size="14" lengthAdjust="spacing" textLength="310.5156" x="1111.4" y="610.6045">deviceName : name of the aggregator [1..1]</text><text fill="#000000" font-family="sans-serif" font-size="14" lengthAdjust="spacing" textLength="336.54" x="1111.4" y="626.9014">manufacturer : name of the manufacturer [0..1]</text><text fill="#000000" font-family="sans-serif" font-size="14" lengthAdjust="spacing" textLength="259.7656" x="1111.4" y="643.1982">property : additional properties [0..*]</text><line style="stroke:#181818;stroke-width:0.5;" x1="1106.4" x2="1452.94" y1="650.5" y2="650.5"/></g><!--class DM_Org--><g class="entity" data-entity="DM_Org" data-source-line="61" data-uid="ent0014" id="entity_DM_Org"><rect fill="#F1F1F1" height="56.2656" rx="2.5" ry="2.5" style="stroke:#181818;stroke-width:0.5;" width="280.0215" x="1105.65" y="761.9469"/><ellipse cx="1120.65" cy="782.0797" fill="#ADD1B2" rx="11" ry="11" style="stroke:#181818;stroke-width:1;"/><path d="M1123.6187,787.7203 Q1123.0406,788.0172 1122.4,788.1578 Q1121.7594,788.3141 1121.0562,788.3141 Q1118.5562,788.3141 1117.2281,786.6734 Q1115.9156,785.0172 1115.9156,781.8922 Q1115.9156,778.7672 1117.2281,777.1109 Q1118.5562,775.4547 1121.0562,775.4547 Q1121.7594,775.4547 1122.4,775.6109 Q1123.0562,775.7672 1123.6187,776.0641 L1123.6187,778.7828 Q1122.9937,778.2047 1122.4,777.9391 Q1121.8062,777.6578 1121.1812,777.6578 Q1119.8375,777.6578 1119.15,778.7359 Q1118.4625,779.7984 1118.4625,781.8922 Q1118.4625,783.9859 1119.15,785.0641 Q1119.8375,786.1266 1121.1812,786.1266 Q1121.8062,786.1266 1122.4,785.8609 Q1122.9937,785.5797 1123.6187,785.0016 L1123.6187,787.7203 Z " fill="#000000"/><text fill="#000000" font-family="sans-serif" font-size="12" font-style="italic" lengthAdjust="spacing" textLength="123.2285" x="1197.0465" y="778.0855">&#171;FHIR Organization&#187;</text><text fill="#000000" font-family="sans-serif" font-size="14" lengthAdjust="spacing" textLength="248.0215" x="1134.65" y="793.9107">Device Data Recorder Organization</text><line style="stroke:#181818;stroke-width:0.5;" x1="1106.65" x2="1384.6715" y1="802.2125" y2="802.2125"/><line style="stroke:#181818;stroke-width:0.5;" x1="1106.65" x2="1384.6715" y1="810.2125" y2="810.2125"/></g><!--class EP--><g class="entity" data-entity="EP" data-source-line="63" data-uid="ent0015" id="entity_EP"><rect fill="#F1F1F1" height="105.1563" rx="2.5" ry="2.5" style="stroke:#181818;stroke-width:0.5;" width="392.5908" x="1518.37" y="737.4969"/><ellipse cx="1653.0687" cy="757.6297" fill="#ADD1B2" rx="11" ry="11" style="stroke:#181818;stroke-width:1;"/><path d="M1656.0375,763.2703 Q1655.4594,763.5672 1654.8187,763.7078 Q1654.1781,763.8641 1653.475,763.8641 Q1650.975,763.8641 1649.6469,762.2234 Q1648.3344,760.5672 1648.3344,757.4422 Q1648.3344,754.3172 1649.6469,752.6609 Q1650.975,751.0047 1653.475,751.0047 Q1654.1781,751.0047 1654.8187,751.1609 Q1655.475,751.3172 1656.0375,751.6141 L1656.0375,754.3328 Q1655.4125,753.7547 1654.8187,753.4891 Q1654.225,753.2078 1653.6,753.2078 Q1652.2562,753.2078 1651.5687,754.2859 Q1650.8812,755.3484 1650.8812,757.4422 Q1650.8812,759.5359 1651.5687,760.6141 Q1652.2562,761.6766 1653.6,761.6766 Q1654.225,761.6766 1654.8187,761.4109 Q1655.4125,761.1297 1656.0375,760.5516 L1656.0375,763.2703 Z " fill="#000000"/><text fill="#000000" font-family="sans-serif" font-size="12" font-style="italic" lengthAdjust="spacing" textLength="99.709" x="1681.0609" y="753.6355">&#171;FHIR Endpoint&#187;</text><text fill="#000000" font-family="sans-serif" font-size="14" lengthAdjust="spacing" textLength="114.6934" x="1673.5687" y="769.4607">HDDT Endpoints</text><line style="stroke:#181818;stroke-width:0.5;" x1="1519.37" x2="1909.9608" y1="777.7625" y2="777.7625"/><text fill="#000000" font-family="sans-serif" font-size="14" lengthAdjust="spacing" textLength="225.8799" x="1524.37" y="794.7576">status : operational status [1..1]</text><text fill="#000000" font-family="sans-serif" font-size="14" lengthAdjust="spacing" textLength="380.5908" x="1524.37" y="811.0545">connectionType: Coding &#171;hl7-fhir-rest | oauth2-authz&#187;</text><text fill="#000000" font-family="sans-serif" font-size="14" lengthAdjust="spacing" textLength="246.2373" x="1524.37" y="827.3514">address: URL of the endpoint [1..1]</text><line style="stroke:#181818;stroke-width:0.5;" x1="1519.37" x2="1909.9608" y1="834.6531" y2="834.6531"/></g><!--link IV to Metric--><g class="link" data-entity-1="IV" data-entity-2="Metric" data-source-line="23" data-uid="lnk5" id="link_IV_Metric"><path codeLine="23" d="M158.67,167.7969 C66,167.7969 6,369.1769 98.67,369.1769" fill="none" id="IV-to-Metric" style="stroke:#181818;stroke-width:1;"/><polygon fill="#181818" points="104.67,369.1769,95.67,365.1769,99.67,369.1769,95.67,373.1769,104.67,369.1769" style="stroke:#181818;stroke-width:1;"/><text fill="#000000" font-family="sans-serif" font-size="13" lengthAdjust="spacing" textLength="97.2144" x="66.67" y="267.3638">corresponds to</text></g><!--link IV to Metric--><g class="link" data-entity-1="IV" data-entity-2="Metric" data-source-line="40" data-uid="lnk8" id="link_IV_Metric"><path codeLine="40" d="M331.8,224.1669 C329.6,252.7869 327.4897,280.2945 325.3697,307.8845" fill="none" id="IV-to-Metric-1" style="stroke:#181818;stroke-width:1;"/><polygon fill="#181818" points="324.91,313.8669,329.5878,305.1998,325.2931,308.8816,321.6113,304.5869,324.91,313.8669" style="stroke:#181818;stroke-width:1;"/><text fill="#000000" font-family="sans-serif" font-size="13" lengthAdjust="spacing" textLength="81.7832" x="329.67" y="267.3638">device [1..1]</text></g><!--link Metric to PHD--><g class="link" data-entity-1="Metric" data-entity-2="PHD" data-source-line="41" data-uid="lnk9" id="link_Metric_PHD"><path codeLine="41" d="M542.81,370.1769 C582.42,370.1769 617.17,370.1769 655.21,370.1769" fill="none" id="Metric-to-PHD" style="stroke:#181818;stroke-width:1;"/><polygon fill="#181818" points="661.21,370.1769,652.21,366.1769,656.21,370.1769,652.21,374.1769,661.21,370.1769" style="stroke:#181818;stroke-width:1;"/><text fill="#000000" font-family="sans-serif" font-size="13" lengthAdjust="spacing" textLength="82.5386" x="561.28" y="363.2438">source [1..1]</text></g><!--link PHD to DM--><g class="link" data-entity-1="PHD" data-entity-2="DM" data-source-line="42" data-uid="lnk10" id="link_PHD_DM"><path codeLine="42" d="M823.25,439.4769 C817.62,470.4669 812.093,500.9036 806.653,530.8336" fill="none" id="PHD-to-DM" style="stroke:#181818;stroke-width:1;"/><polygon fill="#181818" points="805.58,536.7369,811.125,528.5973,806.4741,531.8175,803.2539,527.1666,805.58,536.7369" style="stroke:#181818;stroke-width:1;"/><text fill="#000000" font-family="sans-serif" font-size="13" lengthAdjust="spacing" textLength="81.98" x="817.67" y="482.1138">parent [1..1]</text></g><!--reverse link DM_Def to DM_Org--><g class="link" data-entity-1="DM_Def" data-entity-2="DM_Org" data-source-line="69" data-uid="lnk16" id="link_DM_Def_DM_Org"><path codeLine="69" d="M1266.7987,670.7997 C1260.6487,705.2097 1255.35,734.8869 1250.57,761.6069" fill="none" id="DM_Def-backto-DM_Org" style="stroke:#181818;stroke-width:1;"/><polygon fill="#181818" points="1268.91,658.9869,1263.9168,664.1895,1266.7987,670.7997,1271.792,665.597,1268.91,658.9869" style="stroke:#181818;stroke-width:1;"/><text fill="#000000" font-family="sans-serif" font-size="13" lengthAdjust="spacing" textLength="120.1421" x="1263.67" y="703.5638">organization [1..1]</text></g><!--reverse link DM_Org to EP--><g class="link" data-entity-1="DM_Org" data-entity-2="EP" data-source-line="70" data-uid="lnk17" id="link_DM_Org_EP"><path codeLine="70" d="M1398.06,790.0769 C1439.49,790.0769 1473.61,790.0769 1517.89,790.0769" fill="none" id="DM_Org-backto-EP" style="stroke:#181818;stroke-width:1;"/><polygon fill="#181818" points="1386.06,790.0769,1392.06,794.0769,1398.06,790.0769,1392.06,786.0769,1386.06,790.0769" style="stroke:#181818;stroke-width:1;"/><text fill="#000000" font-family="sans-serif" font-size="13" lengthAdjust="spacing" textLength="96.7256" x="1404.02" y="783.1438">endpoint [2..2]</text></g><!--link DM to DM_Def--><g class="link" data-entity-1="DM" data-entity-2="DM_Def" data-source-line="73" data-uid="lnk18" id="link_DM_DM_Def"><path codeLine="73" d="M969.42,597.7769 C1013.53,597.7769 1054.89,597.7769 1099,597.7769" fill="none" id="DM-to-DM_Def" style="stroke:#181818;stroke-width:1;"/><polygon fill="#181818" points="1105,597.7769,1096,593.7769,1100,597.7769,1096,601.7769,1105,597.7769" style="stroke:#181818;stroke-width:1;"/><text fill="#000000" font-family="sans-serif" font-size="13" lengthAdjust="spacing" textLength="100.2739" x="987.17" y="590.8438">definition [1..1]</text></g><!--link PHD to PHD_Def--><g class="link" data-entity-1="PHD" data-entity-2="PHD_Def" data-source-line="74" data-uid="lnk19" id="link_PHD_PHD_Def"><path codeLine="74" d="M1010.19,393.4769 C1139.57,412.7369 1319.16,445.2669 1471.67,494.0469 C1507.35,505.4569 1539.3964,518.5252 1573.3164,534.0852" fill="none" id="PHD-to-PHD_Def" style="stroke:#181818;stroke-width:1;"/><polygon fill="#181818" points="1578.77,536.5869,1572.2574,529.1986,1574.2254,534.5021,1568.9218,536.47,1578.77,536.5869" style="stroke:#181818;stroke-width:1;"/><text fill="#000000" font-family="sans-serif" font-size="13" lengthAdjust="spacing" textLength="100.2739" x="1438.67" y="482.1138">definition [1..1]</text></g><!--SRC=[pPPjRzew5CVVvrESqJTR9RY5RgkKTKYK11NfqbRGTY_kfiea3bWBTgxjL9Tj_UuxVaW8KMytLPgsI8N6Fa_- -VXlNgGqOvp2R7HnCncDhs_cyHmEnb5yD9a4B_paxVJi0noSnD7ne5yFdar6ynaSJDwCtWwEWq0pdLCuZw9hc9nFvn0HJM0cKfe7wZFZ1P5a0mL9FfCLNUWjsagQQC9NEGq2FsxTxsQKg5BI3ULQtH6UtaNqdYLK0L7GQKu2Ja8r-P6_P9iYjpCqXUKMz9h2Xl0o8ub65_aEI8AMYYqn-JqZri0MFBgQlkhi4VWQ03xs8yc9KZ2zjUcd65oAWafYWjoIlAGTE3srAxvSAYhlYMQ23uS-WdcK9hfK45R_YCoLvbQImhs90l_qUxt-fzefGNBeOfEpZ2KsxC-vfaGRL_ib962nJAGjLqEfxUU2XI1AdOWD_O77Gz2WCwDQiiGIMb2kCElrjg1sVyOaPqlfobzO03KmjtNETu-ODiuXODlOkbrXzQBzrYgNgBM8aZEDhlOBNVUAFzedl2kiPtR6PFotn46z1Knia6Fu3FyspPvhHF48fhTXQBUhsnrw4c7ebz19X9HK5OAd2hJeDA5TdKUMs1MLId2ImpabkLvxB2rAUtnIEtH1DYP58KLQ9XguUMtHQBO_cbgJQbkRKoqqsCUCv1VbPcdTt2jmzzvAGVyhcACOEORKRLhECkfwi1MyiES78OT0qfGPJmpkHnbrX0yVQR9ePd4v7avVvXJvfbG-1Qi-VlRO-dH-i7roVZ7NPomTTMVNLgQXN8s-8EXO8p-BTgQdq4Y9KjP6piRCc4X84GrGZdVdkHCyj2HuJbTCOKmlkXLo8_osQWKlhN0sxJISPNWZlEhuc-5hgzTHnhCd-hsAjOMOusThHtUfdn8Ap-RqT36-Dj8tNLp-DOtZ6FhzevDZgwde_kTlUjNlDRB7UlxvmDx3wxU3mUiZVBuPKay1QQwIh5QIhgmi_duqbtBr_sXmad3snPxstVtS6AoXF3IYnbSsekticAU5O2ZujNirybnnIGJd-8i7JSpT6C9Of8olCFewF-bcQoQxU55e-0Q2b7ezw9hFByDXxO-4q425S3F_ku9BVKsFNCo-UmwxtOeM7dlHGB2d3jxai6iWeE4kyA3N6pY5GEMm-c7ZMYMgMgmEPKLcM9_sHus-0m00]--></g></svg>