<svg xmlns="http://www.w3.org/2000/svg" xmlns:xlink="http://www.w3.org/1999/xlink" contentStyleType="text/css" data-diagram-type="CLASS" height="659px" preserveAspectRatio="none" style="width:1031px;height:659px;background:#FFFFFF;" version="1.1" viewBox="0 0 1031 659" width="1031px" zoomAndPan="magnify"><title>HDDT FHIR Data Model</title><defs/><g><g class="title" data-source-line="5"><text fill="#000000" font-family="sans-serif" font-size="14" font-weight="bold" lengthAdjust="spacing" textLength="181.4736" x="418.0982" y="22.9951">HDDT FHIR Data Model</text></g><!--cluster HDDT_Measurements_and_Devices--><g class="cluster" data-entity="HDDT_Measurements_and_Devices" data-source-line="8" data-uid="ent0002" id="cluster_HDDT_Measurements_and_Devices"><rect fill="#CDE0FF" height="609.2" rx="2.5" ry="2.5" style="stroke:#181818;stroke-width:1;" width="944" x="81.67" y="44.2969"/><text fill="#000000" font-family="sans-serif" font-size="14" font-weight="bold" lengthAdjust="spacing" textLength="217" x="442.733" y="59.292">Measurements and Devices</text><text fill="#000000" font-family="sans-serif" font-size="14" font-weight="bold" lengthAdjust="spacing" textLength="516.0791" x="295.6304" y="75.5889">(implemented by the manufacturer; accessible via the HDDT API)</text></g><!--class IV--><g class="entity" data-entity="IV" data-source-line="10" data-uid="ent0003" id="entity_IV"><rect fill="#F1F1F1" height="121.4531" rx="2.5" ry="2.5" style="stroke:#181818;stroke-width:0.5;" width="354.7881" x="159.67" y="99.2969"/><ellipse cx="263.4976" cy="119.4297" fill="#ADD1B2" rx="11" ry="11" style="stroke:#181818;stroke-width:1;"/><path d="M266.4664,125.0703 Q265.8883,125.3672 265.2476,125.5078 Q264.607,125.6641 263.9039,125.6641 Q261.4039,125.6641 260.0758,124.0234 Q258.7633,122.3672 258.7633,119.2422 Q258.7633,116.1172 260.0758,114.4609 Q261.4039,112.8047 263.9039,112.8047 Q264.607,112.8047 265.2476,112.9609 Q265.9039,113.1172 266.4664,113.4141 L266.4664,116.1328 Q265.8414,115.5547 265.2476,115.2891 Q264.6539,115.0078 264.0289,115.0078 Q262.6851,115.0078 261.9976,116.0859 Q261.3101,117.1484 261.3101,119.2422 Q261.3101,121.3359 261.9976,122.4141 Q262.6851,123.4766 264.0289,123.4766 Q264.6539,123.4766 265.2476,123.2109 Q265.8414,122.9297 266.4664,122.3516 L266.4664,125.0703 Z " fill="#000000"/><text fill="#000000" font-family="sans-serif" font-size="12" font-style="italic" lengthAdjust="spacing" textLength="119.373" x="293.6275" y="115.4355">&#171;FHIR Observation&#187;</text><text fill="#000000" font-family="sans-serif" font-size="14" lengthAdjust="spacing" textLength="138.6328" x="283.9976" y="131.2607">Interoperable Value</text><line style="stroke:#181818;stroke-width:0.5;" x1="160.67" x2="513.4581" y1="139.5625" y2="139.5625"/><text fill="#000000" font-family="sans-serif" font-size="14" lengthAdjust="spacing" textLength="304.5068" x="165.67" y="156.5576">status : status of the measured value [1..1]</text><text fill="#000000" font-family="sans-serif" font-size="14" lengthAdjust="spacing" textLength="342.7881" x="165.67" y="172.8545">code : classification of the measured value [1..1]</text><text fill="#000000" font-family="sans-serif" font-size="14" lengthAdjust="spacing" textLength="334.4619" x="165.67" y="189.1514">date : date or period of the measurement [1..1]</text><text fill="#000000" font-family="sans-serif" font-size="14" lengthAdjust="spacing" textLength="303.1875" x="165.67" y="205.4482">value : outcome of the measurement [1..1]</text><line style="stroke:#181818;stroke-width:0.5;" x1="160.67" x2="513.4581" y1="212.75" y2="212.75"/></g><!--class Metric--><g class="entity" data-entity="Metric" data-source-line="17" data-uid="ent0004" id="entity_Metric"><rect fill="#F1F1F1" height="105.1563" rx="2.5" ry="2.5" style="stroke:#181818;stroke-width:0.5;" width="429.1084" x="106.17" y="317.6669"/><ellipse cx="192.8497" cy="337.7997" fill="#ADD1B2" rx="11" ry="11" style="stroke:#181818;stroke-width:1;"/><path d="M195.8184,343.4403 Q195.2403,343.7372 194.5997,343.8778 Q193.9591,344.0341 193.2559,344.0341 Q190.7559,344.0341 189.4278,342.3934 Q188.1153,340.7372 188.1153,337.6122 Q188.1153,334.4872 189.4278,332.8309 Q190.7559,331.1747 193.2559,331.1747 Q193.9591,331.1747 194.5997,331.3309 Q195.2559,331.4872 195.8184,331.7841 L195.8184,334.5028 Q195.1934,333.9247 194.5997,333.6591 Q194.0059,333.3778 193.3809,333.3778 Q192.0372,333.3778 191.3497,334.4559 Q190.6622,335.5184 190.6622,337.6122 Q190.6622,339.7059 191.3497,340.7841 Q192.0372,341.8466 193.3809,341.8466 Q194.0059,341.8466 194.5997,341.5809 Q195.1934,341.2997 195.8184,340.7216 L195.8184,343.4403 Z " fill="#000000"/><text fill="#000000" font-family="sans-serif" font-size="12" font-style="italic" lengthAdjust="spacing" textLength="124.6465" x="274.651" y="333.8055">&#171;FHIR DeviceMetric&#187;</text><text fill="#000000" font-family="sans-serif" font-size="14" lengthAdjust="spacing" textLength="247.249" x="213.3497" y="349.6307">Sensor Type and Calibration Status</text><line style="stroke:#181818;stroke-width:0.5;" x1="107.17" x2="534.2784" y1="357.9325" y2="357.9325"/><text fill="#000000" font-family="sans-serif" font-size="14" lengthAdjust="spacing" textLength="351.9688" x="112.17" y="374.9276">type : kind of value measured by the sensor [1..1]</text><text fill="#000000" font-family="sans-serif" font-size="14" lengthAdjust="spacing" textLength="230.3301" x="112.17" y="391.2245">unit : unit of measurement [0..1]</text><text fill="#000000" font-family="sans-serif" font-size="14" lengthAdjust="spacing" textLength="417.1084" x="112.17" y="407.5214">calibration.state : quality indicator for measurements [0..1]</text><line style="stroke:#181818;stroke-width:0.5;" x1="107.17" x2="534.2784" y1="414.8231" y2="414.8231"/></g><!--class PHD--><g class="entity" data-entity="PHD" data-source-line="25" data-uid="ent0006" id="entity_PHD"><rect fill="#F1F1F1" height="137.75" rx="2.5" ry="2.5" style="stroke:#181818;stroke-width:0.5;" width="348.54" x="661.4" y="301.2969"/><ellipse cx="750.0382" cy="321.4297" fill="#ADD1B2" rx="11" ry="11" style="stroke:#181818;stroke-width:1;"/><path d="M753.0069,327.0703 Q752.4288,327.3672 751.7882,327.5078 Q751.1476,327.6641 750.4444,327.6641 Q747.9444,327.6641 746.6163,326.0234 Q745.3038,324.3672 745.3038,321.2422 Q745.3038,318.1172 746.6163,316.4609 Q747.9444,314.8047 750.4444,314.8047 Q751.1476,314.8047 751.7882,314.9609 Q752.4444,315.1172 753.0069,315.4141 L753.0069,318.1328 Q752.3819,317.5547 751.7882,317.2891 Q751.1944,317.0078 750.5694,317.0078 Q749.2257,317.0078 748.5382,318.0859 Q747.8507,319.1484 747.8507,321.2422 Q747.8507,323.3359 748.5382,324.4141 Q749.2257,325.4766 750.5694,325.4766 Q751.1944,325.4766 751.7882,325.2109 Q752.3819,324.9297 753.0069,324.3516 L753.0069,327.0703 Z " fill="#000000"/><text fill="#000000" font-family="sans-serif" font-size="12" font-style="italic" lengthAdjust="spacing" textLength="87.3398" x="808.2501" y="317.4355">&#171;FHIR Device&#187;</text><text fill="#000000" font-family="sans-serif" font-size="14" lengthAdjust="spacing" textLength="162.7637" x="770.5382" y="333.2607">Personal Health Device</text><line style="stroke:#181818;stroke-width:0.5;" x1="662.4" x2="1008.94" y1="341.5625" y2="341.5625"/><text fill="#000000" font-family="sans-serif" font-size="14" lengthAdjust="spacing" textLength="241.3018" x="667.4" y="358.5576">deviceName : product name [1..1]</text><text fill="#000000" font-family="sans-serif" font-size="14" lengthAdjust="spacing" textLength="336.54" x="667.4" y="374.8545">manufacturer : name of the manufacturer [0..1]</text><text fill="#000000" font-family="sans-serif" font-size="14" lengthAdjust="spacing" textLength="247.0781" x="667.4" y="391.1514">serialNumber : serial number [1..1]</text><text fill="#000000" font-family="sans-serif" font-size="14" lengthAdjust="spacing" textLength="266.1025" x="667.4" y="407.4482">expirationDate : end of life date [0..1]</text><text fill="#000000" font-family="sans-serif" font-size="14" lengthAdjust="spacing" textLength="259.7656" x="667.4" y="423.7451">property : additional properties [0..*]</text><line style="stroke:#181818;stroke-width:0.5;" x1="662.4" x2="1008.94" y1="431.0469" y2="431.0469"/></g><!--class DM--><g class="entity" data-entity="DM" data-source-line="33" data-uid="ent0007" id="entity_DM"><rect fill="#F1F1F1" height="121.4531" rx="2.5" ry="2.5" style="stroke:#181818;stroke-width:0.5;" width="348.54" x="661.4" y="516.0469"/><ellipse cx="754.5089" cy="536.1797" fill="#ADD1B2" rx="11" ry="11" style="stroke:#181818;stroke-width:1;"/><path d="M757.4776,541.8203 Q756.8995,542.1172 756.2589,542.2578 Q755.6183,542.4141 754.9151,542.4141 Q752.4151,542.4141 751.087,540.7734 Q749.7745,539.1172 749.7745,535.9922 Q749.7745,532.8672 751.087,531.2109 Q752.4151,529.5547 754.9151,529.5547 Q755.6183,529.5547 756.2589,529.7109 Q756.9151,529.8672 757.4776,530.1641 L757.4776,532.8828 Q756.8526,532.3047 756.2589,532.0391 Q755.6651,531.7578 755.0401,531.7578 Q753.6964,531.7578 753.0089,532.8359 Q752.3214,533.8984 752.3214,535.9922 Q752.3214,538.0859 753.0089,539.1641 Q753.6964,540.2266 755.0401,540.2266 Q755.6651,540.2266 756.2589,539.9609 Q756.8526,539.6797 757.4776,539.1016 L757.4776,541.8203 Z " fill="#000000"/><text fill="#000000" font-family="sans-serif" font-size="12" font-style="italic" lengthAdjust="spacing" textLength="87.3398" x="808.2501" y="532.1855">&#171;FHIR Device&#187;</text><text fill="#000000" font-family="sans-serif" font-size="14" lengthAdjust="spacing" textLength="153.8223" x="775.0089" y="548.0107">Device Data Recorder</text><line style="stroke:#181818;stroke-width:0.5;" x1="662.4" x2="1008.94" y1="556.3125" y2="556.3125"/><text fill="#000000" font-family="sans-serif" font-size="14" lengthAdjust="spacing" textLength="225.8799" x="667.4" y="573.3076">status : operational status [1..1]</text><text fill="#000000" font-family="sans-serif" font-size="14" lengthAdjust="spacing" textLength="241.3018" x="667.4" y="589.6045">deviceName : product name [1..1]</text><text fill="#000000" font-family="sans-serif" font-size="14" lengthAdjust="spacing" textLength="336.54" x="667.4" y="605.9014">manufacturer : name of the manufacturer [0..1]</text><text fill="#000000" font-family="sans-serif" font-size="14" lengthAdjust="spacing" textLength="259.7656" x="667.4" y="622.1982">property : additional properties [0..*]</text><line style="stroke:#181818;stroke-width:0.5;" x1="662.4" x2="1008.94" y1="629.5" y2="629.5"/></g><!--link IV to Metric--><g class="link" data-entity-1="IV" data-entity-2="Metric" data-source-line="23" data-uid="lnk5" id="link_IV_Metric"><path codeLine="23" d="M158.67,167.7969 C66,167.7969 6,369.1669 98.67,369.1669" fill="none" id="IV-to-Metric" style="stroke:#181818;stroke-width:1;"/><polygon fill="#181818" points="104.67,369.1669,95.67,365.1669,99.67,369.1669,95.67,373.1669,104.67,369.1669" style="stroke:#181818;stroke-width:1;"/><text fill="#000000" font-family="sans-serif" font-size="13" lengthAdjust="spacing" textLength="97.2144" x="66.67" y="267.3638">corresponds to</text></g><!--link IV to Metric--><g class="link" data-entity-1="IV" data-entity-2="Metric" data-source-line="40" data-uid="lnk8" id="link_IV_Metric"><path codeLine="40" d="M331.8,224.1569 C329.6,252.7769 327.4898,280.2945 325.3698,307.8745" fill="none" id="IV-to-Metric-1" style="stroke:#181818;stroke-width:1;"/><polygon fill="#181818" points="324.91,313.8569,329.588,305.1899,325.2932,308.8716,321.6115,304.5768,324.91,313.8569" style="stroke:#181818;stroke-width:1;"/><text fill="#000000" font-family="sans-serif" font-size="13" lengthAdjust="spacing" textLength="81.7832" x="329.67" y="267.3638">device [1..1]</text></g><!--link Metric to PHD--><g class="link" data-entity-1="Metric" data-entity-2="PHD" data-source-line="41" data-uid="lnk9" id="link_Metric_PHD"><path codeLine="41" d="M542.81,370.1669 C582.42,370.1669 617.17,370.1669 655.21,370.1669" fill="none" id="Metric-to-PHD" style="stroke:#181818;stroke-width:1;"/><polygon fill="#181818" points="661.21,370.1669,652.21,366.1669,656.21,370.1669,652.21,374.1669,661.21,370.1669" style="stroke:#181818;stroke-width:1;"/><text fill="#000000" font-family="sans-serif" font-size="13" lengthAdjust="spacing" textLength="82.5386" x="561.28" y="363.2338">source [1..1]</text></g><!--link PHD to DM--><g class="link" data-entity-1="PHD" data-entity-2="DM" data-source-line="42" data-uid="lnk10" id="link_PHD_DM"><path codeLine="42" d="M835.67,439.2969 C835.67,464.0569 835.67,485.8369 835.67,509.8369" fill="none" id="PHD-to-DM" style="stroke:#181818;stroke-width:1;"/><polygon fill="#181818" points="835.67,515.8369,839.67,506.8369,835.67,510.8369,831.67,506.8369,835.67,515.8369" style="stroke:#181818;stroke-width:1;"/><text fill="#000000" font-family="sans-serif" font-size="13" lengthAdjust="spacing" textLength="81.98" x="836.67" y="482.1138">parent [1..1]</text></g><!--SRC=[jPJVQzim4CVV_LTStPTjqD8VR0El5DAw8Nb8Lz8qUzX6kLYNLjIMF4aE2wF_-qwIapfcR6CmGs9RTz-xq-TEtXEqb8fWChY-6mukPtVJgodiN-PNHyDXijSQv-EBJx3__Ye_FJdUBbuC1zC9x0_V3jwTd2Q9awua6ENv38QZyHHoT0WJBQXCx9DKDHgieCRY2H_ergtPrr3XK3sKb2JjUf3VJmXjOwWYvUmzAd6VqqeMP04jf5qZi14snY_gbQpgCbX8m68Dxf6WGjKiiN0iCHy02_QqSi79LnA3GoXuS3D-dUuG-940N-6lAD5Q6Cz3-Z47DxecWpx87Ck6KZWx2pl-kB1aLkYaLkVdRGH_MOUkiP1j7lGobXPt8c3bey3duyF3uwzRKS7aM1AIowKiGjY_amfqNXfksW0NAxNeIJsblYu6oq0thj0L_K7nd7JeJCWPMGH2jwGiPvsjQmhzkSHIBami_pO0s0ABhOlQ7MBEYpFWiGbrnyAscsvRQsEYtYOQ9HrBmusbEyKVxH9-AUpGTyPd_DRmebi39_R8EVoIVrLtvZfHMWJZUPQ5TXqSdBSaigpTGbfeOyZMMWaBJgTTQ3UZF12x8MErmX96XALxRB7qAEtm4M7f6YkVeZPQD8K3vLzxDBhZpwx1PTFMhgc7XkTOOddTL8iWYw-Wudil1NslPQIOHuOKcrRA9SKPx0Mlm_bXo1cW4D8hENYxAYaIVlEB8Sid0LVa4RylKsA-WiplO6sFNpYsRRfsiNzo_ZFNVzWwVtTUnieFLAonBGZIuDHQsS_F53jPtPYjK_Jn5X-9AR83VuvVpdEQFFy4]--></g></svg>