<svg xmlns="http://www.w3.org/2000/svg" xmlns:xlink="http://www.w3.org/1999/xlink" contentStyleType="text/css" data-diagram-type="CLASS" height="841px" preserveAspectRatio="none" style="width:1544px;height:841px;background:#FFFFFF;" version="1.1" viewBox="0 0 1544 841" width="1544px" zoomAndPan="magnify"><title>HDDT FHIR Data Model (Medical Aids and Implants)</title><defs/><g><g class="title" data-source-line="5"><text fill="#000000" font-family="sans-serif" font-size="14" font-weight="bold" lengthAdjust="spacing" textLength="407.0391" x="561.4805" y="22.9951">HDDT FHIR Data Model (Medical Aids and Implants)</text></g><!--cluster HDDT_Measurements_and_Devices--><g class="cluster" data-entity="HDDT_Measurements_and_Devices" data-source-line="8" data-uid="ent0002" id="cluster_HDDT_Measurements_and_Devices"><rect fill="#CDE0FF" height="404.37" rx="2.5" ry="2.5" style="stroke:#181818;stroke-width:1;" width="928" x="7" y="44.2969"/><text fill="#000000" font-family="sans-serif" font-size="14" font-weight="bold" lengthAdjust="spacing" textLength="276.3906" x="332.8047" y="59.292">Device Data Recorde Manufacturer</text></g><!--cluster HDDT_Registries--><g class="cluster" data-entity="HDDT_Registries" data-source-line="39" data-uid="ent0011" id="cluster_HDDT_Registries"><rect fill="#F5A623" height="338.31" rx="2.5" ry="2.5" style="stroke:#181818;stroke-width:1;" width="831" x="491" y="497.6669"/><text fill="#000000" font-family="sans-serif" font-size="14" font-weight="bold" lengthAdjust="spacing" textLength="368.792" x="722.104" y="512.662">Device Definitions (HDDT Registries at BfARM)</text></g><!--cluster ZTS--><g class="cluster" data-entity="ZTS" data-source-line="65" data-uid="ent0019" id="cluster_ZTS"><rect fill="#7ED321" height="196.78" rx="2.5" ry="2.5" style="stroke:#181818;stroke-width:1;" width="452" x="1086" y="247.7469"/><text fill="#000000" font-family="sans-serif" font-size="14" font-weight="bold" lengthAdjust="spacing" textLength="423.2881" x="1100.356" y="262.742">MIV Definitions (German Central Terminology Server)</text></g><!--class IV--><g class="entity" data-entity="IV" data-source-line="10" data-uid="ent0003" id="entity_IV"><rect fill="#F1F1F1" height="121.4531" rx="2.5" ry="2.5" style="stroke:#181818;stroke-width:0.5;" width="354.7881" x="140.61" y="79.2969"/><ellipse cx="244.4376" cy="99.4297" fill="#ADD1B2" rx="11" ry="11" style="stroke:#181818;stroke-width:1;"/><path d="M247.4064,105.0703 Q246.8283,105.3672 246.1876,105.5078 Q245.547,105.6641 244.8439,105.6641 Q242.3439,105.6641 241.0158,104.0234 Q239.7033,102.3672 239.7033,99.2422 Q239.7033,96.1172 241.0158,94.4609 Q242.3439,92.8047 244.8439,92.8047 Q245.547,92.8047 246.1876,92.9609 Q246.8439,93.1172 247.4064,93.4141 L247.4064,96.1328 Q246.7814,95.5547 246.1876,95.2891 Q245.5939,95.0078 244.9689,95.0078 Q243.6251,95.0078 242.9376,96.0859 Q242.2501,97.1484 242.2501,99.2422 Q242.2501,101.3359 242.9376,102.4141 Q243.6251,103.4766 244.9689,103.4766 Q245.5939,103.4766 246.1876,103.2109 Q246.7814,102.9297 247.4064,102.3516 L247.4064,105.0703 Z " fill="#000000"/><text fill="#000000" font-family="sans-serif" font-size="12" font-style="italic" lengthAdjust="spacing" textLength="119.373" x="274.5675" y="95.4355">&#171;FHIR Observation&#187;</text><text fill="#000000" font-family="sans-serif" font-size="14" lengthAdjust="spacing" textLength="138.6328" x="264.9376" y="111.2607">Interoperable Value</text><line style="stroke:#181818;stroke-width:0.5;" x1="141.61" x2="494.3981" y1="119.5625" y2="119.5625"/><text fill="#000000" font-family="sans-serif" font-size="14" lengthAdjust="spacing" textLength="304.5068" x="146.61" y="136.5576">status : status of the measured value [1..1]</text><text fill="#000000" font-family="sans-serif" font-size="14" lengthAdjust="spacing" textLength="342.7881" x="146.61" y="152.8545">code : classification of the measured value [1..1]</text><text fill="#000000" font-family="sans-serif" font-size="14" lengthAdjust="spacing" textLength="334.4619" x="146.61" y="169.1514">date : date or period of the measurement [1..1]</text><text fill="#000000" font-family="sans-serif" font-size="14" lengthAdjust="spacing" textLength="303.1875" x="146.61" y="185.4482">value : outcome of the measurement [1..1]</text><line style="stroke:#181818;stroke-width:0.5;" x1="141.61" x2="494.3981" y1="192.75" y2="192.75"/></g><!--class Metric--><g class="entity" data-entity="Metric" data-source-line="17" data-uid="ent0004" id="entity_Metric"><rect fill="#F1F1F1" height="88.8594" rx="2.5" ry="2.5" style="stroke:#181818;stroke-width:0.5;" width="429.1084" x="23.45" y="311.2069"/><ellipse cx="110.1297" cy="331.3397" fill="#ADD1B2" rx="11" ry="11" style="stroke:#181818;stroke-width:1;"/><path d="M113.0984,336.9803 Q112.5203,337.2772 111.8797,337.4178 Q111.2391,337.5741 110.5359,337.5741 Q108.0359,337.5741 106.7078,335.9334 Q105.3953,334.2772 105.3953,331.1522 Q105.3953,328.0272 106.7078,326.3709 Q108.0359,324.7147 110.5359,324.7147 Q111.2391,324.7147 111.8797,324.8709 Q112.5359,325.0272 113.0984,325.3241 L113.0984,328.0428 Q112.4734,327.4647 111.8797,327.1991 Q111.2859,326.9178 110.6609,326.9178 Q109.3172,326.9178 108.6297,327.9959 Q107.9422,329.0584 107.9422,331.1522 Q107.9422,333.2459 108.6297,334.3241 Q109.3172,335.3866 110.6609,335.3866 Q111.2859,335.3866 111.8797,335.1209 Q112.4734,334.8397 113.0984,334.2616 L113.0984,336.9803 Z " fill="#000000"/><text fill="#000000" font-family="sans-serif" font-size="12" font-style="italic" lengthAdjust="spacing" textLength="124.6465" x="191.931" y="327.3455">&#171;FHIR DeviceMetric&#187;</text><text fill="#000000" font-family="sans-serif" font-size="14" lengthAdjust="spacing" textLength="247.249" x="130.6297" y="343.1707">Sensor Type and Calibration Status</text><line style="stroke:#181818;stroke-width:0.5;" x1="24.45" x2="451.5584" y1="351.4725" y2="351.4725"/><text fill="#000000" font-family="sans-serif" font-size="14" lengthAdjust="spacing" textLength="351.9688" x="29.45" y="368.4676">type : kind of value measured by the sensor [1..1]</text><text fill="#000000" font-family="sans-serif" font-size="14" lengthAdjust="spacing" textLength="417.1084" x="29.45" y="384.7645">calibration.state : quality indicator for measurements [1..1]</text><line style="stroke:#181818;stroke-width:0.5;" x1="24.45" x2="451.5584" y1="392.0662" y2="392.0662"/></g><!--class PHD--><g class="entity" data-entity="PHD" data-source-line="22" data-uid="ent0005" id="entity_PHD"><rect fill="#F1F1F1" height="154.0469" rx="2.5" ry="2.5" style="stroke:#181818;stroke-width:0.5;" width="348.54" x="570.73" y="278.6169"/><ellipse cx="659.3682" cy="298.7497" fill="#ADD1B2" rx="11" ry="11" style="stroke:#181818;stroke-width:1;"/><path d="M662.3369,304.3903 Q661.7588,304.6872 661.1182,304.8278 Q660.4776,304.9841 659.7744,304.9841 Q657.2744,304.9841 655.9463,303.3434 Q654.6338,301.6872 654.6338,298.5622 Q654.6338,295.4372 655.9463,293.7809 Q657.2744,292.1247 659.7744,292.1247 Q660.4776,292.1247 661.1182,292.2809 Q661.7744,292.4372 662.3369,292.7341 L662.3369,295.4528 Q661.7119,294.8747 661.1182,294.6091 Q660.5244,294.3278 659.8994,294.3278 Q658.5557,294.3278 657.8682,295.4059 Q657.1807,296.4684 657.1807,298.5622 Q657.1807,300.6559 657.8682,301.7341 Q658.5557,302.7966 659.8994,302.7966 Q660.5244,302.7966 661.1182,302.5309 Q661.7119,302.2497 662.3369,301.6716 L662.3369,304.3903 Z " fill="#000000"/><text fill="#000000" font-family="sans-serif" font-size="12" font-style="italic" lengthAdjust="spacing" textLength="87.3398" x="717.5801" y="294.7555">&#171;FHIR Device&#187;</text><text fill="#000000" font-family="sans-serif" font-size="14" lengthAdjust="spacing" textLength="162.7637" x="679.8682" y="310.5807">Personal Health Device</text><line style="stroke:#181818;stroke-width:0.5;" x1="571.73" x2="918.27" y1="318.8825" y2="318.8825"/><text fill="#000000" font-family="sans-serif" font-size="14" lengthAdjust="spacing" textLength="258.0703" x="576.73" y="335.8776">type : machine-readable device type</text><text fill="#000000" font-family="sans-serif" font-size="14" lengthAdjust="spacing" textLength="241.3018" x="576.73" y="352.1745">deviceName : product name [1..1]</text><text fill="#000000" font-family="sans-serif" font-size="14" lengthAdjust="spacing" textLength="336.54" x="576.73" y="368.4714">manufacturer : name of the manufacturer [0..1]</text><text fill="#000000" font-family="sans-serif" font-size="14" lengthAdjust="spacing" textLength="247.0781" x="576.73" y="384.7682">serialNumber : serial number [1..1]</text><text fill="#000000" font-family="sans-serif" font-size="14" lengthAdjust="spacing" textLength="266.1025" x="576.73" y="401.0651">expirationDate : end of life date [0..1]</text><text fill="#000000" font-family="sans-serif" font-size="14" lengthAdjust="spacing" textLength="259.7656" x="576.73" y="417.362">property : additional properties [0..*]</text><line style="stroke:#181818;stroke-width:0.5;" x1="571.73" x2="918.27" y1="424.6637" y2="424.6637"/></g><!--entity xor--><g class="entity" data-entity="xor" data-source-line="31" data-uid="ent0006" id="entity_xor"><ellipse cx="626" cy="140.0269" fill="#F1F1F1" rx="8" ry="8" style="stroke:#181818;stroke-width:0.5;"/><text fill="#000000" font-family="sans-serif" font-size="14" lengthAdjust="spacing" textLength="40.4209" x="605.7896" y="170.022">{xor}</text></g><!--class PHD_Def--><g class="entity" data-entity="PHD_Def" data-source-line="41" data-uid="ent0012" id="entity_PHD_Def"><rect fill="#F1F1F1" height="121.4531" rx="2.5" ry="2.5" style="stroke:#181818;stroke-width:0.5;" width="415.751" x="890.12" y="548.9569"/><ellipse cx="976.2426" cy="569.0897" fill="#ADD1B2" rx="11" ry="11" style="stroke:#181818;stroke-width:1;"/><path d="M979.2113,574.7303 Q978.6332,575.0272 977.9926,575.1678 Q977.3519,575.3241 976.6488,575.3241 Q974.1488,575.3241 972.8207,573.6834 Q971.5082,572.0272 971.5082,568.9022 Q971.5082,565.7772 972.8207,564.1209 Q974.1488,562.4647 976.6488,562.4647 Q977.3519,562.4647 977.9926,562.6209 Q978.6488,562.7772 979.2113,563.0741 L979.2113,565.7928 Q978.5863,565.2147 977.9926,564.9491 Q977.3988,564.6678 976.7738,564.6678 Q975.4301,564.6678 974.7426,565.7459 Q974.0551,566.8084 974.0551,568.9022 Q974.0551,570.9959 974.7426,572.0741 Q975.4301,573.1366 976.7738,573.1366 Q977.3988,573.1366 977.9926,572.8709 Q978.5863,572.5897 979.2113,572.0116 L979.2113,574.7303 Z " fill="#000000"/><text fill="#000000" font-family="sans-serif" font-size="12" font-style="italic" lengthAdjust="spacing" textLength="145.4473" x="1041.5219" y="565.0955">&#171;FHIR DeviceDefinition&#187;</text><text fill="#000000" font-family="sans-serif" font-size="14" lengthAdjust="spacing" textLength="235.0059" x="996.7426" y="580.9207">Personal Health Device Definition</text><line style="stroke:#181818;stroke-width:0.5;" x1="891.12" x2="1304.871" y1="589.2225" y2="589.2225"/><text fill="#000000" font-family="sans-serif" font-size="14" lengthAdjust="spacing" textLength="403.751" x="896.12" y="606.2176">type : kind of device &#171;SCT or ISO/IEEE 11073 code&#187; [1..1]</text><text fill="#000000" font-family="sans-serif" font-size="14" lengthAdjust="spacing" textLength="241.3018" x="896.12" y="622.5145">deviceName : product name [1..1]</text><text fill="#000000" font-family="sans-serif" font-size="14" lengthAdjust="spacing" textLength="336.54" x="896.12" y="638.8114">manufacturer : name of the manufacturer [0..1]</text><text fill="#000000" font-family="sans-serif" font-size="14" lengthAdjust="spacing" textLength="259.7656" x="896.12" y="655.1082">property : additional properties [0..*]</text><line style="stroke:#181818;stroke-width:0.5;" x1="891.12" x2="1304.871" y1="662.41" y2="662.41"/></g><!--class DDR--><g class="entity" data-entity="DDR" data-source-line="48" data-uid="ent0013" id="entity_DDR"><rect fill="#F1F1F1" height="154.0469" rx="2.5" ry="2.5" style="stroke:#181818;stroke-width:0.5;" width="348.54" x="506.73" y="532.6669"/><ellipse cx="599.8389" cy="552.7997" fill="#ADD1B2" rx="11" ry="11" style="stroke:#181818;stroke-width:1;"/><path d="M602.8076,558.4403 Q602.2295,558.7372 601.5889,558.8778 Q600.9483,559.0341 600.2451,559.0341 Q597.7451,559.0341 596.417,557.3934 Q595.1045,555.7372 595.1045,552.6122 Q595.1045,549.4872 596.417,547.8309 Q597.7451,546.1747 600.2451,546.1747 Q600.9483,546.1747 601.5889,546.3309 Q602.2451,546.4872 602.8076,546.7841 L602.8076,549.5028 Q602.1826,548.9247 601.5889,548.6591 Q600.9951,548.3778 600.3701,548.3778 Q599.0264,548.3778 598.3389,549.4559 Q597.6514,550.5184 597.6514,552.6122 Q597.6514,554.7059 598.3389,555.7841 Q599.0264,556.8466 600.3701,556.8466 Q600.9951,556.8466 601.5889,556.5809 Q602.1826,556.2997 602.8076,555.7216 L602.8076,558.4403 Z " fill="#000000"/><text fill="#000000" font-family="sans-serif" font-size="12" font-style="italic" lengthAdjust="spacing" textLength="87.3398" x="653.5801" y="548.8055">&#171;FHIR Device&#187;</text><text fill="#000000" font-family="sans-serif" font-size="14" lengthAdjust="spacing" textLength="153.8223" x="620.3389" y="564.6307">Device Data Recorder</text><line style="stroke:#181818;stroke-width:0.5;" x1="507.73" x2="854.27" y1="572.9325" y2="572.9325"/><text fill="#000000" font-family="sans-serif" font-size="14" lengthAdjust="spacing" textLength="206.0898" x="512.73" y="589.9276">type = 462240000|SCT [1..1]</text><text fill="#000000" font-family="sans-serif" font-size="14" lengthAdjust="spacing" textLength="225.8799" x="512.73" y="606.2245">status : operational status [1..1]</text><text fill="#000000" font-family="sans-serif" font-size="14" lengthAdjust="spacing" textLength="241.3018" x="512.73" y="622.5214">deviceName : product name [1..1]</text><text fill="#000000" font-family="sans-serif" font-size="14" lengthAdjust="spacing" textLength="336.54" x="512.73" y="638.8182">manufacturer : name of the manufacturer [0..1]</text><text fill="#000000" font-family="sans-serif" font-size="14" lengthAdjust="spacing" textLength="259.7656" x="512.73" y="655.1151">property : additional properties [0..*]</text><text fill="#000000" font-family="sans-serif" font-size="14" lengthAdjust="spacing" textLength="326.8057" x="512.73" y="671.412">url : HDDT FHIR server endpoint address [1..1]</text><line style="stroke:#181818;stroke-width:0.5;" x1="507.73" x2="854.27" y1="678.7138" y2="678.7138"/></g><!--class DM_Def--><g class="entity" data-entity="DM_Def" data-source-line="57" data-uid="ent0014" id="entity_DM_Def"><rect fill="#F1F1F1" height="56.2656" rx="2.5" ry="2.5" style="stroke:#181818;stroke-width:0.5;" width="258.0645" x="923.97" y="763.7069"/><ellipse cx="938.97" cy="783.8397" fill="#ADD1B2" rx="11" ry="11" style="stroke:#181818;stroke-width:1;"/><path d="M941.9388,789.4803 Q941.3606,789.7772 940.72,789.9178 Q940.0794,790.0741 939.3763,790.0741 Q936.8763,790.0741 935.5481,788.4334 Q934.2356,786.7772 934.2356,783.6522 Q934.2356,780.5272 935.5481,778.8709 Q936.8763,777.2147 939.3763,777.2147 Q940.0794,777.2147 940.72,777.3709 Q941.3763,777.5272 941.9388,777.8241 L941.9388,780.5428 Q941.3138,779.9647 940.72,779.6991 Q940.1263,779.4178 939.5013,779.4178 Q938.1575,779.4178 937.47,780.4959 Q936.7825,781.5584 936.7825,783.6522 Q936.7825,785.7459 937.47,786.8241 Q938.1575,787.8866 939.5013,787.8866 Q940.1263,787.8866 940.72,787.6209 Q941.3138,787.3397 941.9388,786.7616 L941.9388,789.4803 Z " fill="#000000"/><text fill="#000000" font-family="sans-serif" font-size="12" font-style="italic" lengthAdjust="spacing" textLength="145.4473" x="993.2786" y="779.8455">&#171;FHIR DeviceDefinition&#187;</text><text fill="#000000" font-family="sans-serif" font-size="14" lengthAdjust="spacing" textLength="226.0645" x="952.97" y="795.6707">Device Data Recorder Definition</text><line style="stroke:#181818;stroke-width:0.5;" x1="924.97" x2="1181.0345" y1="803.9725" y2="803.9725"/><line style="stroke:#181818;stroke-width:0.5;" x1="924.97" x2="1181.0345" y1="811.9725" y2="811.9725"/></g><!--class MIV--><g class="entity" data-entity="MIV" data-source-line="66" data-uid="ent0020" id="entity_MIV"><rect fill="#F1F1F1" height="145.7813" rx="2.5" ry="2.5" style="stroke:#181818;stroke-width:0.5;" width="419.1348" x="1102.43" y="282.7469"/><ellipse cx="1294.8548" cy="298.7469" fill="#EB937F" rx="11" ry="11" style="stroke:#181818;stroke-width:1;"/><path d="M1298.9642,304.7469 L1291.2454,304.7469 L1291.2454,292.3562 L1298.9642,292.3562 L1298.9642,294.5125 L1293.6986,294.5125 L1293.6986,297.1844 L1298.4642,297.1844 L1298.4642,299.3406 L1293.6986,299.3406 L1293.6986,302.5906 L1298.9642,302.5906 L1298.9642,304.7469 Z " fill="#000000"/><text fill="#000000" font-family="sans-serif" font-size="14" lengthAdjust="spacing" textLength="25.7852" x="1315.3548" y="303.5936">MIV</text><line style="stroke:#181818;stroke-width:0.5;" x1="1103.43" x2="1520.5648" y1="314.7469" y2="314.7469"/><text fill="#000000" font-family="sans-serif" font-size="14" lengthAdjust="spacing" textLength="254.4541" x="1108.43" y="331.742">url : canonical URL for the MIV [1..1]</text><text fill="#000000" font-family="sans-serif" font-size="14" lengthAdjust="spacing" textLength="233.8643" x="1108.43" y="348.0389">version : version of the MIV [1..1]</text><text fill="#000000" font-family="sans-serif" font-size="14" lengthAdjust="spacing" textLength="309.8457" x="1108.43" y="364.3357">title : human-friendly name of the MIV [1..1]</text><text fill="#000000" font-family="sans-serif" font-size="14" lengthAdjust="spacing" textLength="333.5049" x="1108.43" y="380.6326">name : machine-friendly name of the MIV [0..1]</text><text fill="#000000" font-family="sans-serif" font-size="14" lengthAdjust="spacing" textLength="407.1348" x="1108.43" y="396.9295">description : human-readable description of the MIV [1..1]</text><text fill="#000000" font-family="sans-serif" font-size="14" lengthAdjust="spacing" textLength="326.874" x="1108.43" y="413.2264">compose.include : MIV defining concepts [1..*]</text><line style="stroke:#181818;stroke-width:0.5;" x1="1103.43" x2="1520.5648" y1="420.5281" y2="420.5281"/></g><!--link IV to xor--><g class="link" data-entity-1="IV" data-entity-2="xor" data-source-line="33" data-uid="lnk7" id="link_IV_xor"><path codeLine="33" d="M495.83,140.0269 C548.11,140.0269 590.64,140.0269 610.52,140.0269" fill="none" id="IV-to-xor" style="stroke:#181818;stroke-width:1;"/><polygon fill="#181818" points="616.52,140.0269,607.52,136.0269,611.52,140.0269,607.52,144.0269,616.52,140.0269" style="stroke:#181818;stroke-width:1;"/><text fill="#000000" font-family="sans-serif" font-size="13" lengthAdjust="spacing" textLength="81.7832" x="513.7" y="133.0938">device [1..1]</text></g><!--link xor to Metric--><g class="link" data-entity-1="xor" data-entity-2="Metric" data-source-line="34" data-uid="lnk8" id="link_xor_Metric"><path codeLine="34" d="M616.79,146.0969 C576.86,168.0769 421.4762,253.6334 322.6562,308.0334" fill="none" id="xor-to-Metric" style="stroke:#181818;stroke-width:1;"/><polygon fill="#181818" points="317.4,310.9269,327.2133,310.0907,321.7802,308.5156,323.3553,303.0825,317.4,310.9269" style="stroke:#181818;stroke-width:1;"/></g><!--link xor to PHD--><g class="link" data-entity-1="xor" data-entity-2="PHD" data-source-line="35" data-uid="lnk9" id="link_xor_PHD"><path codeLine="35" d="M630.66,149.3969 C642.57,170.7669 672.1408,223.8449 699.4508,272.8849" fill="none" id="xor-to-PHD" style="stroke:#181818;stroke-width:1;"/><polygon fill="#181818" points="702.37,278.1269,701.4858,268.3178,699.9373,273.7586,694.4965,272.2101,702.37,278.1269" style="stroke:#181818;stroke-width:1;"/></g><!--link Metric to PHD--><g class="link" data-entity-1="Metric" data-entity-2="PHD" data-source-line="36" data-uid="lnk10" id="link_Metric_PHD"><path codeLine="36" d="M453.01,355.6369 C492.15,355.6369 526.53,355.6369 564.33,355.6369" fill="none" id="Metric-to-PHD" style="stroke:#181818;stroke-width:1;"/><polygon fill="#181818" points="570.33,355.6369,561.33,351.6369,565.33,355.6369,561.33,359.6369,570.33,355.6369" style="stroke:#181818;stroke-width:1;"/><text fill="#000000" font-family="sans-serif" font-size="13" lengthAdjust="spacing" textLength="82.5386" x="470.64" y="348.7038">source [1..1]</text></g><!--link PHD to DDR--><g class="link" data-entity-1="PHD" data-entity-2="DDR" data-source-line="61" data-uid="lnk15" id="link_PHD_DDR"><path codeLine="61" d="M725.62,432.9469 C717.64,464.3869 709.887,494.9315 701.897,526.3915" fill="none" id="PHD-to-DDR" style="stroke:#181818;stroke-width:1;"/><polygon fill="#181818" points="700.42,532.2069,706.5123,524.4684,701.6508,527.3607,698.7585,522.4992,700.42,532.2069" style="stroke:#181818;stroke-width:1;"/><text fill="#000000" font-family="sans-serif" font-size="13" lengthAdjust="spacing" textLength="81.98" x="717" y="477.7338">parent [1..1]</text></g><!--reverse link PHD_Def to PHD--><g class="link" data-entity-1="PHD_Def" data-entity-2="PHD" data-source-line="62" data-uid="lnk17" id="link_PHD_Def_PHD"><path codeLine="62" d="M1009.0167,545.1507 C960.4667,510.4907 903.82,470.0369 851.87,432.9469" fill="none" id="PHD_Def-backto-PHD" style="stroke:#181818;stroke-width:1;"/><polygon fill="#181818" points="1013.9,548.6369,1008.8992,540.1521,1009.8306,545.7317,1004.2509,546.6631,1013.9,548.6369" style="stroke:#181818;stroke-width:1;"/><text fill="#000000" font-family="sans-serif" font-size="13" lengthAdjust="spacing" textLength="100.2739" x="911" y="477.7338">definition [1..1]</text></g><!--link DDR to DM_Def--><g class="link" data-entity-1="DDR" data-entity-2="DM_Def" data-source-line="63" data-uid="lnk18" id="link_DDR_DM_Def"><path codeLine="63" d="M838.76,687.0869 C894.6,714.1369 948.5197,740.2522 990.5497,760.6022" fill="none" id="DDR-to-DM_Def" style="stroke:#181818;stroke-width:1;"/><polygon fill="#181818" points="995.95,763.2169,989.5927,755.6946,991.4497,761.038,986.1064,762.895,995.95,763.2169" style="stroke:#181818;stroke-width:1;"/><text fill="#000000" font-family="sans-serif" font-size="13" lengthAdjust="spacing" textLength="100.2739" x="933" y="729.7738">definition [1..1]</text></g><!--reverse link MIV to PHD_Def--><g class="link" data-entity-1="MIV" data-entity-2="PHD_Def" data-source-line="79" data-uid="lnk22" id="link_MIV_PHD_Def"><path codeLine="79" d="M1246.7965,433.4406 C1214.5565,471.4106 1179.4,512.8169 1148.86,548.7869" fill="none" id="MIV-backto-PHD_Def" style="stroke:#181818;stroke-width:1;"/><polygon fill="#181818" points="1250.68,428.8669,1241.8057,433.1384,1247.4438,432.6783,1247.9039,438.3164,1250.68,428.8669" style="stroke:#181818;stroke-width:1;"/><text fill="#000000" font-family="sans-serif" font-size="13" lengthAdjust="spacing" textLength="100.5215" x="1218" y="477.7338">capability [1..*]</text></g><!--reverse link MIV to DM_Def--><g class="link" data-entity-1="MIV" data-entity-2="DM_Def" data-source-line="80" data-uid="lnk24" id="link_MIV_DM_Def"><path codeLine="80" d="M1339.1383,434.476 C1359.7183,506.506 1375.8,611.3469 1323,686.7069 C1290.64,732.8969 1234.75,758.6069 1182.18,772.9069" fill="none" id="MIV-backto-DM_Def" style="stroke:#181818;stroke-width:1;"/><polygon fill="#181818" points="1337.49,428.7069,1336.1164,438.4595,1338.8636,433.5145,1343.8086,436.2617,1337.49,428.7069" style="stroke:#181818;stroke-width:1;"/><text fill="#000000" font-family="sans-serif" font-size="13" lengthAdjust="spacing" textLength="100.5215" x="1358" y="614.2538">capability [1..*]</text></g><!--SRC=[pLPjRzis4FwkNt5LFZGfuCnEkXOGiW2EPIy6fhImdGnOCGIqHDb4PL8bgQn6bl_Uur6MRI5Ekm439Y2nHDuzl7lkZQyodWl98UdVt8xwWzdjP3Y1eq4yx8v6mQjwysvyzJiSlH_6vsUzPl5gr9yaS3JwkV_kx3m8hB05X-iudi7eUZo1c5a6YSfu0SS9pqJA2kYBp02J6OnNPS6aDIU1-InaoJHRGSdIpsp1ftQDE9gdbib5mOEWNYVe-uGpKsc-ugXyZqZtCNyGAKTK0w5_zoTFUAfqXdunMUKijQYamtql7mF0X_wb1JC6ndS4CvQMQrLopUPeoHqhAXx2nGLvzM5kk7vWLYXvULaZkCTOPYi3qUP5vM2N75RUt0mU70fywfsUzlvib59a1rNeS94ZGmxsnrGpPfqg_IWDQAnGMKlLaTJMys0HgCgcQiM_e_4KxB2JSAj5IWnDkJHuwcnTSWhdW1LYhhtvKoAW8Sp7nElkCMQTSWGOVhBR6zOuFL-JNSOVrEPjUzofuzlXVAbmqQu1uHoHg9JZtuvVvg1Z7wzZykeZrqP9JDDhpWgxh4rlUVAS3okMBh4YEfgpZ78cyudejhSHexKRjd8QfLPPbLgGxhFbtMedOr6KH3PXsjtwrDrJmxmKhBYfLdDIyvyW_NVh2Fwr59w_sBF7VH0AaNEVKotmake1wOs0PPbmcWXUhmeiFoV_Pe_RunC87xyg_HGwSl75BsEDTIxT9qA5DK_UEWX9m6rrKAHEjxqr5obQg3Vh9KGogj8DKXWyGQjlJFX26DHfTGhNoSWR0yVKkdRbB5pbsE9EmhhLFRQI1djF_aBYxA2tScYxyL95rEHSN4m7CrVZu-c7dyR3uH1wlUxxSseUgDxk2_znblsBHF1ynV7aK8_MtosnN-3jkxEpjrry_dPij7nfcYyrxTgcUl5_p8zxAbsWw7Pgkkc2g5YFfHBOZ154StEuTyL9auNFCVkFSl0fG6XNJwxKNBomhd0qRsT2w7SBdbjVUNGsrV46h95q-eIJl23KrEWViodva61xs2lANxb6kc60HcWaSeQVGgf2BTOm9QgmEkbsubtWsE_0WJos64wPL9Bk8BUJtsWqk4WwoVQ0n5fs9aRDMntrPsJzbIU2POKsTdBi6Z8hrdkvyeoMzCct6Hg7rRgjp3Mf5gNrnlaZTmRETlFmoJZnIsNugP1fKT7LmmdvkCW5RikKb_MWR6eOS-Br-2wAwB92ZHbrC9mrI0P_2RiCWzU-9KSH5UnXkM2JDfsgt0gbh6HpGGFS7uu9bFo8s3S0]--></g></svg>