<svg xmlns="http://www.w3.org/2000/svg" xmlns:xlink="http://www.w3.org/1999/xlink" contentStyleType="text/css" data-diagram-type="CLASS" height="949px" preserveAspectRatio="none" style="width:1926px;height:949px;background:#FFFFFF;" version="1.1" viewBox="0 0 1926 949" width="1926px" zoomAndPan="magnify"><title>HDDT FHIR Data Model</title><defs/><g><g class="title" data-source-line="5"><text fill="#000000" font-family="sans-serif" font-size="14" font-weight="bold" lengthAdjust="spacing" textLength="181.4736" x="865.5982" y="22.9951">HDDT FHIR Data Model</text></g><!--cluster HDDT_Measurements_and_Devices--><g class="cluster" data-entity="HDDT_Measurements_and_Devices" data-source-line="8" data-uid="ent0002" id="cluster_HDDT_Measurements_and_Devices"><rect fill="#CDE0FF" height="630.2" rx="2.5" ry="2.5" style="stroke:#181818;stroke-width:1;" width="944" x="81.67" y="44.2969"/><text fill="#000000" font-family="sans-serif" font-size="14" font-weight="bold" lengthAdjust="spacing" textLength="217" x="442.733" y="59.292">Measurements and Devices</text><text fill="#000000" font-family="sans-serif" font-size="14" font-weight="bold" lengthAdjust="spacing" textLength="516.0791" x="295.6304" y="75.5889">(implemented by the manufacturer; accessible via the HDDT API)</text></g><!--cluster HDDT_Registries--><g class="cluster" data-entity="HDDT_Registries" data-source-line="45" data-uid="ent0011" id="cluster_HDDT_Registries"><rect fill="#F5A623" height="440.98" rx="2.5" ry="2.5" style="stroke:#181818;stroke-width:1;" width="831" x="1089.67" y="502.0469"/><text fill="#000000" font-family="sans-serif" font-size="14" font-weight="bold" lengthAdjust="spacing" textLength="368.792" x="1320.774" y="517.042">Device Definitions (HDDT Registries at BfARM)</text></g><!--class IV--><g class="entity" data-entity="IV" data-source-line="10" data-uid="ent0003" id="entity_IV"><rect fill="#F1F1F1" height="121.4531" rx="2.5" ry="2.5" style="stroke:#181818;stroke-width:0.5;" width="354.7881" x="159.67" y="99.2969"/><ellipse cx="263.4976" cy="119.4297" fill="#ADD1B2" rx="11" ry="11" style="stroke:#181818;stroke-width:1;"/><path d="M266.4664,125.0703 Q265.8883,125.3672 265.2476,125.5078 Q264.607,125.6641 263.9039,125.6641 Q261.4039,125.6641 260.0758,124.0234 Q258.7633,122.3672 258.7633,119.2422 Q258.7633,116.1172 260.0758,114.4609 Q261.4039,112.8047 263.9039,112.8047 Q264.607,112.8047 265.2476,112.9609 Q265.9039,113.1172 266.4664,113.4141 L266.4664,116.1328 Q265.8414,115.5547 265.2476,115.2891 Q264.6539,115.0078 264.0289,115.0078 Q262.6851,115.0078 261.9976,116.0859 Q261.3101,117.1484 261.3101,119.2422 Q261.3101,121.3359 261.9976,122.4141 Q262.6851,123.4766 264.0289,123.4766 Q264.6539,123.4766 265.2476,123.2109 Q265.8414,122.9297 266.4664,122.3516 L266.4664,125.0703 Z " fill="#000000"/><text fill="#000000" font-family="sans-serif" font-size="12" font-style="italic" lengthAdjust="spacing" textLength="119.373" x="293.6275" y="115.4355">&#171;FHIR Observation&#187;</text><text fill="#000000" font-family="sans-serif" font-size="14" lengthAdjust="spacing" textLength="138.6328" x="283.9976" y="131.2607">Interoperable Value</text><line style="stroke:#181818;stroke-width:0.5;" x1="160.67" x2="513.4581" y1="139.5625" y2="139.5625"/><text fill="#000000" font-family="sans-serif" font-size="14" lengthAdjust="spacing" textLength="304.5068" x="165.67" y="156.5576">status : status of the measured value [1..1]</text><text fill="#000000" font-family="sans-serif" font-size="14" lengthAdjust="spacing" textLength="342.7881" x="165.67" y="172.8545">code : classification of the measured value [1..1]</text><text fill="#000000" font-family="sans-serif" font-size="14" lengthAdjust="spacing" textLength="334.4619" x="165.67" y="189.1514">date : date or period of the measurement [1..1]</text><text fill="#000000" font-family="sans-serif" font-size="14" lengthAdjust="spacing" textLength="303.1875" x="165.67" y="205.4482">value : outcome of the measurement [1..1]</text><line style="stroke:#181818;stroke-width:0.5;" x1="160.67" x2="513.4581" y1="212.75" y2="212.75"/></g><!--class Metric--><g class="entity" data-entity="Metric" data-source-line="17" data-uid="ent0004" id="entity_Metric"><rect fill="#F1F1F1" height="105.1563" rx="2.5" ry="2.5" style="stroke:#181818;stroke-width:0.5;" width="429.1084" x="106.17" y="317.6669"/><ellipse cx="192.8497" cy="337.7997" fill="#ADD1B2" rx="11" ry="11" style="stroke:#181818;stroke-width:1;"/><path d="M195.8184,343.4403 Q195.2403,343.7372 194.5997,343.8778 Q193.9591,344.0341 193.2559,344.0341 Q190.7559,344.0341 189.4278,342.3934 Q188.1153,340.7372 188.1153,337.6122 Q188.1153,334.4872 189.4278,332.8309 Q190.7559,331.1747 193.2559,331.1747 Q193.9591,331.1747 194.5997,331.3309 Q195.2559,331.4872 195.8184,331.7841 L195.8184,334.5028 Q195.1934,333.9247 194.5997,333.6591 Q194.0059,333.3778 193.3809,333.3778 Q192.0372,333.3778 191.3497,334.4559 Q190.6622,335.5184 190.6622,337.6122 Q190.6622,339.7059 191.3497,340.7841 Q192.0372,341.8466 193.3809,341.8466 Q194.0059,341.8466 194.5997,341.5809 Q195.1934,341.2997 195.8184,340.7216 L195.8184,343.4403 Z " fill="#000000"/><text fill="#000000" font-family="sans-serif" font-size="12" font-style="italic" lengthAdjust="spacing" textLength="124.6465" x="274.651" y="333.8055">&#171;FHIR DeviceMetric&#187;</text><text fill="#000000" font-family="sans-serif" font-size="14" lengthAdjust="spacing" textLength="247.249" x="213.3497" y="349.6307">Sensor Type and Calibration Status</text><line style="stroke:#181818;stroke-width:0.5;" x1="107.17" x2="534.2784" y1="357.9325" y2="357.9325"/><text fill="#000000" font-family="sans-serif" font-size="14" lengthAdjust="spacing" textLength="351.9688" x="112.17" y="374.9276">type : kind of value measured by the sensor [1..1]</text><text fill="#000000" font-family="sans-serif" font-size="14" lengthAdjust="spacing" textLength="230.3301" x="112.17" y="391.2245">unit : unit of measurement [0..1]</text><text fill="#000000" font-family="sans-serif" font-size="14" lengthAdjust="spacing" textLength="417.1084" x="112.17" y="407.5214">calibration.state : quality indicator for measurements [0..1]</text><line style="stroke:#181818;stroke-width:0.5;" x1="107.17" x2="534.2784" y1="414.8231" y2="414.8231"/></g><!--class PHD--><g class="entity" data-entity="PHD" data-source-line="25" data-uid="ent0006" id="entity_PHD"><rect fill="#F1F1F1" height="137.75" rx="2.5" ry="2.5" style="stroke:#181818;stroke-width:0.5;" width="348.54" x="661.4" y="301.2969"/><ellipse cx="750.0382" cy="321.4297" fill="#ADD1B2" rx="11" ry="11" style="stroke:#181818;stroke-width:1;"/><path d="M753.0069,327.0703 Q752.4288,327.3672 751.7882,327.5078 Q751.1476,327.6641 750.4444,327.6641 Q747.9444,327.6641 746.6163,326.0234 Q745.3038,324.3672 745.3038,321.2422 Q745.3038,318.1172 746.6163,316.4609 Q747.9444,314.8047 750.4444,314.8047 Q751.1476,314.8047 751.7882,314.9609 Q752.4444,315.1172 753.0069,315.4141 L753.0069,318.1328 Q752.3819,317.5547 751.7882,317.2891 Q751.1944,317.0078 750.5694,317.0078 Q749.2257,317.0078 748.5382,318.0859 Q747.8507,319.1484 747.8507,321.2422 Q747.8507,323.3359 748.5382,324.4141 Q749.2257,325.4766 750.5694,325.4766 Q751.1944,325.4766 751.7882,325.2109 Q752.3819,324.9297 753.0069,324.3516 L753.0069,327.0703 Z " fill="#000000"/><text fill="#000000" font-family="sans-serif" font-size="12" font-style="italic" lengthAdjust="spacing" textLength="87.3398" x="808.2501" y="317.4355">&#171;FHIR Device&#187;</text><text fill="#000000" font-family="sans-serif" font-size="14" lengthAdjust="spacing" textLength="162.7637" x="770.5382" y="333.2607">Personal Health Device</text><line style="stroke:#181818;stroke-width:0.5;" x1="662.4" x2="1008.94" y1="341.5625" y2="341.5625"/><text fill="#000000" font-family="sans-serif" font-size="14" lengthAdjust="spacing" textLength="241.3018" x="667.4" y="358.5576">deviceName : product name [1..1]</text><text fill="#000000" font-family="sans-serif" font-size="14" lengthAdjust="spacing" textLength="336.54" x="667.4" y="374.8545">manufacturer : name of the manufacturer [0..1]</text><text fill="#000000" font-family="sans-serif" font-size="14" lengthAdjust="spacing" textLength="247.0781" x="667.4" y="391.1514">serialNumber : serial number [1..1]</text><text fill="#000000" font-family="sans-serif" font-size="14" lengthAdjust="spacing" textLength="266.1025" x="667.4" y="407.4482">expirationDate : end of life date [0..1]</text><text fill="#000000" font-family="sans-serif" font-size="14" lengthAdjust="spacing" textLength="259.7656" x="667.4" y="423.7451">property : additional properties [0..*]</text><line style="stroke:#181818;stroke-width:0.5;" x1="662.4" x2="1008.94" y1="431.0469" y2="431.0469"/></g><!--class DM--><g class="entity" data-entity="DM" data-source-line="33" data-uid="ent0007" id="entity_DM"><rect fill="#F1F1F1" height="121.4531" rx="2.5" ry="2.5" style="stroke:#181818;stroke-width:0.5;" width="348.54" x="620.4" y="537.0469"/><ellipse cx="713.5089" cy="557.1797" fill="#ADD1B2" rx="11" ry="11" style="stroke:#181818;stroke-width:1;"/><path d="M716.4776,562.8203 Q715.8995,563.1172 715.2589,563.2578 Q714.6183,563.4141 713.9151,563.4141 Q711.4151,563.4141 710.087,561.7734 Q708.7745,560.1172 708.7745,556.9922 Q708.7745,553.8672 710.087,552.2109 Q711.4151,550.5547 713.9151,550.5547 Q714.6183,550.5547 715.2589,550.7109 Q715.9151,550.8672 716.4776,551.1641 L716.4776,553.8828 Q715.8526,553.3047 715.2589,553.0391 Q714.6651,552.7578 714.0401,552.7578 Q712.6964,552.7578 712.0089,553.8359 Q711.3214,554.8984 711.3214,556.9922 Q711.3214,559.0859 712.0089,560.1641 Q712.6964,561.2266 714.0401,561.2266 Q714.6651,561.2266 715.2589,560.9609 Q715.8526,560.6797 716.4776,560.1016 L716.4776,562.8203 Z " fill="#000000"/><text fill="#000000" font-family="sans-serif" font-size="12" font-style="italic" lengthAdjust="spacing" textLength="87.3398" x="767.2501" y="553.1855">&#171;FHIR Device&#187;</text><text fill="#000000" font-family="sans-serif" font-size="14" lengthAdjust="spacing" textLength="153.8223" x="734.0089" y="569.0107">Device Data Recorder</text><line style="stroke:#181818;stroke-width:0.5;" x1="621.4" x2="967.94" y1="577.3125" y2="577.3125"/><text fill="#000000" font-family="sans-serif" font-size="14" lengthAdjust="spacing" textLength="225.8799" x="626.4" y="594.3076">status : operational status [1..1]</text><text fill="#000000" font-family="sans-serif" font-size="14" lengthAdjust="spacing" textLength="241.3018" x="626.4" y="610.6045">deviceName : product name [1..1]</text><text fill="#000000" font-family="sans-serif" font-size="14" lengthAdjust="spacing" textLength="336.54" x="626.4" y="626.9014">manufacturer : name of the manufacturer [0..1]</text><text fill="#000000" font-family="sans-serif" font-size="14" lengthAdjust="spacing" textLength="259.7656" x="626.4" y="643.1982">property : additional properties [0..*]</text><line style="stroke:#181818;stroke-width:0.5;" x1="621.4" x2="967.94" y1="650.5" y2="650.5"/></g><!--class PHD_Def--><g class="entity" data-entity="PHD_Def" data-source-line="47" data-uid="ent0012" id="entity_PHD_Def"><rect fill="#F1F1F1" height="121.4531" rx="2.5" ry="2.5" style="stroke:#181818;stroke-width:0.5;" width="415.751" x="1488.79" y="537.0469"/><ellipse cx="1558.9882" cy="557.1797" fill="#ADD1B2" rx="11" ry="11" style="stroke:#181818;stroke-width:1;"/><path d="M1561.957,562.8203 Q1561.3789,563.1172 1560.7382,563.2578 Q1560.0976,563.4141 1559.3945,563.4141 Q1556.8945,563.4141 1555.5664,561.7734 Q1554.2539,560.1172 1554.2539,556.9922 Q1554.2539,553.8672 1555.5664,552.2109 Q1556.8945,550.5547 1559.3945,550.5547 Q1560.0976,550.5547 1560.7382,550.7109 Q1561.3945,550.8672 1561.957,551.1641 L1561.957,553.8828 Q1561.332,553.3047 1560.7382,553.0391 Q1560.1445,552.7578 1559.5195,552.7578 Q1558.1757,552.7578 1557.4882,553.8359 Q1556.8007,554.8984 1556.8007,556.9922 Q1556.8007,559.0859 1557.4882,560.1641 Q1558.1757,561.2266 1559.5195,561.2266 Q1560.1445,561.2266 1560.7382,560.9609 Q1561.332,560.6797 1561.957,560.1016 L1561.957,562.8203 Z " fill="#000000"/><text fill="#000000" font-family="sans-serif" font-size="12" font-style="italic" lengthAdjust="spacing" textLength="145.4473" x="1640.1919" y="553.1855">&#171;FHIR DeviceDefinition&#187;</text><text fill="#000000" font-family="sans-serif" font-size="14" lengthAdjust="spacing" textLength="266.8545" x="1579.4882" y="569.0107">Personal Health Device Registry Entry</text><line style="stroke:#181818;stroke-width:0.5;" x1="1489.79" x2="1903.541" y1="577.3125" y2="577.3125"/><text fill="#000000" font-family="sans-serif" font-size="14" lengthAdjust="spacing" textLength="403.751" x="1494.79" y="594.3076">type : kind of device &#171;SCT or ISO/IEEE 11073 code&#187; [1..1]</text><text fill="#000000" font-family="sans-serif" font-size="14" lengthAdjust="spacing" textLength="241.3018" x="1494.79" y="610.6045">deviceName : product name [1..1]</text><text fill="#000000" font-family="sans-serif" font-size="14" lengthAdjust="spacing" textLength="336.54" x="1494.79" y="626.9014">manufacturer : name of the manufacturer [0..1]</text><text fill="#000000" font-family="sans-serif" font-size="14" lengthAdjust="spacing" textLength="259.7656" x="1494.79" y="643.1982">property : additional properties [0..*]</text><line style="stroke:#181818;stroke-width:0.5;" x1="1489.79" x2="1903.541" y1="650.5" y2="650.5"/></g><!--class DM_Def--><g class="entity" data-entity="DM_Def" data-source-line="54" data-uid="ent0013" id="entity_DM_Def"><rect fill="#F1F1F1" height="121.4531" rx="2.5" ry="2.5" style="stroke:#181818;stroke-width:0.5;" width="348.54" x="1105.4" y="537.0469"/><ellipse cx="1146.7821" cy="557.1797" fill="#ADD1B2" rx="11" ry="11" style="stroke:#181818;stroke-width:1;"/><path d="M1149.7509,562.8203 Q1149.1728,563.1172 1148.5321,563.2578 Q1147.8915,563.4141 1147.1884,563.4141 Q1144.6884,563.4141 1143.3603,561.7734 Q1142.0478,560.1172 1142.0478,556.9922 Q1142.0478,553.8672 1143.3603,552.2109 Q1144.6884,550.5547 1147.1884,550.5547 Q1147.8915,550.5547 1148.5321,550.7109 Q1149.1884,550.8672 1149.7509,551.1641 L1149.7509,553.8828 Q1149.1259,553.3047 1148.5321,553.0391 Q1147.9384,552.7578 1147.3134,552.7578 Q1145.9696,552.7578 1145.2821,553.8359 Q1144.5946,554.8984 1144.5946,556.9922 Q1144.5946,559.0859 1145.2821,560.1641 Q1145.9696,561.2266 1147.3134,561.2266 Q1147.9384,561.2266 1148.5321,560.9609 Q1149.1259,560.6797 1149.7509,560.1016 L1149.7509,562.8203 Z " fill="#000000"/><text fill="#000000" font-family="sans-serif" font-size="12" font-style="italic" lengthAdjust="spacing" textLength="145.4473" x="1222.8777" y="553.1855">&#171;FHIR DeviceDefinition&#187;</text><text fill="#000000" font-family="sans-serif" font-size="14" lengthAdjust="spacing" textLength="257.9131" x="1166.6448" y="569.0107">Device Data Recorder Registry Entry</text><line style="stroke:#181818;stroke-width:0.5;" x1="1106.4" x2="1452.94" y1="577.3125" y2="577.3125"/><text fill="#000000" font-family="sans-serif" font-size="14" lengthAdjust="spacing" textLength="206.0898" x="1111.4" y="594.3076">type = 462240000|SCT [1..1]</text><text fill="#000000" font-family="sans-serif" font-size="14" lengthAdjust="spacing" textLength="310.5156" x="1111.4" y="610.6045">deviceName : name of the aggregator [1..1]</text><text fill="#000000" font-family="sans-serif" font-size="14" lengthAdjust="spacing" textLength="336.54" x="1111.4" y="626.9014">manufacturer : name of the manufacturer [0..1]</text><text fill="#000000" font-family="sans-serif" font-size="14" lengthAdjust="spacing" textLength="259.7656" x="1111.4" y="643.1982">property : additional properties [0..*]</text><line style="stroke:#181818;stroke-width:0.5;" x1="1106.4" x2="1452.94" y1="650.5" y2="650.5"/></g><!--class DM_Org--><g class="entity" data-entity="DM_Org" data-source-line="61" data-uid="ent0014" id="entity_DM_Org"><rect fill="#F1F1F1" height="56.2656" rx="2.5" ry="2.5" style="stroke:#181818;stroke-width:0.5;" width="280.0215" x="1139.65" y="737.4969"/><ellipse cx="1154.65" cy="757.6297" fill="#ADD1B2" rx="11" ry="11" style="stroke:#181818;stroke-width:1;"/><path d="M1157.6187,763.2703 Q1157.0406,763.5672 1156.4,763.7078 Q1155.7594,763.8641 1155.0562,763.8641 Q1152.5562,763.8641 1151.2281,762.2234 Q1149.9156,760.5672 1149.9156,757.4422 Q1149.9156,754.3172 1151.2281,752.6609 Q1152.5562,751.0047 1155.0562,751.0047 Q1155.7594,751.0047 1156.4,751.1609 Q1157.0562,751.3172 1157.6187,751.6141 L1157.6187,754.3328 Q1156.9937,753.7547 1156.4,753.4891 Q1155.8062,753.2078 1155.1812,753.2078 Q1153.8375,753.2078 1153.15,754.2859 Q1152.4625,755.3484 1152.4625,757.4422 Q1152.4625,759.5359 1153.15,760.6141 Q1153.8375,761.6766 1155.1812,761.6766 Q1155.8062,761.6766 1156.4,761.4109 Q1156.9937,761.1297 1157.6187,760.5516 L1157.6187,763.2703 Z " fill="#000000"/><text fill="#000000" font-family="sans-serif" font-size="12" font-style="italic" lengthAdjust="spacing" textLength="123.2285" x="1231.0465" y="753.6355">&#171;FHIR Organization&#187;</text><text fill="#000000" font-family="sans-serif" font-size="14" lengthAdjust="spacing" textLength="248.0215" x="1168.65" y="769.4607">Device Data Recorder Organization</text><line style="stroke:#181818;stroke-width:0.5;" x1="1140.65" x2="1418.6715" y1="777.7625" y2="777.7625"/><line style="stroke:#181818;stroke-width:0.5;" x1="1140.65" x2="1418.6715" y1="785.7625" y2="785.7625"/></g><!--class EP_FHIR--><g class="entity" data-entity="EP_FHIR" data-source-line="63" data-uid="ent0015" id="entity_EP_FHIR"><rect fill="#F1F1F1" height="56.2656" rx="2.5" ry="2.5" style="stroke:#181818;stroke-width:0.5;" width="289.4688" x="1119.93" y="870.7569"/><ellipse cx="1134.93" cy="890.8897" fill="#ADD1B2" rx="11" ry="11" style="stroke:#181818;stroke-width:1;"/><path d="M1137.8987,896.5303 Q1137.3206,896.8272 1136.68,896.9678 Q1136.0394,897.1241 1135.3362,897.1241 Q1132.8362,897.1241 1131.5081,895.4834 Q1130.1956,893.8272 1130.1956,890.7022 Q1130.1956,887.5772 1131.5081,885.9209 Q1132.8362,884.2647 1135.3362,884.2647 Q1136.0394,884.2647 1136.68,884.4209 Q1137.3362,884.5772 1137.8987,884.8741 L1137.8987,887.5928 Q1137.2737,887.0147 1136.68,886.7491 Q1136.0862,886.4678 1135.4612,886.4678 Q1134.1175,886.4678 1133.43,887.5459 Q1132.7425,888.6084 1132.7425,890.7022 Q1132.7425,892.7959 1133.43,893.8741 Q1134.1175,894.9366 1135.4612,894.9366 Q1136.0862,894.9366 1136.68,894.6709 Q1137.2737,894.3897 1137.8987,893.8116 L1137.8987,896.5303 Z " fill="#000000"/><text fill="#000000" font-family="sans-serif" font-size="12" font-style="italic" lengthAdjust="spacing" textLength="99.709" x="1227.8099" y="886.8955">&#171;FHIR Endpoint&#187;</text><text fill="#000000" font-family="sans-serif" font-size="14" lengthAdjust="spacing" textLength="257.4688" x="1148.93" y="902.7207">Device Data Recorder FHIR Endpoint</text><line style="stroke:#181818;stroke-width:0.5;" x1="1120.93" x2="1408.3987" y1="911.0225" y2="911.0225"/><line style="stroke:#181818;stroke-width:0.5;" x1="1120.93" x2="1408.3987" y1="919.0225" y2="919.0225"/></g><!--class EP_OAuth--><g class="entity" data-entity="EP_OAuth" data-source-line="65" data-uid="ent0016" id="entity_EP_OAuth"><rect fill="#F1F1F1" height="56.2656" rx="2.5" ry="2.5" style="stroke:#181818;stroke-width:0.5;" width="300.8643" x="1444.23" y="870.7569"/><ellipse cx="1459.23" cy="890.8897" fill="#ADD1B2" rx="11" ry="11" style="stroke:#181818;stroke-width:1;"/><path d="M1462.1988,896.5303 Q1461.6206,896.8272 1460.98,896.9678 Q1460.3394,897.1241 1459.6363,897.1241 Q1457.1363,897.1241 1455.8081,895.4834 Q1454.4956,893.8272 1454.4956,890.7022 Q1454.4956,887.5772 1455.8081,885.9209 Q1457.1363,884.2647 1459.6363,884.2647 Q1460.3394,884.2647 1460.98,884.4209 Q1461.6363,884.5772 1462.1988,884.8741 L1462.1988,887.5928 Q1461.5738,887.0147 1460.98,886.7491 Q1460.3863,886.4678 1459.7613,886.4678 Q1458.4175,886.4678 1457.73,887.5459 Q1457.0425,888.6084 1457.0425,890.7022 Q1457.0425,892.7959 1457.73,893.8741 Q1458.4175,894.9366 1459.7613,894.9366 Q1460.3863,894.9366 1460.98,894.6709 Q1461.5738,894.3897 1462.1988,893.8116 L1462.1988,896.5303 Z " fill="#000000"/><text fill="#000000" font-family="sans-serif" font-size="12" font-style="italic" lengthAdjust="spacing" textLength="99.709" x="1557.8076" y="886.8955">&#171;FHIR Endpoint&#187;</text><text fill="#000000" font-family="sans-serif" font-size="14" lengthAdjust="spacing" textLength="268.8643" x="1473.23" y="902.7207">Device Data Recorder OAuth Endpoint</text><line style="stroke:#181818;stroke-width:0.5;" x1="1445.23" x2="1744.0943" y1="911.0225" y2="911.0225"/><line style="stroke:#181818;stroke-width:0.5;" x1="1445.23" x2="1744.0943" y1="919.0225" y2="919.0225"/></g><!--link IV to Metric--><g class="link" data-entity-1="IV" data-entity-2="Metric" data-source-line="23" data-uid="lnk5" id="link_IV_Metric"><path codeLine="23" d="M158.67,167.7969 C66,167.7969 6,369.1669 98.67,369.1669" fill="none" id="IV-to-Metric" style="stroke:#181818;stroke-width:1;"/><polygon fill="#181818" points="104.67,369.1669,95.67,365.1669,99.67,369.1669,95.67,373.1669,104.67,369.1669" style="stroke:#181818;stroke-width:1;"/><text fill="#000000" font-family="sans-serif" font-size="13" lengthAdjust="spacing" textLength="97.2144" x="66.67" y="267.3638">corresponds to</text></g><!--link IV to Metric--><g class="link" data-entity-1="IV" data-entity-2="Metric" data-source-line="40" data-uid="lnk8" id="link_IV_Metric"><path codeLine="40" d="M331.8,224.1569 C329.6,252.7769 327.4898,280.2945 325.3698,307.8745" fill="none" id="IV-to-Metric-1" style="stroke:#181818;stroke-width:1;"/><polygon fill="#181818" points="324.91,313.8569,329.588,305.1899,325.2932,308.8716,321.6115,304.5768,324.91,313.8569" style="stroke:#181818;stroke-width:1;"/><text fill="#000000" font-family="sans-serif" font-size="13" lengthAdjust="spacing" textLength="81.7832" x="329.67" y="267.3638">device [1..1]</text></g><!--link Metric to PHD--><g class="link" data-entity-1="Metric" data-entity-2="PHD" data-source-line="41" data-uid="lnk9" id="link_Metric_PHD"><path codeLine="41" d="M542.81,370.1669 C582.42,370.1669 617.17,370.1669 655.21,370.1669" fill="none" id="Metric-to-PHD" style="stroke:#181818;stroke-width:1;"/><polygon fill="#181818" points="661.21,370.1669,652.21,366.1669,656.21,370.1669,652.21,374.1669,661.21,370.1669" style="stroke:#181818;stroke-width:1;"/><text fill="#000000" font-family="sans-serif" font-size="13" lengthAdjust="spacing" textLength="82.5386" x="561.28" y="363.2338">source [1..1]</text></g><!--link PHD to DM--><g class="link" data-entity-1="PHD" data-entity-2="DM" data-source-line="42" data-uid="lnk10" id="link_PHD_DM"><path codeLine="42" d="M823.25,439.4669 C817.62,470.4669 812.0926,500.8935 806.6526,530.8335" fill="none" id="PHD-to-DM" style="stroke:#181818;stroke-width:1;"/><polygon fill="#181818" points="805.58,536.7369,811.1245,528.5969,806.4738,531.8174,803.2534,527.1668,805.58,536.7369" style="stroke:#181818;stroke-width:1;"/><text fill="#000000" font-family="sans-serif" font-size="13" lengthAdjust="spacing" textLength="81.98" x="817.67" y="482.1138">parent [1..1]</text></g><!--reverse link DM_Def to DM_Org--><g class="link" data-entity-1="DM_Def" data-entity-2="DM_Org" data-source-line="68" data-uid="lnk17" id="link_DM_Def_DM_Org"><path codeLine="68" d="M1279.67,670.6469 C1279.67,697.5569 1279.67,715.9869 1279.67,737.3069" fill="none" id="DM_Def-backto-DM_Org" style="stroke:#181818;stroke-width:1;"/><polygon fill="#181818" points="1279.67,658.6469,1275.67,664.6469,1279.67,670.6469,1283.67,664.6469,1279.67,658.6469" style="stroke:#181818;stroke-width:1;"/><text fill="#000000" font-family="sans-serif" font-size="13" lengthAdjust="spacing" textLength="120.1421" x="1280.67" y="703.5638">organization [1..1]</text></g><!--reverse link DM_Org to EP_FHIR--><g class="link" data-entity-1="DM_Org" data-entity-2="EP_FHIR" data-source-line="69" data-uid="lnk18" id="link_DM_Org_EP_FHIR"><path codeLine="69" d="M1275.1574,806.0693 C1272.5974,828.4693 1270.36,848.0169 1267.81,870.4169" fill="none" id="DM_Org-backto-EP_FHIR" style="stroke:#181818;stroke-width:1;"/><polygon fill="#181818" points="1276.52,794.1469,1271.8646,799.6539,1275.1574,806.0693,1279.8129,800.5623,1276.52,794.1469" style="stroke:#181818;stroke-width:1;"/><text fill="#000000" font-family="sans-serif" font-size="13" lengthAdjust="spacing" textLength="94.9546" x="1273.67" y="836.8238">endpoint [1..*]</text></g><!--reverse link DM_Org to EP_OAuth--><g class="link" data-entity-1="DM_Org" data-entity-2="EP_OAuth" data-source-line="70" data-uid="lnk19" id="link_DM_Org_EP_OAuth"><path codeLine="70" d="M1356.7771,798.7618 C1410.4471,821.1218 1474.73,847.9169 1528.45,870.2969" fill="none" id="DM_Org-backto-EP_OAuth" style="stroke:#181818;stroke-width:1;"/><polygon fill="#181818" points="1345.7,794.1469,1349.7002,800.1467,1356.7771,798.7618,1352.7769,792.762,1345.7,794.1469" style="stroke:#181818;stroke-width:1;"/><text fill="#000000" font-family="sans-serif" font-size="13" lengthAdjust="spacing" textLength="94.9546" x="1456.67" y="836.8238">endpoint [1..*]</text></g><!--link DM to DM_Def--><g class="link" data-entity-1="DM" data-entity-2="DM_Def" data-source-line="73" data-uid="lnk20" id="link_DM_DM_Def"><path codeLine="73" d="M969.42,597.7669 C1013.53,597.7669 1054.89,597.7669 1099,597.7669" fill="none" id="DM-to-DM_Def" style="stroke:#181818;stroke-width:1;"/><polygon fill="#181818" points="1105,597.7669,1096,593.7669,1100,597.7669,1096,601.7669,1105,597.7669" style="stroke:#181818;stroke-width:1;"/><text fill="#000000" font-family="sans-serif" font-size="13" lengthAdjust="spacing" textLength="100.2739" x="987.17" y="590.8338">definition [1..1]</text></g><!--link PHD to PHD_Def--><g class="link" data-entity-1="PHD" data-entity-2="PHD_Def" data-source-line="74" data-uid="lnk21" id="link_PHD_PHD_Def"><path codeLine="74" d="M1010.19,393.4669 C1139.57,412.7369 1319.16,445.2669 1471.67,494.0469 C1507.35,505.4569 1539.3964,518.5252 1573.3164,534.0852" fill="none" id="PHD-to-PHD_Def" style="stroke:#181818;stroke-width:1;"/><polygon fill="#181818" points="1578.77,536.5869,1572.2574,529.1986,1574.2254,534.5021,1568.9218,536.47,1578.77,536.5869" style="stroke:#181818;stroke-width:1;"/><text fill="#000000" font-family="sans-serif" font-size="13" lengthAdjust="spacing" textLength="100.2739" x="1438.67" y="482.1138">definition [1..1]</text></g><!--SRC=[pPNVJzj84CVV_LTCmqkB14UWrqevYXIm8_8GG0cb3xqJsjYJT5LdxTjTe-Pw_EytExjs72jmLQMgjKI2TxxpOpyxEtcHuK8gXCdmwlreU77xVffCOUyYJev6e-X5CDwDpp_0tjiaFZdkDulde-5q0dkZtuTlZa-Yo4gR8rp6yIsCBiTJY8KLC2aop2FpMQfIQB62KgIVnH9dTarQZQaLQfbZ58LrTh-Ve32LnXKgQ-w5okvZV90f6X06UcqZa15guv_gfLoLELimW_aQx2U4bL3LGgIMNFGV859I6Zcdv0zIi80B7jwCN_Ms27oDW1x-I7DX38plEFsOWkkYH2rSa3kHLzY3qrFUyVNSe7uGLXRgx2n4S8-nmbO61lK_nSANvdUImOEB0X_xXuVzlngdbCYH2oUN2vbos6zppOHrhlnLQA1YPP5rN1sbhfyFDe2Yiccnml_nU8nQT2PejKoPq0oLeQotwnBvV2v4BkVQbpzZ00qmVtJUTukOTSu3eBRXkdrXpQR3qHgVgBE9IabBhln5hbl57sqJtXHsw4x6PVoxeaMx1ahia5Fu1VsjsZtNYX8GZEy60pwkWuEpG68m25lefONMQCf2PGPiqMj3kxcCcTWDQbCeaSCbYjn-2bWwbBRuPBnq9LOkHQcBh4ejAFVQeT5kVvAof3xMjgc3XlfOYlogMitPpR-2yk-T5FYbb9vYx1cYFxHSBj3tO2TuoVU780z0P9bqdXGyh4hqXFTtD5ayOLoUXvylKoI-6UhdO3NNZwzjI1SMkpVd1tFzZgtJtDcqbMieNsCe27ei2bRIkPuYaIagtOYynbbS9A980Xh7c_lSYnux8tYAIsaePXYwDN8t-Bbg0ozvSBPr5iuNz8lmgXT-6RvsUft6-EAPVgzZhI5HzDavqKtgvmP5O7DwEhkuTQDlFBl-RPma2VJxHszFUAQI-wz_w7M_DyXszVpt0ti7hzyS7xy-ekTVH-ev8ErTYkLIuvB7uiz7SwsNJwCXer3o7xxjcz_drc83vR4LDRcvP-6JOTcQgAmifB9Dt7hXgPZNmugw_EbQsVmjKVahTCN-mK5DWQvpqThQrgqF4gUkTqTo3B5PkhzJwglQfQKwQ8Rm9E5AU2RLpTOavt5prjpxdQB_0000]--></g></svg>