<svg xmlns="http://www.w3.org/2000/svg" xmlns:xlink="http://www.w3.org/1999/xlink" contentStyleType="text/css" data-diagram-type="CLASS" height="691px" preserveAspectRatio="none" style="width:941px;height:691px;background:#FFFFFF;" version="1.1" viewBox="0 0 941 691" width="941px" zoomAndPan="magnify"><title>HDDT FHIR Data Model</title><defs/><g><g class="title" data-source-line="5"><text fill="#000000" font-family="sans-serif" font-size="14" font-weight="bold" lengthAdjust="spacing" textLength="181.4736" x="372.7632" y="22.9951">HDDT FHIR Data Model</text></g><!--cluster HDDT_Measurements_and_Devices--><g class="cluster" data-entity="HDDT_Measurements_and_Devices" data-source-line="8" data-uid="ent0002" id="cluster_HDDT_Measurements_and_Devices"><rect fill="#CDE0FF" height="387.5" rx="2.5" ry="2.5" style="stroke:#181818;stroke-width:1;" width="928" x="7" y="44.2969"/><text fill="#000000" font-family="sans-serif" font-size="14" font-weight="bold" lengthAdjust="spacing" textLength="276.3906" x="332.8047" y="59.292">Device Data Recorde Manufacturer</text></g><!--cluster HDDT_Registries--><g class="cluster" data-entity="HDDT_Registries" data-source-line="38" data-uid="ent0011" id="cluster_HDDT_Registries"><rect fill="#F5A623" height="205.05" rx="2.5" ry="2.5" style="stroke:#181818;stroke-width:1;" width="380" x="555" y="480.7969"/><text fill="#000000" font-family="sans-serif" font-size="14" font-weight="bold" lengthAdjust="spacing" textLength="207.2314" x="641.3843" y="495.792">HDDT Registries at BfArM</text></g><!--class IV--><g class="entity" data-entity="IV" data-source-line="10" data-uid="ent0003" id="entity_IV"><rect fill="#F1F1F1" height="121.4531" rx="2.5" ry="2.5" style="stroke:#181818;stroke-width:0.5;" width="354.7881" x="140.61" y="79.2969"/><ellipse cx="244.4376" cy="99.4297" fill="#ADD1B2" rx="11" ry="11" style="stroke:#181818;stroke-width:1;"/><path d="M247.4064,105.0703 Q246.8283,105.3672 246.1876,105.5078 Q245.547,105.6641 244.8439,105.6641 Q242.3439,105.6641 241.0158,104.0234 Q239.7033,102.3672 239.7033,99.2422 Q239.7033,96.1172 241.0158,94.4609 Q242.3439,92.8047 244.8439,92.8047 Q245.547,92.8047 246.1876,92.9609 Q246.8439,93.1172 247.4064,93.4141 L247.4064,96.1328 Q246.7814,95.5547 246.1876,95.2891 Q245.5939,95.0078 244.9689,95.0078 Q243.6251,95.0078 242.9376,96.0859 Q242.2501,97.1484 242.2501,99.2422 Q242.2501,101.3359 242.9376,102.4141 Q243.6251,103.4766 244.9689,103.4766 Q245.5939,103.4766 246.1876,103.2109 Q246.7814,102.9297 247.4064,102.3516 L247.4064,105.0703 Z " fill="#000000"/><text fill="#000000" font-family="sans-serif" font-size="12" font-style="italic" lengthAdjust="spacing" textLength="119.373" x="274.5675" y="95.4355">&#171;FHIR Observation&#187;</text><text fill="#000000" font-family="sans-serif" font-size="14" lengthAdjust="spacing" textLength="138.6328" x="264.9376" y="111.2607">Interoperable Value</text><line style="stroke:#181818;stroke-width:0.5;" x1="141.61" x2="494.3981" y1="119.5625" y2="119.5625"/><text fill="#000000" font-family="sans-serif" font-size="14" lengthAdjust="spacing" textLength="304.5068" x="146.61" y="136.5576">status : status of the measured value [1..1]</text><text fill="#000000" font-family="sans-serif" font-size="14" lengthAdjust="spacing" textLength="342.7881" x="146.61" y="152.8545">code : classification of the measured value [1..1]</text><text fill="#000000" font-family="sans-serif" font-size="14" lengthAdjust="spacing" textLength="334.4619" x="146.61" y="169.1514">date : date or period of the measurement [1..1]</text><text fill="#000000" font-family="sans-serif" font-size="14" lengthAdjust="spacing" textLength="303.1875" x="146.61" y="185.4482">value : outcome of the measurement [1..1]</text><line style="stroke:#181818;stroke-width:0.5;" x1="141.61" x2="494.3981" y1="192.75" y2="192.75"/></g><!--class Metric--><g class="entity" data-entity="Metric" data-source-line="17" data-uid="ent0004" id="entity_Metric"><rect fill="#F1F1F1" height="88.8594" rx="2.5" ry="2.5" style="stroke:#181818;stroke-width:0.5;" width="429.1084" x="23.45" y="294.3469"/><ellipse cx="110.1297" cy="314.4797" fill="#ADD1B2" rx="11" ry="11" style="stroke:#181818;stroke-width:1;"/><path d="M113.0984,320.1203 Q112.5203,320.4172 111.8797,320.5578 Q111.2391,320.7141 110.5359,320.7141 Q108.0359,320.7141 106.7078,319.0734 Q105.3953,317.4172 105.3953,314.2922 Q105.3953,311.1672 106.7078,309.5109 Q108.0359,307.8547 110.5359,307.8547 Q111.2391,307.8547 111.8797,308.0109 Q112.5359,308.1672 113.0984,308.4641 L113.0984,311.1828 Q112.4734,310.6047 111.8797,310.3391 Q111.2859,310.0578 110.6609,310.0578 Q109.3172,310.0578 108.6297,311.1359 Q107.9422,312.1984 107.9422,314.2922 Q107.9422,316.3859 108.6297,317.4641 Q109.3172,318.5266 110.6609,318.5266 Q111.2859,318.5266 111.8797,318.2609 Q112.4734,317.9797 113.0984,317.4016 L113.0984,320.1203 Z " fill="#000000"/><text fill="#000000" font-family="sans-serif" font-size="12" font-style="italic" lengthAdjust="spacing" textLength="124.6465" x="191.931" y="310.4855">&#171;FHIR DeviceMetric&#187;</text><text fill="#000000" font-family="sans-serif" font-size="14" lengthAdjust="spacing" textLength="247.249" x="130.6297" y="326.3107">Sensor Type and Calibration Status</text><line style="stroke:#181818;stroke-width:0.5;" x1="24.45" x2="451.5584" y1="334.6125" y2="334.6125"/><text fill="#000000" font-family="sans-serif" font-size="14" lengthAdjust="spacing" textLength="351.9688" x="29.45" y="351.6076">type : kind of value measured by the sensor [1..1]</text><text fill="#000000" font-family="sans-serif" font-size="14" lengthAdjust="spacing" textLength="417.1084" x="29.45" y="367.9045">calibration.state : quality indicator for measurements [1..1]</text><line style="stroke:#181818;stroke-width:0.5;" x1="24.45" x2="451.5584" y1="375.2062" y2="375.2062"/></g><!--class PHD--><g class="entity" data-entity="PHD" data-source-line="22" data-uid="ent0005" id="entity_PHD"><rect fill="#F1F1F1" height="154.0469" rx="2.5" ry="2.5" style="stroke:#181818;stroke-width:0.5;" width="348.54" x="570.73" y="261.7569"/><ellipse cx="659.3682" cy="281.8897" fill="#ADD1B2" rx="11" ry="11" style="stroke:#181818;stroke-width:1;"/><path d="M662.3369,287.5303 Q661.7588,287.8272 661.1182,287.9678 Q660.4776,288.1241 659.7744,288.1241 Q657.2744,288.1241 655.9463,286.4834 Q654.6338,284.8272 654.6338,281.7022 Q654.6338,278.5772 655.9463,276.9209 Q657.2744,275.2647 659.7744,275.2647 Q660.4776,275.2647 661.1182,275.4209 Q661.7744,275.5772 662.3369,275.8741 L662.3369,278.5928 Q661.7119,278.0147 661.1182,277.7491 Q660.5244,277.4678 659.8994,277.4678 Q658.5557,277.4678 657.8682,278.5459 Q657.1807,279.6084 657.1807,281.7022 Q657.1807,283.7959 657.8682,284.8741 Q658.5557,285.9366 659.8994,285.9366 Q660.5244,285.9366 661.1182,285.6709 Q661.7119,285.3897 662.3369,284.8116 L662.3369,287.5303 Z " fill="#000000"/><text fill="#000000" font-family="sans-serif" font-size="12" font-style="italic" lengthAdjust="spacing" textLength="87.3398" x="717.5801" y="277.8955">&#171;FHIR Device&#187;</text><text fill="#000000" font-family="sans-serif" font-size="14" lengthAdjust="spacing" textLength="162.7637" x="679.8682" y="293.7207">Personal Health Device</text><line style="stroke:#181818;stroke-width:0.5;" x1="571.73" x2="918.27" y1="302.0225" y2="302.0225"/><text fill="#000000" font-family="sans-serif" font-size="14" lengthAdjust="spacing" textLength="258.0703" x="576.73" y="319.0176">type : machine-readable device type</text><text fill="#000000" font-family="sans-serif" font-size="14" lengthAdjust="spacing" textLength="241.3018" x="576.73" y="335.3145">deviceName : product name [1..1]</text><text fill="#000000" font-family="sans-serif" font-size="14" lengthAdjust="spacing" textLength="336.54" x="576.73" y="351.6114">manufacturer : name of the manufacturer [0..1]</text><text fill="#000000" font-family="sans-serif" font-size="14" lengthAdjust="spacing" textLength="247.0781" x="576.73" y="367.9082">serialNumber : serial number [1..1]</text><text fill="#000000" font-family="sans-serif" font-size="14" lengthAdjust="spacing" textLength="266.1025" x="576.73" y="384.2051">expirationDate : end of life date [0..1]</text><text fill="#000000" font-family="sans-serif" font-size="14" lengthAdjust="spacing" textLength="259.7656" x="576.73" y="400.502">property : additional properties [0..*]</text><line style="stroke:#181818;stroke-width:0.5;" x1="571.73" x2="918.27" y1="407.8038" y2="407.8038"/></g><!--entity xor--><g class="entity" data-entity="xor" data-source-line="32" data-uid="ent0007" id="entity_xor"><ellipse cx="626" cy="140.0269" fill="#F1F1F1" rx="8" ry="8" style="stroke:#181818;stroke-width:0.5;"/><text fill="#000000" font-family="sans-serif" font-size="14" lengthAdjust="spacing" textLength="40.4209" x="605.7896" y="170.022">{xor}</text></g><!--class DDR--><g class="entity" data-entity="DDR" data-source-line="40" data-uid="ent0012" id="entity_DDR"><rect fill="#F1F1F1" height="154.0469" rx="2.5" ry="2.5" style="stroke:#181818;stroke-width:0.5;" width="348.54" x="570.73" y="515.7969"/><ellipse cx="663.8389" cy="535.9297" fill="#ADD1B2" rx="11" ry="11" style="stroke:#181818;stroke-width:1;"/><path d="M666.8076,541.5703 Q666.2295,541.8672 665.5889,542.0078 Q664.9483,542.1641 664.2451,542.1641 Q661.7451,542.1641 660.417,540.5234 Q659.1045,538.8672 659.1045,535.7422 Q659.1045,532.6172 660.417,530.9609 Q661.7451,529.3047 664.2451,529.3047 Q664.9483,529.3047 665.5889,529.4609 Q666.2451,529.6172 666.8076,529.9141 L666.8076,532.6328 Q666.1826,532.0547 665.5889,531.7891 Q664.9951,531.5078 664.3701,531.5078 Q663.0264,531.5078 662.3389,532.5859 Q661.6514,533.6484 661.6514,535.7422 Q661.6514,537.8359 662.3389,538.9141 Q663.0264,539.9766 664.3701,539.9766 Q664.9951,539.9766 665.5889,539.7109 Q666.1826,539.4297 666.8076,538.8516 L666.8076,541.5703 Z " fill="#000000"/><text fill="#000000" font-family="sans-serif" font-size="12" font-style="italic" lengthAdjust="spacing" textLength="87.3398" x="717.5801" y="531.9355">&#171;FHIR Device&#187;</text><text fill="#000000" font-family="sans-serif" font-size="14" lengthAdjust="spacing" textLength="153.8223" x="684.3389" y="547.7607">Device Data Recorder</text><line style="stroke:#181818;stroke-width:0.5;" x1="571.73" x2="918.27" y1="556.0625" y2="556.0625"/><text fill="#000000" font-family="sans-serif" font-size="14" lengthAdjust="spacing" textLength="206.0898" x="576.73" y="573.0576">type = 462240000|SCT [1..1]</text><text fill="#000000" font-family="sans-serif" font-size="14" lengthAdjust="spacing" textLength="225.8799" x="576.73" y="589.3545">status : operational status [1..1]</text><text fill="#000000" font-family="sans-serif" font-size="14" lengthAdjust="spacing" textLength="241.3018" x="576.73" y="605.6514">deviceName : product name [1..1]</text><text fill="#000000" font-family="sans-serif" font-size="14" lengthAdjust="spacing" textLength="336.54" x="576.73" y="621.9482">manufacturer : name of the manufacturer [0..1]</text><text fill="#000000" font-family="sans-serif" font-size="14" lengthAdjust="spacing" textLength="259.7656" x="576.73" y="638.2451">property : additional properties [0..*]</text><text fill="#000000" font-family="sans-serif" font-size="14" lengthAdjust="spacing" textLength="326.8057" x="576.73" y="654.542">url : HDDT FHIR server endpoint address [1..1]</text><line style="stroke:#181818;stroke-width:0.5;" x1="571.73" x2="918.27" y1="661.8438" y2="661.8438"/></g><!--link Metric to PHD--><g class="link" data-entity-1="Metric" data-entity-2="PHD" data-source-line="30" data-uid="lnk6" id="link_Metric_PHD"><path codeLine="30" d="M453.01,338.7769 C492.15,338.7769 526.53,338.7769 564.33,338.7769" fill="none" id="Metric-to-PHD" style="stroke:#181818;stroke-width:1;"/><polygon fill="#181818" points="570.33,338.7769,561.33,334.7769,565.33,338.7769,561.33,342.7769,570.33,338.7769" style="stroke:#181818;stroke-width:1;"/><text fill="#000000" font-family="sans-serif" font-size="13" lengthAdjust="spacing" textLength="82.5386" x="470.64" y="331.8438">source [1..1]</text></g><!--link IV to xor--><g class="link" data-entity-1="IV" data-entity-2="xor" data-source-line="33" data-uid="lnk8" id="link_IV_xor"><path codeLine="33" d="M495.83,140.0269 C548.11,140.0269 590.64,140.0269 610.52,140.0269" fill="none" id="IV-to-xor" style="stroke:#181818;stroke-width:1;"/><polygon fill="#181818" points="616.52,140.0269,607.52,136.0269,611.52,140.0269,607.52,144.0269,616.52,140.0269" style="stroke:#181818;stroke-width:1;"/><text fill="#000000" font-family="sans-serif" font-size="13" lengthAdjust="spacing" textLength="81.7832" x="513.7" y="133.0938">device [1..1]</text></g><!--link xor to Metric--><g class="link" data-entity-1="xor" data-entity-2="Metric" data-source-line="34" data-uid="lnk9" id="link_xor_Metric"><path codeLine="34" d="M616.66,146.0569 C597.38,156.4369 551.69,180.8869 513,200.7569 C451.31,232.4169 386.7397,264.6 332.8197,291.23" fill="none" id="xor-to-Metric" style="stroke:#181818;stroke-width:1;"/><polygon fill="#181818" points="327.44,293.8869,337.2808,293.488,331.9231,291.6728,333.7382,286.3151,327.44,293.8869" style="stroke:#181818;stroke-width:1;"/></g><!--link xor to PHD--><g class="link" data-entity-1="xor" data-entity-2="PHD" data-source-line="35" data-uid="lnk10" id="link_xor_PHD"><path codeLine="35" d="M631.11,149.4769 C642.86,168.8969 669.6648,213.2229 695.8848,256.5729" fill="none" id="xor-to-PHD" style="stroke:#181818;stroke-width:1;"/><polygon fill="#181818" points="698.99,261.7069,697.7548,251.9358,696.4023,257.4286,690.9095,256.0761,698.99,261.7069" style="stroke:#181818;stroke-width:1;"/></g><!--link PHD to DDR--><g class="link" data-entity-1="PHD" data-entity-2="DDR" data-source-line="50" data-uid="lnk13" id="link_PHD_DDR"><path codeLine="50" d="M745,416.0869 C745,447.5269 745,477.8869 745,509.3369" fill="none" id="PHD-to-DDR" style="stroke:#181818;stroke-width:1;"/><polygon fill="#181818" points="745,515.3369,749,506.3369,745,510.3369,741,506.3369,745,515.3369" style="stroke:#181818;stroke-width:1;"/><text fill="#000000" font-family="sans-serif" font-size="13" lengthAdjust="spacing" textLength="81.98" x="746" y="460.8638">parent [1..1]</text></g><!--SRC=[jLJTJzim47_FNt6aBziaAYYCIHL3AWrL-r26qi8Uq8IkoGKiaZYp7KJ5-DztjjElQ8ZjOPQQskVxtSVlphUNKYPAWkdWydeq6CwluuiOEiFeuc0q2lQQovl9-NVeVBc8Zdg7Q-7vQ11FeJFwF3Zf7GM14IOd64VH74RZIGmH6eIfJ2aFzACeArHOG8N98zxJp2nPLr5YiBpFAGWQkOFVJGbrhQYWqkWxBDExY9v4GXfGG-ZttdfCYLGfnuvbdM5Y6AJ2tKnU0k3bFacEMiFanfcPb8QKh4ZXWYEvmRoc44vFNUJV5fhK4neXoxEpne9Tsg2fDVHN6vc1UI0eVBWfF5ahS7lOxHx-M8CIPe0Xphd8HEBC_XqqHMEXxaygu625J5jGIr8RvutrGTOcaGMzWtWDjjYPab4YSGpDgDJiTRwi2BW8CCHSB9GFV-O8M1FcQ-AnEumP2-u3bz_5xGDR9xrOkhYqTzJcRUEkQ_csTdxMB3HBO7EMI0Pb_DlAIx-PsDKuSbbTaTAon1p6XBbvQ49lPVAd70fC7hZhznLXwdeczOrehpSLSx9BB2oYKZAj4mEbFRQoAxOwbbMTogfCsrUt1pimxak1-MLTB1pC7w7qvvOBUgw4vo_ox94lGYuoyZtLCbwvzy3qzW7JL5Wa6s-aWf-VrV-qujP-csxPFtFqzY7KibR9Ajbmy_G-V8JmvLcgrz0MWJTEoa-HeNooq8PE3mMFjLVxhDBusP5PZy4hj4P7JFT2it8pBDmqsfOPECzuQeNDy7hPRf4eYj-QCEhT1laAnoUztl41hr-puRnTZFNeS2EdeROHjb_zV-wXVocpNRNAMNKpr-riPAlSJPKKF4hOY2BTUddyzco1RA4ihLnVdl-RmHF-1W00]--></g></svg>