<svg xmlns="http://www.w3.org/2000/svg" xmlns:xlink="http://www.w3.org/1999/xlink" contentStyleType="text/css" data-diagram-type="SEQUENCE" height="1664.0625px" preserveAspectRatio="none" style="width:1642px;height:1664px;background:#DFEBF0;" version="1.1" viewBox="0 0 1642 1664" width="1642.1875px" zoomAndPan="magnify"><title>RESTFul FHIR API Zugriffskontrollogik</title><defs/><g><rect fill="#DFEBF0" height="1664.0625" style="stroke:none;stroke-width:1.5625;" width="1642.1875" x="0" y="0"/><rect fill="#C85670" height="48.3643" rx="14.0625" ry="14.0625" width="618.9392" x="514.8899" y="15.625"/><text fill="#FFFFFF" font-family="sans-serif" font-size="28.125" font-weight="bold" lengthAdjust="spacing" textLength="603.3142" x="522.7024" y="49.5438">RESTFul FHIR API Zugriffskontrollogik</text><g><title>.DiGA</title><rect fill="#000000" fill-opacity="0.00000" height="1482.5806" width="12.5" x="59.3758" y="170.6299"/><line style="stroke:#95A4A8;stroke-width:0.7813;stroke-dasharray:7.8125,7.8125;" x1="64.8445" x2="64.8445" y1="170.6299" y2="1653.2104"/></g><g><title/><rect fill="#DFEBF0" height="1462.2681" style="stroke:#181818;stroke-width:1.5625;" width="15.625" x="57.032" y="183.1299"/></g><g><title>.Device Data Recorder</title><rect fill="#000000" fill-opacity="0.00000" height="1482.5806" width="12.5" x="686.4906" y="170.6299"/><line style="stroke:#95A4A8;stroke-width:0.7813;stroke-dasharray:7.8125,7.8125;" x1="691.9594" x2="691.9594" y1="170.6299" y2="1653.2104"/></g><g><title/><rect fill="#DFEBF0" height="356.1401" style="stroke:#181818;stroke-width:1.5625;" width="15.625" x="684.1469" y="355.835"/></g><g><title>.Device Data Recorder</title><rect fill="#000000" fill-opacity="0.00000" height="1482.5806" width="12.5" x="1226.0536" y="170.6299"/><line style="stroke:#95A4A8;stroke-width:0.7813;stroke-dasharray:7.8125,7.8125;" x1="1231.5224" x2="1231.5224" y1="170.6299" y2="1653.2104"/></g><rect fill="#5E9BB1" height="95.7031" rx="14.0625" ry="14.0625" style="stroke:#5E9BB1;stroke-width:0.7813;" width="114.064" x="7.8125" y="73.3643"/><text fill="#FFFFFF" font-family="sans-serif" font-size="28.125" font-weight="bold" lengthAdjust="spacing" textLength="77.8381" x="25.9254" y="110.408">DiGA</text><line style="stroke:#5E9BB1;stroke-width:1.5625;" x1="7.8125" x2="121.8765" y1="124.8535" y2="124.8535"/><text fill="#FFFFFF" font-family="monospace" font-size="21.875" lengthAdjust="spacing" textLength="92.189" x="18.75" y="152.9709">Backend</text><rect fill="#5E9BB1" height="95.7031" rx="14.0625" ry="14.0625" style="stroke:#5E9BB1;stroke-width:0.7813;" width="366.0217" x="508.9485" y="73.3643"/><text fill="#FFFFFF" font-family="sans-serif" font-size="28.125" font-weight="bold" lengthAdjust="spacing" textLength="344.1467" x="519.886" y="110.408">Device Data Recorder</text><line style="stroke:#5E9BB1;stroke-width:1.5625;" x1="508.9485" x2="874.9702" y1="124.8535" y2="124.8535"/><text fill="#FFFFFF" font-family="monospace" font-size="21.875" lengthAdjust="spacing" textLength="316.0767" x="533.9211" y="152.9709">Authorization&#160;Server&#160;API</text><rect fill="#5E9BB1" height="95.7031" rx="14.0625" ry="14.0625" style="stroke:#5E9BB1;stroke-width:0.7813;" width="366.0217" x="1048.5115" y="73.3643"/><text fill="#FFFFFF" font-family="sans-serif" font-size="28.125" font-weight="bold" lengthAdjust="spacing" textLength="344.1467" x="1059.449" y="110.408">Device Data Recorder</text><line style="stroke:#5E9BB1;stroke-width:1.5625;" x1="1048.5115" x2="1414.5332" y1="124.8535" y2="124.8535"/><text fill="#FFFFFF" font-family="monospace" font-size="21.875" lengthAdjust="spacing" textLength="250.2274" x="1106.4087" y="152.9709">Resource&#160;Server&#160;API</text><polygon fill="#5E9BB1" points="1212.7724,209.8999,1228.3974,216.1499,1212.7724,222.3999,1219.0224,216.1499" style="stroke:#5E9BB1;stroke-width:1.5625;"/><line style="stroke:#5E9BB1;stroke-width:3.125;" x1="72.657" x2="1222.1474" y1="216.1499" y2="216.1499"/><text fill="#111111" font-family="sans-serif" font-size="20.3125" lengthAdjust="spacing" textLength="394.3878" x="83.5945" y="208.2344">FHIR-Resource Request (access-token)</text><path d="M53.907,234.8999 L140.5365,234.8999 L140.5365,246.0449 L124.9115,261.6699 L39.8445,261.6699 L39.8445,248.9624 A14.0625,14.0625 0 0 1 53.907,234.8999" fill="#A0C5CF" style="stroke:#5E9BB1;stroke-width:2.3438;"/><rect fill="none" height="535.0952" rx="14.0625" ry="14.0625" style="stroke:#5E9BB1;stroke-width:2.3438;" width="1216.6779" x="39.8445" y="234.8999"/><text fill="#111111" font-family="sans-serif" font-size="20.3125" font-weight="bold" lengthAdjust="spacing" textLength="30.3795" x="63.282" y="255.3169">alt</text><text fill="#0F2A33" font-family="sans-serif" font-size="17.1875" font-weight="bold" lengthAdjust="spacing" textLength="225.7034" x="163.974" y="253.9787">[Access Token expired]</text><polygon fill="#5E9BB1" points="89.8445,304.0649,74.2195,310.3149,89.8445,316.5649,83.5945,310.3149" style="stroke:#5E9BB1;stroke-width:1.5625;"/><line style="stroke:#5E9BB1;stroke-width:3.125;" x1="80.4695" x2="1229.9599" y1="310.3149" y2="310.3149"/><text fill="#111111" font-family="sans-serif" font-size="20.3125" lengthAdjust="spacing" textLength="438.633" x="99.2195" y="302.3994">HTTP 401 UNAUTHORIZED "token_expired"</text><polygon fill="#5E9BB1" points="665.3969,349.585,681.0219,355.835,665.3969,362.085,671.6469,355.835" style="stroke:#5E9BB1;stroke-width:1.5625;"/><line style="stroke:#5E9BB1;stroke-width:3.125;" x1="72.657" x2="674.7719" y1="355.835" y2="355.835"/><text fill="#111111" font-family="sans-serif" font-size="20.3125" lengthAdjust="spacing" textLength="581.8024" x="83.5945" y="347.9195">token request including tls_client_auth and refresh-token</text><line style="stroke:#5E9BB1;stroke-width:3.125;" x1="72.657" x2="138.282" y1="425" y2="425"/><line style="stroke:#5E9BB1;stroke-width:3.125;" x1="138.282" x2="138.282" y1="425" y2="445.3125"/><line style="stroke:#5E9BB1;stroke-width:3.125;" x1="74.2195" x2="138.282" y1="445.3125" y2="445.3125"/><polygon fill="#5E9BB1" points="89.8445,439.0625,74.2195,445.3125,89.8445,451.5625,83.5945,445.3125" style="stroke:#5E9BB1;stroke-width:1.5625;"/><text fill="#111111" font-family="sans-serif" font-size="20.3125" lengthAdjust="spacing" textLength="214.9376" x="83.5945" y="393.4395">Authentication of the</text><text fill="#111111" font-family="sans-serif" font-size="20.3125" lengthAdjust="spacing" textLength="425.5013" x="83.5945" y="417.0845">Device Data Recorder (FQDN, X.509 Cert)</text><line style="stroke:#5E9BB1;stroke-width:3.125;" x1="699.7719" x2="765.3969" y1="514.4775" y2="514.4775"/><line style="stroke:#5E9BB1;stroke-width:3.125;" x1="765.3969" x2="765.3969" y1="514.4775" y2="534.79"/><line style="stroke:#5E9BB1;stroke-width:3.125;" x1="701.3344" x2="765.3969" y1="534.79" y2="534.79"/><polygon fill="#5E9BB1" points="716.9594,528.54,701.3344,534.79,716.9594,541.04,710.7094,534.79" style="stroke:#5E9BB1;stroke-width:1.5625;"/><text fill="#111111" font-family="sans-serif" font-size="20.3125" lengthAdjust="spacing" textLength="272.3145" x="710.7094" y="482.917">Authentication of the DiGA</text><text fill="#111111" font-family="sans-serif" font-size="20.3125" lengthAdjust="spacing" textLength="221.8407" x="710.7094" y="506.562">(client_id, X.509 Cert)</text><line style="stroke:#5E9BB1;stroke-width:3.125;" x1="699.7719" x2="765.3969" y1="580.3101" y2="580.3101"/><line style="stroke:#5E9BB1;stroke-width:3.125;" x1="765.3969" x2="765.3969" y1="580.3101" y2="600.6226"/><line style="stroke:#5E9BB1;stroke-width:3.125;" x1="701.3344" x2="765.3969" y1="600.6226" y2="600.6226"/><polygon fill="#5E9BB1" points="716.9594,594.3726,701.3344,600.6226,716.9594,606.8726,710.7094,600.6226" style="stroke:#5E9BB1;stroke-width:1.5625;"/><text fill="#111111" font-family="sans-serif" font-size="20.3125" lengthAdjust="spacing" textLength="509.8755" x="710.7094" y="572.3946">Validate status of DiGA(client_id) against DiGA-VZ</text><line style="stroke:#5E9BB1;stroke-width:3.125;" x1="699.7719" x2="765.3969" y1="646.1426" y2="646.1426"/><line style="stroke:#5E9BB1;stroke-width:3.125;" x1="765.3969" x2="765.3969" y1="646.1426" y2="666.4551"/><line style="stroke:#5E9BB1;stroke-width:3.125;" x1="701.3344" x2="765.3969" y1="666.4551" y2="666.4551"/><polygon fill="#5E9BB1" points="716.9594,660.2051,701.3344,666.4551,716.9594,672.7051,710.7094,666.4551" style="stroke:#5E9BB1;stroke-width:1.5625;"/><text fill="#111111" font-family="sans-serif" font-size="20.3125" lengthAdjust="spacing" textLength="227.0477" x="710.7094" y="638.2271">Validate refresh-token</text><polygon fill="#5E9BB1" points="89.8445,705.7251,74.2195,711.9751,89.8445,718.2251,83.5945,711.9751" style="stroke:#5E9BB1;stroke-width:1.5625;"/><line style="stroke:#5E9BB1;stroke-width:3.125;" x1="80.4695" x2="682.5844" y1="711.9751" y2="711.9751"/><text fill="#111111" font-family="sans-serif" font-size="20.3125" lengthAdjust="spacing" textLength="462.3672" x="99.2195" y="704.0596">token response (access-token, refresh-token)</text><polygon fill="#5E9BB1" points="1212.7724,751.2451,1228.3974,757.4951,1212.7724,763.7451,1219.0224,757.4951" style="stroke:#5E9BB1;stroke-width:1.5625;"/><line style="stroke:#5E9BB1;stroke-width:3.125;" x1="72.657" x2="1222.1474" y1="757.4951" y2="757.4951"/><text fill="#111111" font-family="sans-serif" font-size="20.3125" lengthAdjust="spacing" textLength="381.9901" x="83.5945" y="749.5796">FHIR resource request (access-token)</text><line style="stroke:#5E9BB1;stroke-width:3.125;" x1="72.657" x2="138.282" y1="848.5352" y2="848.5352"/><line style="stroke:#5E9BB1;stroke-width:3.125;" x1="138.282" x2="138.282" y1="848.5352" y2="868.8477"/><line style="stroke:#5E9BB1;stroke-width:3.125;" x1="74.2195" x2="138.282" y1="868.8477" y2="868.8477"/><polygon fill="#5E9BB1" points="89.8445,862.5977,74.2195,868.8477,89.8445,875.0977,83.5945,868.8477" style="stroke:#5E9BB1;stroke-width:1.5625;"/><text fill="#111111" font-family="sans-serif" font-size="20.3125" lengthAdjust="spacing" textLength="214.9376" x="83.5945" y="816.9746">Authentication of the</text><text fill="#111111" font-family="sans-serif" font-size="20.3125" lengthAdjust="spacing" textLength="425.5013" x="83.5945" y="840.6197">Device Data Recorder (FQDN, X.509 Cert)</text><line style="stroke:#5E9BB1;stroke-width:3.125;" x1="1231.5224" x2="1297.1474" y1="938.0127" y2="938.0127"/><line style="stroke:#5E9BB1;stroke-width:3.125;" x1="1297.1474" x2="1297.1474" y1="938.0127" y2="958.3252"/><line style="stroke:#5E9BB1;stroke-width:3.125;" x1="1233.0849" x2="1297.1474" y1="958.3252" y2="958.3252"/><polygon fill="#5E9BB1" points="1248.7099,952.0752,1233.0849,958.3252,1248.7099,964.5752,1242.4599,958.3252" style="stroke:#5E9BB1;stroke-width:1.5625;"/><text fill="#111111" font-family="sans-serif" font-size="20.3125" lengthAdjust="spacing" textLength="272.3145" x="1242.4599" y="906.4522">Authentication of the DiGA</text><text fill="#111111" font-family="sans-serif" font-size="20.3125" lengthAdjust="spacing" textLength="221.8407" x="1242.4599" y="930.0972">(client_id, X.509 Cert)</text><line style="stroke:#5E9BB1;stroke-width:3.125;" x1="1231.5224" x2="1297.1474" y1="1003.8452" y2="1003.8452"/><line style="stroke:#5E9BB1;stroke-width:3.125;" x1="1297.1474" x2="1297.1474" y1="1003.8452" y2="1024.1577"/><line style="stroke:#5E9BB1;stroke-width:3.125;" x1="1233.0849" x2="1297.1474" y1="1024.1577" y2="1024.1577"/><polygon fill="#5E9BB1" points="1248.7099,1017.9077,1233.0849,1024.1577,1248.7099,1030.4077,1242.4599,1024.1577" style="stroke:#5E9BB1;stroke-width:1.5625;"/><text fill="#111111" font-family="sans-serif" font-size="20.3125" lengthAdjust="spacing" textLength="223.1895" x="1242.4599" y="995.9297">Validate access-token</text><line style="stroke:#5E9BB1;stroke-width:3.125;" x1="1231.5224" x2="1297.1474" y1="1093.3228" y2="1093.3228"/><line style="stroke:#5E9BB1;stroke-width:3.125;" x1="1297.1474" x2="1297.1474" y1="1093.3228" y2="1113.6353"/><line style="stroke:#5E9BB1;stroke-width:3.125;" x1="1233.0849" x2="1297.1474" y1="1113.6353" y2="1113.6353"/><polygon fill="#5E9BB1" points="1248.7099,1107.3853,1233.0849,1113.6353,1248.7099,1119.8853,1242.4599,1113.6353" style="stroke:#5E9BB1;stroke-width:1.5625;"/><text fill="#111111" font-family="sans-serif" font-size="20.3125" lengthAdjust="spacing" textLength="248.8579" x="1242.4599" y="1061.7622">Validate request against</text><text fill="#111111" font-family="sans-serif" font-size="20.3125" lengthAdjust="spacing" textLength="305.6992" x="1248.9166" y="1085.4073">FHIR API access specifications</text><line style="stroke:#5E9BB1;stroke-width:3.125;" x1="1231.5224" x2="1297.1474" y1="1182.8003" y2="1182.8003"/><line style="stroke:#5E9BB1;stroke-width:3.125;" x1="1297.1474" x2="1297.1474" y1="1182.8003" y2="1203.1128"/><line style="stroke:#5E9BB1;stroke-width:3.125;" x1="1233.0849" x2="1297.1474" y1="1203.1128" y2="1203.1128"/><polygon fill="#5E9BB1" points="1248.7099,1196.8628,1233.0849,1203.1128,1248.7099,1209.3628,1242.4599,1203.1128" style="stroke:#5E9BB1;stroke-width:1.5625;"/><text fill="#111111" font-family="sans-serif" font-size="20.3125" lengthAdjust="spacing" textLength="301.593" x="1242.4599" y="1151.2398">Derive Pairing-ID and internal</text><text fill="#111111" font-family="sans-serif" font-size="20.3125" lengthAdjust="spacing" textLength="286.9736" x="1248.9166" y="1174.8848">patientID from access token</text><line style="stroke:#5E9BB1;stroke-width:3.125;" x1="1231.5224" x2="1297.1474" y1="1272.2778" y2="1272.2778"/><line style="stroke:#5E9BB1;stroke-width:3.125;" x1="1297.1474" x2="1297.1474" y1="1272.2778" y2="1292.5903"/><line style="stroke:#5E9BB1;stroke-width:3.125;" x1="1233.0849" x2="1297.1474" y1="1292.5903" y2="1292.5903"/><polygon fill="#5E9BB1" points="1248.7099,1286.3403,1233.0849,1292.5903,1248.7099,1298.8403,1242.4599,1292.5903" style="stroke:#5E9BB1;stroke-width:1.5625;"/><text fill="#111111" font-family="sans-serif" font-size="20.3125" lengthAdjust="spacing" textLength="382.6149" x="1242.4599" y="1240.7173">Validate request against MIVs/Scopes</text><text fill="#111111" font-family="sans-serif" font-size="20.3125" lengthAdjust="spacing" textLength="337.7548" x="1248.9166" y="1264.3623">associated with the access-token</text><line style="stroke:#5E9BB1;stroke-width:3.125;" x1="1231.5224" x2="1297.1474" y1="1361.7554" y2="1361.7554"/><line style="stroke:#5E9BB1;stroke-width:3.125;" x1="1297.1474" x2="1297.1474" y1="1361.7554" y2="1382.0679"/><line style="stroke:#5E9BB1;stroke-width:3.125;" x1="1233.0849" x2="1297.1474" y1="1382.0679" y2="1382.0679"/><polygon fill="#5E9BB1" points="1248.7099,1375.8179,1233.0849,1382.0679,1248.7099,1388.3179,1242.4599,1382.0679" style="stroke:#5E9BB1;stroke-width:1.5625;"/><text fill="#111111" font-family="sans-serif" font-size="20.3125" lengthAdjust="spacing" textLength="364.9803" x="1242.4599" y="1330.1949">discover requested FHIR ressources</text><text fill="#111111" font-family="sans-serif" font-size="20.3125" lengthAdjust="spacing" textLength="367.3904" x="1242.4599" y="1353.8399">(patientID, MIV, request arguments)</text><line style="stroke:#5E9BB1;stroke-width:3.125;" x1="1231.5224" x2="1297.1474" y1="1427.5879" y2="1427.5879"/><line style="stroke:#5E9BB1;stroke-width:3.125;" x1="1297.1474" x2="1297.1474" y1="1427.5879" y2="1447.9004"/><line style="stroke:#5E9BB1;stroke-width:3.125;" x1="1233.0849" x2="1297.1474" y1="1447.9004" y2="1447.9004"/><polygon fill="#5E9BB1" points="1248.7099,1441.6504,1233.0849,1447.9004,1248.7099,1454.1504,1242.4599,1447.9004" style="stroke:#5E9BB1;stroke-width:1.5625;"/><text fill="#111111" font-family="sans-serif" font-size="20.3125" lengthAdjust="spacing" textLength="319.0094" x="1242.4599" y="1419.6724">write log entries (Pairing-ID, ...)</text><polygon fill="#5E9BB1" points="89.8445,1487.1704,74.2195,1493.4204,89.8445,1499.6704,83.5945,1493.4204" style="stroke:#5E9BB1;stroke-width:1.5625;"/><line style="stroke:#5E9BB1;stroke-width:3.125;" x1="80.4695" x2="1229.9599" y1="1493.4204" y2="1493.4204"/><text fill="#111111" font-family="sans-serif" font-size="20.3125" lengthAdjust="spacing" textLength="163.4323" x="99.2195" y="1485.5049">FHIR ressources</text><line style="stroke:#5E9BB1;stroke-width:3.125;" x1="72.657" x2="138.282" y1="1538.9404" y2="1538.9404"/><line style="stroke:#5E9BB1;stroke-width:3.125;" x1="138.282" x2="138.282" y1="1538.9404" y2="1559.2529"/><line style="stroke:#5E9BB1;stroke-width:3.125;" x1="74.2195" x2="138.282" y1="1559.2529" y2="1559.2529"/><polygon fill="#5E9BB1" points="89.8445,1553.0029,74.2195,1559.2529,89.8445,1565.5029,83.5945,1559.2529" style="stroke:#5E9BB1;stroke-width:1.5625;"/><text fill="#111111" font-family="sans-serif" font-size="20.3125" lengthAdjust="spacing" textLength="319.0094" x="83.5945" y="1531.0249">write log entries (Pairing-ID, ...)</text><line style="stroke:#5E9BB1;stroke-width:3.125;" x1="72.657" x2="138.282" y1="1604.7729" y2="1604.7729"/><line style="stroke:#5E9BB1;stroke-width:3.125;" x1="138.282" x2="138.282" y1="1604.7729" y2="1625.0854"/><line style="stroke:#5E9BB1;stroke-width:3.125;" x1="74.2195" x2="138.282" y1="1625.0854" y2="1625.0854"/><polygon fill="#5E9BB1" points="89.8445,1618.8354,74.2195,1625.0854,89.8445,1631.3354,83.5945,1625.0854" style="stroke:#5E9BB1;stroke-width:1.5625;"/><text fill="#111111" font-family="sans-serif" font-size="20.3125" lengthAdjust="spacing" textLength="450.9216" x="83.5945" y="1596.8575">Process FHIR resources for eligible purposes</text><!--SRC=[hLZhKziu4F-C_uej_T0maz24DhHqe3FE2vZZaNC2r-DwmoYsdEXmB9yiG-dH__rMbkCNTi8zyWbhTt_wxKEx4c_WIFrWJ3mg9TLVnYk7kiodqByyk-qTG_ORZ8QzKRiWdmw_J5Dv9_uLxI-jmT1Av0TTyxtviMHldgNstU51hrUqFpizFfckjCnslziV5UG3q_ef1McFzintxmfoovoCUqFB-bN9U-PU_ts_MdvxFe3-n-x-XxPXl4d2Skpn6V70u_mk2Krun_o02BA46R7lve97ljFd7XVmMaShfn4kYCCVc3y7btWXpKcSW46dsywjM1f8-5H0vsDECA0kYJmvuhxCxQEYdbCoXU0FqmMpxtmQXh1N5XKipRFCmSlP7zIM8JHSbFFu0nn6vcWPxZnpEL7uoy18bhn_M319rJeN3XNvYCJvHyaPHZoZsDdTmxKghm0caWhAvMD0I_84wqSkGHG3ncmGo8luSu-YAqiYxGN-ySWZ0JF-ZLPuakfhP_upwPZIc8gG-rWl0thFR0eDIOdNcdaHtQdQ-l2mPF3vSsLeixHLC4tMCqwhH5G5SINB5zjUkyBDhdQeptsNpID19EC-D3msNqXGJjNuKz1VvqrsgAjyAaXBqKwFUycDphwcV4v960dgW4CaWOP3QG22XC6C2l5OGtkPjrb7E-qLLQppmWqXtwiF-G3B-JwblsJEHlPEpk95vB7HhUMlvUjTm1QbwV8bORuwPT28zU21oKLS8xYeTgXXhGrh-DOsaoJnnTZjhMab1SvjpVc2Hb8WlmNr0YggwVbQPrqyiTN_Wywnhc_eLZQXVqRKjsahwRyW8r_DZhWrnxqi84p4qyJZ3yzRsif-GqVBpOFyG524NQf8htCfqQW91wgCYP3CPW7nPLtoyYfhEbrEhLoAoWjRSb6tWnPkx3knMcrxGOKtG6p9xdNtcn4HQgDafKVMd9w2slgZ5c-ac0OukuwEca0ysGGgxTqT51qhGPsZMhZHqLXjlQE2kZWki7gKZzRgesxVJ67Ztgdg-lrzBd5YlyMxnpt3BHMB2rpQs8LZfNMTM2bKrCz0xxEf2QxKQiz_eb1ohe2IE-9J9l76uU9fnSk16ZYXVFHe4s9ewZGrF-oUt-JpyosLSTcLadXpuoyRh0r0fNBMrDhL2hLNsTI32VjEbSXOOF30vLpY035U1OBCbmJTvzz1YWWJjRgedviNLoEpFxsoy2dnklGAk3xj_OBa3uRxVJDTx8rCwnnUZ_O77thxwUfaFEpZeZbwryTRlX4J0ciucOuY3qOdfnQOurEuYUQ2kMvuXrG5zpm-PtU64MGD2TD-R4BiBBJXDsFhI2qOMoty6LlRsoeDr7UsjutV2sOdx9pTcf5St2J6dSHQtnS7QkPRr8vb6Peou89zrtreGiKzMY9F1G_6ymqiF4a9VES5yAYEmmNbHMJ3E8ohypDMUPYCba4ocTI4WQnd9DzwJXxdoy-TkLrt5aj_u44uV9j0FfzQTISjoRMHT68QXzw8uz_wdFhxAKvUAtN5KgYXX0QniQM5BSan7pi6TbRip6e5fce5wBU0gNDeRAMHGrI5_WbEfjCnl6ztuEh2l9gUN5gdDyC1RCTGjudXjh5Le1BdzXF4EXWVJOBvjXSvQd1BBxorFKPzUKjG4uZlg2WA6YuqHMChzJF3o_RGnDGYGZ1R5mHt0R_Xgr-LPcYCVXvSDE7BRhTz07qgv4xYgox34l5gw7ZxhtuZeSwS5-DT4uyvofjG4Xc52b21PKWxGEPu3mpraMfTty2Bu0f1UsQYmxHAGXXmFwJ5KcWM4T07XwwDVB7G5AekD55TQ7ZuZVytQVdwpCZygtnLGwMnpNkoINVb_Yg9N_siYseS20DgCpTX6DO0wbSFtldY2sxhT10V3URZ6rOzZn4sG7jq1YMkuCiL-ByYUNvw7RwTs3n02qGcOSXjXefEydPPl2W63Wjjhlfb0e_cgzBGjQ706odjfjgscN4HysY9Wd07Ql0VXBeAuEm1L1DC_MCZ2qyJTdTtIwQwpaeSIbNu8j2YoLZmEDI5kWz1FKgen-PiXXCqY4J0GzpjwQdzz6JapbBShSjd2md_3G00]--></g></svg>